<?xml version="1.0" encoding="UTF-8" standalone="no"?>
<svg xmlns:rdf="http://www.w3.org/1999/02/22-rdf-syntax-ns#" xmlns="http://www.w3.org/2000/svg" xml:space="preserve" viewBox="0 0 16.795313 16.795313" height="32" width="32" version="1.1" y="0px" x="0px" xmlns:cc="http://creativecommons.org/ns#" xmlns:dc="http://purl.org/dc/elements/1.1/"><path d="m9.45 5.35c-0.275-0.275-0.722-0.275-0.997 0l-0.24 0.25-3.49 3.49-0.11 0.11s-0.351 0.353-1.14 2.91c-0.00555 0.0178-0.0111 0.0356-0.0167 0.0537-0.0141 0.0457-0.0284 0.0922-0.0428 0.139-0.0127 0.0416-0.0256 0.0841-0.0386 0.127-0.0109 0.036-0.0217 0.0717-0.0328 0.109-0.0251 0.0836-0.0505 0.169-0.0764 0.257-0.0569 0.193-0.196 0.628-0.0387 0.785 0.151 0.152 0.591 0.0182 0.783-0.0388 0.0872-0.0259 0.172-0.0512 0.255-0.0762 0.0383-0.0116 0.0755-0.0229 0.113-0.0343l0.12-0.0365c0.0496-0.0152 0.0985-0.0303 0.147-0.0452 0.0143-0.0045 0.0284-0.0089 0.0426-0.0133 2.43-0.756 2.87-1.11 2.9-1.14 0.000274-0.000195 0.000274-0.000195 0.000469-0.000391 0.00152-0.0014 0.00258-0.0023 0.00258-0.0023l0.113-0.113 0.00754 0.0075 3.49-3.49-0.000039-0.000039 0.249-0.249c0.275-0.275 0.275-0.722 0-0.997l-1.95-2zm-2.27 6.38c-0.00305 0.0021-0.00719 0.0048-0.0116 0.0075-0.00242 0.0016-0.00536 0.0034-0.00825 0.0052-0.00293 0.0018-0.00614 0.0038-0.00954 0.0059-0.00301 0.0018-0.00614 0.0037-0.0095 0.0057-0.116 0.0694-0.457 0.249-1.28 0.548-0.0966 0.0349-0.202 0.072-0.312 0.11l-1.17-1.2c0.0383-0.111 0.0754-0.217 0.11-0.314 0.299-0.829 0.478-1.17 0.547-1.29 0.00168-0.00277 0.00321-0.00531 0.00473-0.00781 0.00242-0.00398 0.00469-0.0077 0.0068-0.0111 0.00168-0.0027 0.00344-0.00551 0.00493-0.00781 0.00278-0.00434 0.00547-0.00848 0.00754-0.0116l0.086-0.0862 2.13 2.13-0.0879 0.0881zm6.22-6.35-2-1.99c-0.275-0.275-0.721-0.275-0.997 0l-0.45 0.49c-0.275 0.275-0.275 0.722 0 0.997l1.99 1.99c0.275 0.275 0.721 0.275 0.997 0l0.498-0.499c0.275-0.275 0.275-0.722 0-0.997z" fill-rule="evenodd" clip-rule="evenodd" fill="#fff"/></svg>
