<?xml version="1.0" encoding="UTF-8" standalone="no"?>
<svg xmlns:rdf="http://www.w3.org/1999/02/22-rdf-syntax-ns#" xmlns="http://www.w3.org/2000/svg" xml:space="preserve" height="32" width="32" version="1.1" y="0px" x="0px" xmlns:cc="http://creativecommons.org/ns#" xmlns:dc="http://purl.org/dc/elements/1.1/" viewBox="0 0 16.77975 16.77975"><path d="m14.6 0.837h-12.3c-1.17 0-2.25 1.09-2.25 2.24v7.81c0 1.16 1.08 2.24 2.24 2.24h0.559v2.79l5.03-2.79h6.69c1.16 0 2.24-1.08 2.24-2.24v-7.81c0-1.14-1.06-2.22-2.19-2.22zm-10.6 7.31c-0.618 0-1.12-0.502-1.12-1.12 0-0.62 0.501-1.12 1.12-1.12 0.618 0 1.12 0.502 1.12 1.12 0 0.62-0.501 1.12-1.12 1.12zm4.48 0c-0.618 0-1.12-0.502-1.12-1.12 0-0.62 0.501-1.12 1.12-1.12 0.618 0 1.12 0.502 1.12 1.12 0 0.62-0.501 1.12-1.12 1.12zm4.47 0c-0.618 0-1.12-0.502-1.12-1.12 0-0.62 0.501-1.12 1.12-1.12 0.618 0 1.12 0.502 1.12 1.12 0.000063 0.62-0.501 1.12-1.12 1.12z" fill-rule="evenodd" clip-rule="evenodd" fill="#c0c0c0"/></svg>
