<?xml version="1.0" encoding="UTF-8" standalone="no"?>
<svg xmlns:rdf="http://www.w3.org/1999/02/22-rdf-syntax-ns#" xmlns="http://www.w3.org/2000/svg" xml:space="preserve" height="32" viewBox="0 0 1.9214375 1.9215" width="32" version="1.1" y="0px" x="0px" xmlns:cc="http://creativecommons.org/ns#" xmlns:dc="http://purl.org/dc/elements/1.1/"><g fill="#ffcc40" transform="matrix(.0625 0 0 .0625 -.0000312 4.54e-8)"><path d="m28.6 9.67h-0.842v9.26c0 1.44-0.839 2.74-2.52 2.74h-16.5v0.44c0 1.27 1.45 2.56 2.94 2.56h12.6l4.82 2.83-0.699-2.83h0.185c1.49 0 2.16-1.28 2.16-2.56v-10.2c0-1.27-0.671-2.2-2.16-2.2z"/><path d="m22.8 3.24h-19.1c-1.76 0-3.7 1.5-3.7 2.94v11.6c0 1.33 1.64 2.29 3.22 2.44l-1.02 3.89 6.57-3.86h14c1.6 0 3.2-1 3.2-2.4v-9.41-2.21c0-1.44-1.6-2.94-3.2-2.94zm-16.2 9.79c-0.955 0-1.73-0.774-1.73-1.73 0-0.955 0.774-1.73 1.73-1.73 0.954 0 1.73 0.774 1.73 1.73 0 0.955-0.775 1.73-1.73 1.73zm6.46 0c-0.955 0-1.73-0.774-1.73-1.73 0-0.955 0.774-1.73 1.73-1.73 0.955 0 1.73 0.774 1.73 1.73 0 0.955-0.774 1.73-1.73 1.73zm6.46 0c-0.955 0-1.73-0.774-1.73-1.73 0-0.955 0.775-1.73 1.73-1.73 0.953 0 1.73 0.774 1.73 1.73 0 0.955-0.776 1.73-1.73 1.73z"/></g></svg>
