<?xml version="1.0" encoding="UTF-8" standalone="no"?>
<svg xmlns:rdf="http://www.w3.org/1999/02/22-rdf-syntax-ns#" xmlns="http://www.w3.org/2000/svg" xml:space="preserve" viewBox="0 0 15.101812 15.101812" height="32" width="32" version="1.1" y="0px" x="0px" xmlns:cc="http://creativecommons.org/ns#" xmlns:dc="http://purl.org/dc/elements/1.1/"><path d="m7.55 5.98h2.45v-1.75h-2.45v1.75zm-2.45 6.29h4.89v-4.19h-4.89v4.19zm6.99-6.55v-2.88 1.57l-1.51-1.57h-6.56v0.000898c-0.0794-0.000547-0.163-0.000859-0.252-0.000859-0.418 0-0.757 0.352-0.757 0.787v7.87c0 0.434 0.339 0.787 0.757 0.787 0.098 0 0.181-0.0011 0.252-0.0043v0.0042h0.388v-0.187c0.0209-0.104 0-0.264 0-0.512v-3.5c0-0.541 0.191-0.699 0.699-0.699h4.89c0.519 0 0.699 0.18 0.699 0.699v4.19h0.388v-0.0046c0.0718 0.0048 0.155 0.0046 0.252 0.0046 0.418 0 0.757-0.352 0.757-0.787v-5.77-0.000117zm-1.4-0.0873c0 0.53-0.18 0.699-0.699 0.699h-4.54c-0.519 0-0.699-0.191-0.699-0.699v-1.05c0-0.53 0.18-0.699 0.699-0.699h4.54c0.53 0 0.699 0.169 0.699 0.699v1.05z" fill-rule="evenodd" clip-rule="evenodd" fill="#fff"/></svg>
