<svg version="1.1" viewBox="0 0 32 32" xmlns="http://www.w3.org/2000/svg">
  <path d="m15 .00835c-1.24 0-2.98.717-3.86 1.59l-10.5 10.5c-.877.877-.877 
    2.32 0 3.18l8.08 8.08c.877.877 2.32.877 3.19 0l10.5-10.5c.877-.877 1.6-2.61 
    1.6-3.86v-6.75c-4.5e-5-1.24-1.02-2.26-2.26-2.26l-.0019-.00195zm3.76 3.01c1.24 
    0 2.24 1.01 2.24 2.24 0 1.24-1.01 2.24-2.24 2.24-1.24 0-2.24-1.01-2.24-2.24 
    0-1.24 1.01-2.24 2.24-2.24zm6.26.998v6.02c0 1.24-.717 2.96-1.6 3.86l-10.5 
    10.5c-.877.877-2.32.877-3.19 0l2.99 2.99c.877.877 2.32.877 3.19 
    0l10.5-10.5c.877-.877 1.6-2.61 
    1.6-3.86v-6.75c-4.5e-5-1.24-1.02-2.26-2.26-2.26l-.0019-.00195zm4 4v6.02c0 
    1.24-.717 2.96-1.6 3.86l-10.5 10.5c-.877.877-2.32.877-3.19 0l2.99 
    2.99c.877.877 2.32.877 3.19 0l10.5-10.5c.877-.877 1.6-2.61 
    1.6-3.86v-6.75c-4.5e-5-1.24-1.02-2.26-2.26-2.26l-.0019-.00192z"/>
</svg>
