<svg version="1.1" viewBox="0 0 32 32" xmlns="http://www.w3.org/2000/svg">
 <path d="m16 0a16 16 0 00-16 16 16 16 0 0016 16 16 16 0 0016-16 16 16 0 00-16-16zm.154 6c2.13 0 3.8.503 5.01 1.51 1.22.998 1.83 2.38 1.83 4.14 0 .904-.198 1.72-.594 2.43-.386.718-1.11 1.47-2.18 2.27l-1.03.77c-.611.457-1.07.919-1.37 1.38-.296.466-.459.978-.486 1.54h-3.6c.0539-.951.311-1.8.77-2.54.467-.746 1.15-1.44 2.05-2.1.961-.69 1.64-1.3 2.04-1.82.395-.531.594-1.12.594-1.76 0-.821-.262-1.47-.783-1.94-.512-.476-1.24-.715-2.2-.715-.907 0-1.67.276-2.29.826-.611.55-.97 1.28-1.08 2.18l-3.84-.168c.243-1.89.992-3.37 2.25-4.42 1.26-1.05 2.89-1.58 4.9-1.58zm-2.52 16.2h3.89v3.78h-3.89v-3.78z"/>
</svg>
