<svg version="1.1" viewBox="0 0 32 32" xmlns="http://www.w3.org/2000/svg">
  <path d="m27.3 24.6c-1.75-1.73-3.49-3.51-5.25-5.21 1.06-1.52 1.63-3.43 
           1.63-5.43 0-5.52-4.41-9.92-9.84-9.92-5.45 0-9.84 4.38-9.84 
           9.84 0 5.43 4.41 9.84 9.84 9.84 2.01 0 3.83-.59 5.45-1.62 
           1.72 1.75 3.49 3.49 5.23 5.23.784.781 2.12 1.05 
           3.01.126.898-.925.345-2.38-.24-2.86zm-13.4-4.28c-3.54 
           0-6.41-2.86-6.41-6.38 0-3.52 2.87-6.38 6.41-6.38 3.54 0 6.41 
           2.86 6.41 6.38 0 3.52-2.87 6.38-6.41 6.38z"
  />
</svg>
