<?xml version="1.0" encoding="UTF-8"?>
<svg width="36" height="36" version="1.1" viewBox="0 0 20.135672 20.135672" xml:space="preserve" xmlns="http://www.w3.org/2000/svg"><g id="Anonym__x2F__Guy_Fawkes" transform="scale(.0703)"><path d="m169 34.6c2.69 1.96 8.78 1.77 12.3-2.43 1.98-2.38 19.1-20.3 43.1-20.3 30.8 0 42.3 10.3 42.3 10.3-11-19.8-34.6-22.2-41.5-22.2-33.5 0-52.6 16-57.6 22.7-4.98 6.77-1.02 10.1 1.43 11.9zm94.9 54.9c-4.3 0-4.48 7.02-4.48 8.95-2e-3 12.6-7.11 24.9-13.4 31.3-18.2 18.6-47.9 2.26-47.9 2.26-5.02-2.03 0.445 3 0.445 3 2.86 2.96 11 12.1 27.1 14.1-0.743 0.786-20 20.9-20 20.9h-17.9l-17.9-26.8c-4.76 6.29-8.95 8.95-17.9 8.95-4.91 0-10.5-0.84-14.4-5.17-3.68-4.07-3.5-9.43-3.5-12.7-0.018-13.4 0-47.6 0-53.7v-15.4c0-7.83-8.79-15-8.79-15-10.4-7.16-17.8 8.97-17.8 8.97l-0.114 0.087c-8.58-3.12-17.7-5.02-27.2-5.02-11.7 0-25.4 1.28-35.6 5.8v-6.25c0-64.1 69.2-22.1 78.9-18.6 9.09 3.23 7.25-7.22 5.67-8.96-21.8-24.1-58.9-26.1-58.9-26.1-50.7 0-52.5 49.6-52.5 71.6v46.5c0 56.8 72.4 154 117 162-0.218 0.104 4.78 1.28 6.79 2.74 0.078 0.053 0.209 0 0.28 0.044 2.59 2.16 5.85 3.59 9.51 3.59 3.56 0 6.69-1.38 9.22-3.41 0 0 3.16-1.83 7.81-3.32 5.31-1.41 14.4-6.93 20.1-11.5 22.9-18.4 46.1-46.9 62.2-87.9 0 0 2.16-9.66-0.612-10.2-2.46-0.499-4.1 0.035-10.8 12-25.4 45.7-60.7 76.6-78.7 77.5v-35.8c11.4-1.76 31.7-10.8 45.5-23.3 8.95-8.14-7.11-6.28-9.68-5.24-11 4.42-13.2 10.6-44.7 10.6-30.1 0-48.1-12.7-53.7-17.9h35.8l17.9-17.9 17.9 17.9h35.8l32.6-38.6c27.3-2.42 30.2-34.1 30.2-37.4v-13.4c0-2.11-0.072-8.95-4.48-8.95zm-165 118c24 15.1 36.5 15 44.3 16.2v35.8c-42.4-10.8-44.8-41.5-44.3-52zm14.2-93.9c-6.68 29.5-40.1 29.5-40.1 29.5-19.8 0-28.3-10.2-28.3-37v-39.8c10.2 4.53 23.9 8.38 35.6 8.38 10.3 0 20.2-2.13 29.4-5.76 0.026 0 0.051 9e-3 0.051 9e-3 3.38 0 5.27 2.65 5.27 2.65s5.52 9.08-1.92 42zm63.8-49.2c11.9 6.39 25.1 10.3 39.2 10.3 14.1 0 27.4-3.92 39.3-10.3-11.9-6.39-25.1-10.3-39.3-10.3-14.1 0-27.3 3.92-39.2 10.3z" clip-rule="evenodd" fill="#3f3f3f" fill-rule="evenodd"/></g></svg>
