<?xml version="1.0" encoding="UTF-8"?>
<svg width="36" height="36" version="1.1" viewBox="0 0 17.618836 17.618836" xml:space="preserve" xmlns="http://www.w3.org/2000/svg"><g id="Menu" transform="matrix(.0703 0 0 .0703 3.13e-8 3.52e-5)"><path d="m22.4 76.1h206c12.4 0 22.4-10 22.4-22.4s-10-22.4-22.4-22.4h-206c-12.4 1e-3 -22.4 10-22.4 22.4 0 12.4 10 22.4 22.4 22.4zm206 26.8h-206c-12.4 0-22.4 10-22.4 22.4 0 12.4 10 22.4 22.4 22.4h206c12.4 0 22.4-10 22.4-22.4 0-12.4-10-22.4-22.4-22.4zm0 71.6h-206c-12.4 0-22.4 10-22.4 22.4 0 12.4 10 22.4 22.4 22.4h206c12.4 0 22.4-10 22.4-22.4 0-12.4-10-22.4-22.4-22.4z" clip-rule="evenodd" fill="#3f3f3f" fill-rule="evenodd"/></g></svg>
