<?xml version="1.0" encoding="UTF-8" standalone="no"?>
<svg xmlns:rdf="http://www.w3.org/1999/02/22-rdf-syntax-ns#" xmlns="http://www.w3.org/2000/svg" xml:space="preserve" viewBox="0 0 16.77975 16.77975" height="32" width="32" version="1.1" y="0px" x="0px" xmlns:cc="http://creativecommons.org/ns#" xmlns:dc="http://purl.org/dc/elements/1.1/"><path d="m5.61 12.9s0.156 0.712 0.96 0.712h3.64c0.804 0 0.96-0.712 0.96-0.712l0.718-6.98h-6.99l0.718 6.98zm4.18-5.91c0-0.193 0.156-0.35 0.35-0.35 0.193 0 0.35 0.156 0.35 0.35l-0.35 5.24c0 0.193-0.157 0.35-0.35 0.35s-0.35-0.157-0.35-0.35l0.35-5.24zm-1.75 0c0-0.193 0.157-0.35 0.35-0.35s0.35 0.156 0.35 0.35v5.24c0 0.193-0.156 0.35-0.35 0.35-0.193 0-0.35-0.157-0.35-0.35v-5.24zm-1.4-0.35c0.193 0 0.35 0.156 0.35 0.35l0.35 5.24c0 0.193-0.157 0.35-0.35 0.35s-0.35-0.157-0.35-0.35l-0.35-5.21c0-0.193 0.157-0.35 0.35-0.35zm5.03-2.1h-1.54v-0.7c0-0.53-0.172-0.699-0.699-0.699h-2.1c-0.484 0-0.699 0.234-0.699 0.699v0.7h-1.54c-0.309 0-0.559 0.235-0.559 0.525s0.25 0.525 0.559 0.525h6.57c0.309 0 0.559-0.235 0.559-0.525s-0.25-0.525-0.559-0.525zm-2.24 0h-2.1l0.0000391-0.7h2.1v0.7z" fill-rule="evenodd" clip-rule="evenodd" fill="#fff"/></svg>
