<?xml version="1.0" encoding="UTF-8" standalone="no"?>
<svg xmlns:rdf="http://www.w3.org/1999/02/22-rdf-syntax-ns#" xmlns="http://www.w3.org/2000/svg" xml:space="preserve" viewBox="0 0 1.6229375 1.6229375" height="32" width="32" version="1.1" y="0px" x="0px" xmlns:cc="http://creativecommons.org/ns#" xmlns:dc="http://purl.org/dc/elements/1.1/"><g transform="scale(.0625)"><g id="c23_download" fill="#d80027"><path d="m22.1 7.64h-3.91v1.82h3.91c1.07 0 1.94 0.592 1.94 1.32v11.9c0 0.726-0.873 1.31-1.94 1.31h-18.2c-1.07 0-1.95-0.589-1.95-1.31v-11.9c0-0.725 0.873-1.32 1.95-1.32h3.91v-1.82h-3.91c-2.16-0.02-3.9 1.16-3.9 2.64v12.9c0 1.45 1.74 2.63 3.9 2.63h18.2c2.15 0 3.89-1.18 3.89-2.63v-12.9c0-1.45-1.74-2.63-3.89-2.63z"/><polygon points="9.17 5.28 9.17 7.03 9.17 13.5 5.44 13.5 13.1 22.6 20.5 13.3 16.8 13.3 16.8 7.03 16.8 5.28 16.8 0.126 9.17 0.126"/></g></g></svg>
