<?xml version="1.0" encoding="UTF-8" standalone="no"?>
<svg xmlns:rdf="http://www.w3.org/1999/02/22-rdf-syntax-ns#" xmlns="http://www.w3.org/2000/svg" xml:space="preserve" height="32" viewBox="0 0 1.9214375 1.9215" width="32" version="1.1" y="0px" x="0px" xmlns:cc="http://creativecommons.org/ns#" xmlns:dc="http://purl.org/dc/elements/1.1/"><path d="m1.79 0.604h-0.0526v0.578c0 0.0901-0.0524 0.172-0.158 0.172h-1.03v0.0275c0 0.0796 0.0906 0.16 0.184 0.16h0.787l0.301 0.177-0.0437-0.177h0.0116c0.0929 0 0.135-0.0802 0.135-0.16v-0.64c0-0.0796-0.0419-0.137-0.135-0.137z" fill="#c0c0c0"/><path d="m1.42 0.203h-1.2c-0.105 0-0.226 0.0935-0.226 0.184v0.725c0 0.083 0.103 0.143 0.201 0.152l-0.0641 0.243 0.411-0.242h0.875c0.105 0 0.202-0.0638 0.202-0.154v-0.587-0.138c0-0.0901-0.0972-0.184-0.202-0.184zm-1.01 0.612c-0.0597 0-0.108-0.0484-0.108-0.108 0-0.0597 0.0484-0.108 0.108-0.108s0.108 0.0484 0.108 0.108c0 0.0597-0.0484 0.108-0.108 0.108zm0.404 0c-0.0597 0-0.108-0.0484-0.108-0.108 0-0.0597 0.0484-0.108 0.108-0.108 0.0597 0 0.108 0.0484 0.108 0.108 0 0.0597-0.0484 0.108-0.108 0.108zm0.404 0c-0.0597 0-0.108-0.0484-0.108-0.108 0-0.0597 0.0484-0.108 0.108-0.108s0.108 0.0484 0.108 0.108c0 0.0597-0.0485 0.108-0.108 0.108z" fill="#c0c0c0"/></svg>
