<?xml version="1.0" encoding="UTF-8" standalone="no"?>
<svg xmlns:rdf="http://www.w3.org/1999/02/22-rdf-syntax-ns#" xmlns="http://www.w3.org/2000/svg" xml:space="preserve" viewBox="0 0 15.644562 15.644562" height="32" width="32" version="1.1" y="0px" x="0px" xmlns:cc="http://creativecommons.org/ns#" xmlns:dc="http://purl.org/dc/elements/1.1/"><g id="Search" fill="#fff" transform="matrix(.0391 0 0 .0391 2.93 2.93)"><path d="m244 215-54.4-54.4c-0.289-0.289-0.628-0.491-0.93-0.76 10.7-16.2 16.9-35.7 16.9-56.6 0-57.9-46-104-103-104-56.9 0-103 46.1-103 103 0 56.8 46.1 103 103 103 20.9 0 40.3-6.24 56.6-16.9 0.269 0.301 0.47 0.64 0.759 0.929l54.4 54.4c8.17 8.17 21.4 8.17 29.6 0 8.17-8.17 8.17-21.4 0-29.6zm-141-45c-37.1 0-67.2-30.1-67.2-67.2s30.1-67.2 67.2-67.2 67.2 30.1 67.2 67.2-30.1 67.2-67.2 67.2z" fill-rule="evenodd" clip-rule="evenodd" fill="#fff"/></g></svg>
