<?xml version="1.0" encoding="UTF-8"?>
<svg width="377" height="64" version="1.1" viewBox="0 0 99.748 16.934" xmlns="http://www.w3.org/2000/svg"><path d="m10.858 13.605h-5.5437l-1.3766 2.53h-3.6742l7.8506-13.887h4.0928l2.4556 13.887h-3.4044zm-4.1949-2.5207h3.73l-.83716-5.3485z" style="fill:#c80020;stroke-width:.26458px"/><path d="m26.903 6.0425-.49299 2.5858q-.97667-.46508-1.9441-.70693-.96738-.24185-1.8324-.24184-.98598 0-1.5255.26045-.53019.25114-.53019.72553 0 .27905.29765.44648.29765.16743 1.172.35345l.60462.11162q2.0185.42788 2.8278 1.1069.80924.6697.80924 1.8696 0 1.8138-1.4231 2.8371-1.4232 1.0139-3.9811 1.0139-1.0697 0-2.1859-.16743-1.1162-.16743-2.2789-.50228l.50228-2.6138q.90227.53019 1.9254.79993 1.0325.26974 2.1115.26974 1.0511 0 1.5813-.25114.53019-.25114.53019-.73482 0-.33485-.29765-.5209-.29765-.18605-1.2278-.38137l-.60462-.11162q-1.7859-.37205-2.5486-1.0976t-.76273-2.0092q0-1.7394 1.3115-2.6789 1.3208-.93947 3.7671-.93947 1.0697 0 2.1022.14883 1.0418.13952 2.0929.42788z" style="fill:#c80020;stroke-width:.26458px"/><path d="m39.526 7.447q.77204-.95807 1.7487-1.4697.98598-.51159 2.0464-.51159 1.3952 0 2.1952.77204.80924.76273.80924 2.1022 0 .27905-.04651.64182-.03721.35345-.12092.80924l-1.2371 6.3438h-3.3578l1.0511-5.4321.0279-.13952q.24184-1.1534.24184-1.4789 0-.51159-.29765-.80924-.28834-.29765-.79064-.29765-.95807 0-1.6278.79064-.66042.78133-.94876 2.2417l-1.0046 5.1252h-3.3578l1.0697-5.4321q.13953-.69762.19533-1.0511.05581-.36277.05581-.56739 0-.52091-.28834-.80924-.28834-.29765-.79993-.29765-.92087 0-1.6185.81856-.68833.80924-.95807 2.2138l-1.0046 5.1252h-3.3393l2.0278-10.418h3.3485l-.30697 1.5255q.78133-.88364 1.665-1.3301.88364-.44648 1.8417-.44648 1.079 0 1.851.5581.77204.54879.93016 1.4231z" style="fill:#c80020;stroke-width:.26458px"/><path d="m55.067 7.6238q.95807 0 1.4976-.48368t.5395-1.3301q0-.54879-.38136-.83716-.37205-.28834-1.079-.28834h-1.9999l-.5767 2.9392zm-1.0604 6.074q1.2278 0 1.8882-.58599t.66042-1.6836q0-.69762-.45577-1.0325-.45579-.33485-1.3952-.33485h-2.1115l-.70693 3.6369zm4.2415-4.995q.91156.26045 1.4045.95807.50228.68833.50228 1.7115 0 2.2417-1.6743 3.5067-1.665 1.2557-4.6881 1.2557h-5.9438l2.7067-13.887h5.367q2.4742 0 3.6554.72553 1.1906.72553 1.1906 2.2417 0 1.2743-.69762 2.2417-.69762.95807-1.8231 1.2464z" style="fill:#c80020;stroke-width:.26458px"/><path d="m69.58 7.6238q.95807 0 1.4976-.48368t.5395-1.3301q0-.54879-.38136-.83716-.37205-.28834-1.079-.28834h-1.9999l-.5767 2.9392zm-1.0604 6.074q1.2278 0 1.8882-.58599t.66042-1.6836q0-.69762-.45577-1.0325-.45579-.33485-1.3952-.33485h-2.1115l-.70693 3.6369zm4.2415-4.995q.91156.26045 1.4045.95807.50228.68833.50228 1.7115 0 2.2417-1.6743 3.5067-1.665 1.2557-4.6881 1.2557h-5.9438l2.7067-13.887h5.367q2.4742 0 3.6554.72553 1.1906.72553 1.1906 2.2417 0 1.2743-.69762 2.2417-.69762.95807-1.8231 1.2464z" style="fill:#c80020;stroke-width:.26458px"/><path d="m11.916 12.545h-5.5437l-1.3766 2.53h-3.6742l7.8506-13.887h4.0928l2.4556 13.887h-3.4044zm-4.1949-2.5207h3.73l-.83716-5.3485z" style="fill:#ffffff;stroke-width:.026459;stroke:#d80027"/><path d="m27.962 4.9825-.49299 2.5858q-.97667-.46508-1.9441-.70693-.96738-.24185-1.8324-.24184-.98598 0-1.5255.26045-.53019.25114-.53019.72553 0 .27905.29765.44648.29765.16743 1.172.35345l.60462.11162q2.0185.42788 2.8278 1.1069.80924.6697.80924 1.8696 0 1.8138-1.4231 2.8371-1.4231 1.0139-3.9811 1.0139-1.0697 0-2.1859-.16743-1.1162-.16743-2.2789-.50228l.50228-2.6138q.90227.53019 1.9254.79993 1.0325.26974 2.1115.26974 1.0511 0 1.5813-.25114.53019-.25114.53019-.73482 0-.33485-.29765-.5209-.29765-.18605-1.2278-.38137l-.60462-.11162q-1.7859-.37205-2.5486-1.0976-.76273-.72553-.76273-2.0092 0-1.7394 1.3115-2.6789 1.3208-.93947 3.7671-.93947 1.0697 0 2.1022.14883 1.0418.13952 2.0929.42788z" style="fill:#ffffff;stroke-width:.026459;stroke:#d80027"/><path d="m40.584 6.387q.77204-.95807 1.7487-1.4697.98598-.51159 2.0464-.51159 1.3952 0 2.1952.77204.80924.76273.80924 2.1022 0 .27905-.04651.64182-.03721.35345-.12092.80924l-1.2371 6.3438h-3.3578l1.0511-5.4321.02791-.13952q.24184-1.1534.24184-1.4789 0-.51159-.29765-.80924-.28834-.29765-.79064-.29765-.95807 0-1.6278.79064-.66042.78133-.94876 2.2417l-1.0046 5.1252h-3.3578l1.0697-5.4321q.13953-.69762.19534-1.0511.05581-.36277.05581-.56739 0-.52091-.28834-.80924-.28834-.29765-.79993-.29765-.92087 0-1.6185.81856-.68833.80924-.95807 2.2138l-1.0046 5.1252h-3.3393l2.0278-10.418h3.3485l-.30696 1.5255q.78133-.88364 1.665-1.3301.88365-.44648 1.8417-.44648 1.079 0 1.851.5581.77204.54879.93016 1.4231z" style="fill:#ffffff;stroke-width:.026459;stroke:#d80027"/><path d="m56.126 6.5638q.95807 0 1.4976-.48368.5395-.48368.5395-1.3301 0-.54879-.38137-.83716-.37205-.28834-1.079-.28834h-1.9999l-.57671 2.9392zm-1.0604 6.074q1.2278 0 1.8882-.58599.66042-.58599.66042-1.6836 0-.69762-.45576-1.0325-.45579-.33485-1.3952-.33485h-2.1115l-.70693 3.6369zm4.2415-4.995q.91156.26045 1.4046.95807.50228.68833.50228 1.7115 0 2.2417-1.6743 3.5067-1.665 1.2557-4.6881 1.2557h-5.9438l2.7067-13.887h5.367q2.4742 0 3.6554.72553 1.1906.72553 1.1906 2.2417 0 1.2743-.69762 2.2417-.69762.95807-1.8231 1.2464z" style="fill:#ffffff;stroke-width:.026459;stroke:#d80027"/><path d="m70.638 6.5638q.95807 0 1.4976-.48368.53951-.48368.53951-1.3301 0-.54879-.38137-.83716-.37205-.28834-1.079-.28834h-1.9999l-.57671 2.9392zm-1.0604 6.074q1.2278 0 1.8882-.58599.66042-.58599.66042-1.6836 0-.69762-.45576-1.0325-.45579-.33485-1.3952-.33485h-2.1115l-.70693 3.6369zm4.2415-4.995q.91156.26045 1.4045.95807.50228.68833.50228 1.7115 0 2.2417-1.6743 3.5067-1.665 1.2557-4.6881 1.2557h-5.9438l2.7067-13.887h5.367q2.4742 0 3.6554.72553 1.1906.72553 1.1906 2.2417 0 1.2743-.69762 2.2417-.69762.95807-1.8231 1.2464z" style="fill:#ffffff;stroke-width:.026459;stroke:#d80027"/><path d="m4.1599 10.01h95.25l-.30427.52917h-95.25z" style="fill:#c80020;stroke-width:.026458;stroke:#d80027"/><path d="m3.2457 11.6h95.25l-.30427.52916h-95.25z" style="fill:#c80020;stroke-width:.026458;stroke:#d80027"/><path d="m2.3372 13.18h95.25l-.30427.52917h-95.25z" style="fill:#c80020;stroke-width:.026458;stroke:#d80027"/><path d="m1.4229 14.77h95.25l-.30427.52917h-95.25z" style="fill:#c80020;stroke-width:.026458;stroke:#d80027"/><path d="m79.313 6.6065-.29714 1.5193h-.93018l.77773-3.9946h.93018l-.08527.42375q.21187-.25322.44442-.37207.23254-.12144.50901-.12144.48834 0 .77256.31006t.28422.84491q0 .33331-.10077.64854-.09819.31522-.28422.57361-.23513.32556-.53227.49351-.29456.16794-.63304.16794-.29714 0-.50643-.11885-.2067-.12144-.34882-.37466zm.97152-1.8733q-.35657 0-.58394.33073-.22479.32815-.22479.85525 0 .23771.12661.37465.12919.13436.35657.13436.34882 0 .57619-.32298.22738-.32556.22738-.83199 0-.26355-.12402-.40049-.12144-.13953-.35398-.13953z" style="fill:#c80020;stroke-width:.26458px"/><path d="m83.915 4.7165q-.35915 0-.5917.32556-.23254.32556-.23254.82941 0 .27388.12402.41858.12661.14211.3669.14211.35915 0 .5917-.32557.23254-.32814.23254-.83457 0-.2713-.12661-.41341-.12402-.14211-.36432-.14211zm.07493-.66146q.64596 0 1.0154.32814.36949.32815.36949.89401 0 .32814-.11627.6382-.11627.30748-.33848.56327-.26355.30489-.6227.45992t-.80098.15503q-.6382 0-1.0077-.32814-.3669-.32815-.3669-.894 0-.32557.11886-.63562.11886-.31265.34106-.57103.25838-.29972.61495-.45475.35915-.15503.79323-.15503z" style="fill:#c80020;stroke-width:.26458px"/><path d="m86.028 4.1265h.85266l.10077 1.9896.87333-1.9896h.7338l.10594 1.9844.86816-1.9844h.9095l-1.3229 2.8939h-.98185l-.0956-1.9895-.88367 1.9895h-.9586z" style="fill:#c80020;stroke-width:.26458px"/><path d="m93.785 5.6865-.03101.14728h-2.1652q0 .0155-.0026.0465-.0026.0284-.0026.0439 0 .28164.16795.42117.17053.13952.50901.13952.29197 0 .61495-.0879.32556-.0879.68213-.26096l-.14211.7183q-.33848.12402-.67438.18345-.33331.062-.67954.062-.67696 0-1.0464-.31264-.3669-.31264-.3669-.88367 0-.33073.11627-.64078.11886-.31265.34365-.57103.26613-.31006.63562-.47025.37207-.1602.82424-.1602.58653 0 .93018.31264.34623.31264.34623.84233 0 .10335-.0155.21962-.01292.11369-.04393.25063zm-.87333-.42374q.0078-.0336.01034-.0672.0052-.0362.0052-.0698 0-.2067-.12402-.32814t-.3359-.12144q-.2713 0-.4625.14986-.18862.14728-.28939.43667z" style="fill:#c80020;stroke-width:.26458px"/><path d="m96.764 4.9165q-.0956-.0543-.21187-.0827t-.25063-.0284q-.35398 0-.58911.22738-.23254.22738-.31523.65629l-.26355 1.3332h-.92759l.56327-2.8939h.93018l-.10077.4961q.18345-.27389.45734-.41858.27647-.14728.61236-.14728.04909 0 .1111.005t.14728.0155z" style="fill:#c80020;stroke-width:.26458px"/></svg>
