<?xml version="1.0" encoding="UTF-8"?>
<svg width="375.08" height="65.558" version="1.1" viewBox="0 0 99.24 17.346" xmlns="http://www.w3.org/2000/svg"><g transform="translate(-2.1167 -276.15)"><g transform="translate(0 1.2578)"><g transform="matrix(.26458 0 0 .26458 5.4705 280.91)" style="fill:#d80027;stroke-width:1px" aria-label="AsmBB"><path d="m27.367 30.238h-20.953l-5.2031 9.5625h-13.887l29.672-52.488h15.469l9.2812 52.488h-12.867zm-15.855-9.5273h14.098l-3.1641-20.215z" style="fill:#d80027"/><path d="m88.012 1.6562-1.8633 9.7734q-3.6914-1.7578-7.3477-2.6719t-6.9258-0.91406q-3.7266 0-5.7656 0.98438-2.0039 0.94922-2.0039 2.7422 0 1.0547 1.125 1.6875 1.125 0.63281 4.4297 1.3359l2.2852 0.42188q7.6289 1.6172 10.688 4.1836 3.0586 2.5312 3.0586 7.0664 0 6.8555-5.3789 10.723-5.3789 3.832-15.047 3.832-4.043 0-8.2617-0.63281-4.2188-0.63281-8.6133-1.8984l1.8984-9.8789q3.4102 2.0039 7.2773 3.0234 3.9023 1.0195 7.9805 1.0195 3.9727 0 5.9766-0.94922 2.0039-0.94922 2.0039-2.7773 0-1.2656-1.125-1.9688t-4.6406-1.4414l-2.2852-0.42188q-6.75-1.4062-9.6328-4.1484-2.8828-2.7422-2.8828-7.5938 0-6.5742 4.957-10.125 4.9922-3.5508 14.238-3.5508 4.043 0 7.9453 0.5625 3.9375 0.52734 7.9102 1.6172z" style="fill:#d80027"/><path d="m135.72 6.9648q2.918-3.6211 6.6094-5.5547 3.7266-1.9336 7.7344-1.9336 5.2734 0 8.2969 2.918 3.0586 2.8828 3.0586 7.9453 0 1.0547-0.17578 2.4258-0.14063 1.3359-0.45703 3.0586l-4.6758 23.977h-12.691l3.9726-20.531 0.10547-0.52734q0.91407-4.3594 0.91407-5.5898 0-1.9336-1.125-3.0586-1.0898-1.125-2.9883-1.125-3.6211 0-6.1523 2.9883-2.4961 2.9531-3.5859 8.4727l-3.7969 19.371h-12.691l4.043-20.531q0.52735-2.6367 0.73828-3.9727 0.21094-1.3711 0.21094-2.1445 0-1.9688-1.0898-3.0586-1.0898-1.125-3.0234-1.125-3.4805 0-6.1172 3.0938-2.6016 3.0586-3.6211 8.3672l-3.7969 19.371h-12.621l7.6641-39.375h12.656l-1.1602 5.7656q2.9531-3.3398 6.293-5.0273 3.3398-1.6875 6.9609-1.6875 4.0781 0 6.9961 2.1094 2.918 2.0742 3.5156 5.3789z" style="fill:#d80027"/><path d="m194.46 7.6328q3.6211 0 5.6602-1.8281t2.0391-5.0273q0-2.0742-1.4414-3.1641-1.4062-1.0898-4.0781-1.0898h-7.5586l-2.1797 11.109zm-4.0078 22.957q4.6406 0 7.1367-2.2148 2.4961-2.2148 2.4961-6.3633 0-2.6367-1.7226-3.9023-1.7227-1.2656-5.2734-1.2656h-7.9805l-2.6719 13.746zm16.031-18.879q3.4453 0.98438 5.3086 3.6211 1.8984 2.6016 1.8984 6.4688 0 8.4727-6.3281 13.254-6.293 4.7461-17.719 4.7461h-22.465l10.23-52.488h20.285q9.3516 0 13.816 2.7422 4.5 2.7422 4.5 8.4727 0 4.8164-2.6367 8.4727-2.6367 3.6211-6.8906 4.7109z" style="fill:#d80027"/><path d="m249.31 7.6328q3.6211 0 5.6602-1.8281t2.0391-5.0273q0-2.0742-1.4414-3.1641-1.4062-1.0898-4.0781-1.0898h-7.5586l-2.1797 11.109zm-4.0078 22.957q4.6406 0 7.1367-2.2148 2.4961-2.2148 2.4961-6.3633 0-2.6367-1.7226-3.9023-1.7227-1.2656-5.2734-1.2656h-7.9805l-2.6719 13.746zm16.031-18.879q3.4453 0.98438 5.3086 3.6211 1.8984 2.6016 1.8984 6.4688 0 8.4727-6.3281 13.254-6.293 4.7461-17.719 4.7461h-22.465l10.23-52.488h20.285q9.3516 0 13.816 2.7422 4.5 2.7422 4.5 8.4727 0 4.8164-2.6367 8.4727-2.6367 3.6211-6.8906 4.7109z" style="fill:#d80027"/></g><g transform="matrix(.26458 0 0 .26458 6.5288 279.85)" style="fill:#fffff5;stroke-width:.1;stroke:#d80027" aria-label="AsmBB"><path d="m27.367 30.238h-20.953l-5.2031 9.5625h-13.887l29.672-52.488h15.469l9.2812 52.488h-12.867zm-15.855-9.5273h14.098l-3.1641-20.215z" style="fill:#fffff5;stroke-width:.1;stroke:#d80027"/><path d="m88.012 1.6562-1.8633 9.7734q-3.6914-1.7578-7.3477-2.6719t-6.9258-0.91406q-3.7266 0-5.7656 0.98438-2.0039 0.94922-2.0039 2.7422 0 1.0547 1.125 1.6875 1.125 0.63281 4.4297 1.3359l2.2852 0.42188q7.6289 1.6172 10.688 4.1836 3.0586 2.5312 3.0586 7.0664 0 6.8555-5.3789 10.723-5.3789 3.832-15.047 3.832-4.043 0-8.2617-0.63281-4.2188-0.63281-8.6133-1.8984l1.8984-9.8789q3.4102 2.0039 7.2773 3.0234 3.9023 1.0195 7.9805 1.0195 3.9727 0 5.9766-0.94922 2.0039-0.94922 2.0039-2.7773 0-1.2656-1.125-1.9688t-4.6406-1.4414l-2.2852-0.42188q-6.75-1.4062-9.6328-4.1484-2.8828-2.7422-2.8828-7.5938 0-6.5742 4.957-10.125 4.9922-3.5508 14.238-3.5508 4.043 0 7.9453 0.5625 3.9375 0.52734 7.9102 1.6172z" style="fill:#fffff5;stroke-width:.1;stroke:#d80027"/><path d="m135.72 6.9648q2.918-3.6211 6.6094-5.5547 3.7266-1.9336 7.7344-1.9336 5.2734 0 8.2969 2.918 3.0586 2.8828 3.0586 7.9453 0 1.0547-0.17578 2.4258-0.14063 1.3359-0.45703 3.0586l-4.6758 23.977h-12.691l3.9726-20.531 0.10547-0.52734q0.91407-4.3594 0.91407-5.5898 0-1.9336-1.125-3.0586-1.0898-1.125-2.9883-1.125-3.6211 0-6.1523 2.9883-2.4961 2.9531-3.5859 8.4727l-3.7969 19.371h-12.691l4.043-20.531q0.52735-2.6367 0.73828-3.9727 0.21094-1.3711 0.21094-2.1445 0-1.9688-1.0898-3.0586-1.0898-1.125-3.0234-1.125-3.4805 0-6.1172 3.0938-2.6016 3.0586-3.6211 8.3672l-3.7969 19.371h-12.621l7.6641-39.375h12.656l-1.1602 5.7656q2.9531-3.3398 6.293-5.0273 3.3398-1.6875 6.9609-1.6875 4.0781 0 6.9961 2.1094 2.918 2.0742 3.5156 5.3789z" style="fill:#fffff5;stroke-width:.1;stroke:#d80027"/><path d="m194.46 7.6328q3.6211 0 5.6602-1.8281t2.0391-5.0273q0-2.0742-1.4414-3.1641-1.4062-1.0898-4.0781-1.0898h-7.5586l-2.1797 11.109zm-4.0078 22.957q4.6406 0 7.1367-2.2148 2.4961-2.2148 2.4961-6.3633 0-2.6367-1.7226-3.9023-1.7227-1.2656-5.2734-1.2656h-7.9805l-2.6719 13.746zm16.031-18.879q3.4453 0.98438 5.3086 3.6211 1.8984 2.6016 1.8984 6.4688 0 8.4727-6.3281 13.254-6.293 4.7461-17.719 4.7461h-22.465l10.23-52.488h20.285q9.3516 0 13.816 2.7422 4.5 2.7422 4.5 8.4727 0 4.8164-2.6367 8.4727-2.6367 3.6211-6.8906 4.7109z" style="fill:#fffff5;stroke-width:.1;stroke:#d80027"/><path d="m249.31 7.6328q3.6211 0 5.6602-1.8281t2.0391-5.0273q0-2.0742-1.4414-3.1641-1.4062-1.0898-4.0781-1.0898h-7.5586l-2.1797 11.109zm-4.0078 22.957q4.6406 0 7.1367-2.2148 2.4961-2.2148 2.4961-6.3633 0-2.6367-1.7226-3.9023-1.7227-1.2656-5.2734-1.2656h-7.9805l-2.6719 13.746zm16.031-18.879q3.4453 0.98438 5.3086 3.6211 1.8984 2.6016 1.8984 6.4688 0 8.4727-6.3281 13.254-6.293 4.7461-17.719 4.7461h-22.465l10.23-52.488h20.285q9.3516 0 13.816 2.7422 4.5 2.7422 4.5 8.4727 0 4.8164-2.6367 8.4727-2.6367 3.6211-6.8906 4.7109z" style="fill:#fffff5;stroke-width:.1;stroke:#d80027"/></g></g><g transform="matrix(1.2 0 -.575 1 161.51 .7937)" style="stroke-width:.91287"><path d="m7.4083 285.89h79.375v0.52917h-79.375z" style="fill:#d80027;stroke-width:.024153;stroke:#d80027"/><path d="m7.4083 287.48h79.375v0.52916h-79.375z" style="fill:#d80027;stroke-width:.024153;stroke:#d80027"/><path d="m7.4083 289.06h79.375v0.52917h-79.375z" style="fill:#d80027;stroke-width:.024153;stroke:#d80027"/><path d="m7.4083 290.65h79.375v0.52917h-79.375z" style="fill:#d80027;stroke-width:.024153;stroke:#d80027"/></g><g aria-label="power"><path d="m81.166 283.17-0.29714 1.5193h-0.93018l0.77773-3.9946h0.93018l-0.08527 0.42375q0.21187-0.25322 0.44442-0.37207 0.23254-0.12144 0.50901-0.12144 0.48834 0 0.77256 0.31006t0.28422 0.84491q0 0.33331-0.10077 0.64854-0.09819 0.31522-0.28422 0.57361-0.23513 0.32556-0.53227 0.49351-0.29456 0.16794-0.63304 0.16794-0.29714 0-0.50643-0.11885-0.2067-0.12144-0.34882-0.37466zm0.97152-1.8733q-0.35657 0-0.58394 0.33073-0.22479 0.32815-0.22479 0.85525 0 0.23771 0.12661 0.37465 0.12919 0.13436 0.35657 0.13436 0.34882 0 0.57619-0.32298 0.22738-0.32556 0.22738-0.83199 0-0.26355-0.12402-0.40049-0.12144-0.13953-0.35398-0.13953z" style="fill:#d80027;stroke-width:.26458px"/><path d="m85.768 281.28q-0.35915 0-0.5917 0.32556-0.23254 0.32556-0.23254 0.82941 0 0.27388 0.12402 0.41858 0.12661 0.14211 0.3669 0.14211 0.35915 0 0.5917-0.32557 0.23254-0.32814 0.23254-0.83457 0-0.2713-0.12661-0.41341-0.12402-0.14211-0.36432-0.14211zm0.07493-0.66146q0.64596 0 1.0154 0.32814 0.36949 0.32815 0.36949 0.89401 0 0.32814-0.11627 0.6382-0.11627 0.30748-0.33848 0.56327-0.26355 0.30489-0.6227 0.45992t-0.80098 0.15503q-0.6382 0-1.0077-0.32814-0.3669-0.32815-0.3669-0.894 0-0.32557 0.11886-0.63562 0.11886-0.31265 0.34106-0.57103 0.25838-0.29972 0.61495-0.45475 0.35915-0.15503 0.79323-0.15503z" style="fill:#d80027;stroke-width:.26458px"/><path d="m87.881 280.69h0.85266l0.10077 1.9896 0.87333-1.9896h0.7338l0.10594 1.9844 0.86816-1.9844h0.9095l-1.3229 2.8939h-0.98185l-0.0956-1.9895-0.88367 1.9895h-0.9586z" style="fill:#d80027;stroke-width:.26458px"/><path d="m95.638 282.25-0.03101 0.14728h-2.1652q0 0.0155-0.0026 0.0465-0.0026 0.0284-0.0026 0.0439 0 0.28164 0.16795 0.42117 0.17053 0.13952 0.50901 0.13952 0.29197 0 0.61495-0.0879 0.32556-0.0879 0.68213-0.26096l-0.14211 0.7183q-0.33848 0.12402-0.67438 0.18345-0.33331 0.062-0.67954 0.062-0.67696 0-1.0464-0.31264-0.3669-0.31264-0.3669-0.88367 0-0.33073 0.11627-0.64078 0.11886-0.31265 0.34365-0.57103 0.26613-0.31006 0.63562-0.47025 0.37207-0.1602 0.82424-0.1602 0.58653 0 0.93018 0.31264 0.34623 0.31264 0.34623 0.84233 0 0.10335-0.0155 0.21962-0.01292 0.11369-0.04393 0.25063zm-0.87333-0.42374q0.0078-0.0336 0.01034-0.0672 0.0052-0.0362 0.0052-0.0698 0-0.2067-0.12402-0.32814-0.12402-0.12144-0.3359-0.12144-0.2713 0-0.4625 0.14986-0.18862 0.14728-0.28939 0.43667z" style="fill:#d80027;stroke-width:.26458px"/><path d="m98.617 281.48q-0.0956-0.0543-0.21187-0.0827-0.11627-0.0284-0.25063-0.0284-0.35398 0-0.58911 0.22738-0.23254 0.22738-0.31523 0.65629l-0.26355 1.3332h-0.92759l0.56327-2.8939h0.93018l-0.10077 0.4961q0.18345-0.27389 0.45734-0.41858 0.27647-0.14728 0.61236-0.14728 0.04909 0 0.1111 5e-3 0.06201 5e-3 0.14728 0.0155z" style="fill:#d80027;stroke-width:.26458px"/></g></g></svg>
