<svg version="1.1" width="190" height="36" viewBox="0 0 95 18" xmlns="http://www.w3.org/2000/svg">
  <path d="m7.4707 2-4.4707 13.806h4.0684l0.68945-2.5814h4.4512l0.6719 2.5814h4.0488l-4.5274-13.806zm40.043 0.06v13.748h5.334c1.6117 0 2.8845-0.3579 3.8183-1.0777 0.9338-0.7179 1.4024-1.7017 1.4024-2.9464 0-0.7318-0.1289-1.3087-0.3848-1.7316-0.243-0.43692-0.5489-0.76485-0.9199-0.98281-0.371-0.21795-0.7424-0.37092-1.1133-0.4609v-0.1c0.3453-0.09 0.6782-0.25694 0.998-0.49989 0.3326-0.24395 0.6068-0.57288 0.8243-0.98479 0.2174-0.42291 0.3261-0.9348 0.3261-1.5387 0-1.1038-0.4213-1.9516-1.2656-2.5425-0.8443-0.58986-2.2576-0.88379-4.2402-0.88379zm12.934 0v13.748h5.3339c1.6118 0 2.8846-0.3579 3.8184-1.0777 0.9337-0.7179 1.4004-1.7017 1.4004-2.9464 0-0.7318-0.127-1.3087-0.3828-1.7316-0.2431-0.43692-0.551-0.76485-0.9219-0.98281-0.3709-0.21795-0.7423-0.37092-1.1133-0.4609v-0.1c0.3454-0.09 0.6783-0.25694 0.9981-0.49989 0.3325-0.24395 0.6087-0.57288 0.8261-0.98479 0.2175-0.42291 0.3262-0.9348 0.3262-1.5387 0-1.1038-0.4234-1.9516-1.2676-2.5425-0.8442-0.58986-2.2575-0.88379-4.2402-0.88379zm-50.483 2.2135c0.064 0.30793 0.15441 0.70584 0.26961 1.1937 0.1151 0.4869 0.2286 0.9628 0.3437 1.4257 0.1151 0.4489 0.2056 0.79483 0.2696 1.0388l0.5957 2.2525h-2.918l0.59567-2.2525c0.077-0.30894 0.1652-0.68786 0.2675-1.1368 0.1152-0.44891 0.2239-0.90481 0.3262-1.3667 0.115-0.4619 0.1987-0.84682 0.25-1.1548zm41.252 0.59587h1.0371c1.1641 0 1.7461 0.38592 1.7461 1.1558 0 0.35993-0.1289 0.66786-0.3848 0.92381-0.243 0.25794-0.6711 0.38691-1.2851 0.38691h-1.1133zm12.934 0h1.0351c1.164 0 1.7461 0.38592 1.7461 1.1558 0 0.35993-0.127 0.66786-0.3828 0.92381-0.243 0.25794-0.6711 0.38691-1.2851 0.38691h-1.1133zm-42.039 0.1c-1.3175 0-2.3797 0.26194-3.1855 0.78883-0.7931 0.52589-1.1895 1.3087-1.1895 2.3485 0 0.87281 0.2174 1.5527 0.6524 2.0405 0.4348 0.4759 1.0939 0.8999 1.9765 1.2718 0.6012 0.2439 1.0611 0.4349 1.3809 0.5759 0.3325 0.1409 0.5635 0.2709 0.6914 0.3869 0.1279 0.1149 0.1914 0.2479 0.1914 0.4019 0 0.3599-0.3964 0.5409-1.1894 0.5409-0.3966 0-0.9401-0.06-1.6309-0.193-0.6907-0.142-1.3748-0.3659-2.0527-0.6738v2.9443c0.614 0.232 1.2143 0.3859 1.8027 0.4629 0.6012 0.09 1.2785 0.135 2.0332 0.135 1.0745 0 1.9395-0.148 2.5918-0.4429 0.6652-0.2959 1.1433-0.7069 1.4375-1.2327 0.307-0.5259 0.4609-1.1238 0.4609-1.7907 0-0.6288-0.1019-1.1427-0.3066-1.5406-0.1919-0.4109-0.493-0.7569-0.9024-1.0388-0.3965-0.29492-0.9016-0.56386-1.5156-0.80781-0.5884-0.24395-1.0367-0.42991-1.3437-0.55888-0.307-0.12798-0.5177-0.24295-0.6328-0.34593-0.1024-0.10198-0.1524-0.21895-0.1524-0.34693 0-0.29593 0.2992-0.4439 0.9004-0.4439 0.3198 0 0.7499 0.07 1.2871 0.21295 0.5373 0.14097 1.0673 0.33393 1.5918 0.57788l0.9981-2.3685c-0.6652-0.29493-1.306-0.51988-1.92-0.67385s-1.271-0.22995-1.9746-0.22995zm12.586 0c-0.7803 0-1.4393 0.14097-1.9766 0.42391-0.5245 0.28194-0.9256 0.64086-1.207 1.0778h-0.098l-0.5371-1.3107h-2.7617v10.649h3.664v-4.662c1e-4 -1.0647 0.1088-1.8796 0.3262-2.4444 0.2303-0.56488 0.6584-0.84682 1.2852-0.84682 0.4093 0 0.7172 0.16697 0.9219 0.5009 0.2046 0.33392 0.3066 0.88681 0.3066 1.6566v5.7957h3.6641v-4.9679c0-0.9498 0.1154-1.6816 0.3457-2.1945 0.2302-0.52688 0.6401-0.79083 1.2285-0.79083 0.4221 0 0.7416 0.16097 0.959 0.4819 0.2174 0.30793 0.3261 0.86681 0.3261 1.6756v5.7957h3.666v-6.9325c0-1.3727-0.3213-2.3675-0.9609-2.9834-0.6395-0.61587-1.566-0.9238-2.7812-0.9238-0.6652 0-1.2675 0.12797-1.8047 0.38492-0.5245 0.25594-0.9526 0.62186-1.2852 1.0968h-0.1149c-0.3198-0.4619-0.7344-0.82282-1.2461-1.0798-0.4989-0.26894-1.1397-0.40191-1.9199-0.40191zm16.52 5.0829h1.2285c0.6907 0 1.1641 0.1459 1.4199 0.4409 0.2558 0.2819 0.3848 0.6098 0.3848 0.9828 0 0.4229-0.129 0.7748-0.3848 1.0577-0.2558 0.269-0.7041 0.4039-1.3437 0.4039h-1.3047zm12.934 0h1.2285c0.6907 0 1.1641 0.1459 1.4199 0.4409 0.2559 0.2819 0.3828 0.6098 0.3828 0.9828 0 0.4229-0.1269 0.7748-0.3828 1.0577-0.2558 0.269-0.7041 0.4039-1.3437 0.4039h-1.3047z" fill="#404040"/>
  <path d="m78.638 2c-0.2766 0-0.5309 0.06-0.7597 0.19-0.2272 0.127-0.4216 0.312-0.5862 0.557-0.1415 0.213-0.2509 0.449-0.3266 0.704-0.076 0.255-0.1139 0.514-0.1139 0.781 0 0.464 0.1172 0.832 0.3509 1.1 0.2355 0.27 0.5566 0.404 0.9632 0.404 0.2816 0 0.5365-0.06 0.7653-0.189 0.2289-0.127 0.4276-0.317 0.5955-0.567 0.1416-0.21 0.2489-0.44 0.3229-0.691 0.075-0.255 0.112-0.518 0.112-0.787 0-0.463-0.1192-0.83-0.3546-1.098-0.2354-0.269-0.5573-0.404-0.9688-0.404zm8.2001 0c-0.2881 0-0.5508 0.06-0.7878 0.196-0.2354 0.133-0.4389 0.323-0.6085 0.578-0.1432 0.211-0.2528 0.447-0.3285 0.703-0.075 0.255-0.1101 0.517-0.1101 0.789 0 0.469 0.117 0.83 0.3509 1.086 0.2354 0.257 0.5673 0.384 0.9986 0.384 0.2206 0 0.4372-0.03 0.6496-0.08 0.2139-0.05 0.4301-0.125 0.6458-0.226l0.1344-0.883c-0.2272 0.142-0.4441 0.247-0.6514 0.32-0.2057 0.07-0.4019 0.113-0.588 0.113-0.2155 0-0.3766-0.06-0.4852-0.171-0.1071-0.113-0.1606-0.288-0.1606-0.519v-0.11h2.0682l0.03-0.18c0.02-0.112 0.034-0.216 0.043-0.31 0.011-0.1 0.015-0.185 0.015-0.271 0-0.434-0.1098-0.779-0.3304-1.035-0.2188-0.256-0.5148-0.382-0.8884-0.382zm3.9161 0c-0.214 0-0.4101 0.06-0.5862 0.181-0.1745 0.125-0.3198 0.29-0.4367 0.514l0.097-0.611h-0.8884l-0.5396 3.561h0.8868l0.2519-1.639c0.052-0.351 0.1525-0.621 0.3006-0.806 0.1498-0.187 0.3382-0.282 0.5637-0.282 0.086 0 0.1649 0 0.2389 0.04 0.074 0.02 0.1423 0.06 0.2034 0.1l0.155-1.041c-0.055 0-0.1004-0.01-0.14-0.01zm-15.291 0c-0.1761 0-0.339 0.05-0.4872 0.149-0.1481 0.1-0.2886 0.251-0.4237 0.459l0.08-0.524h-0.8885l-0.7429 4.916h0.8885l0.2837-1.869c0.091 0.208 0.2024 0.362 0.3341 0.462 0.1334 0.1 0.2942 0.146 0.4836 0.146 0.2155 0 0.4171-0.07 0.6047-0.206 0.1893-0.138 0.3598-0.342 0.5096-0.608 0.1186-0.214 0.2082-0.449 0.2707-0.706 0.064-0.259 0.097-0.525 0.097-0.799 0-0.439-0.092-0.784-0.2726-1.037-0.1811-0.255-0.4263-0.383-0.7374-0.383zm5.1201 0.08 0.1924 3.561h0.9165l0.8437-2.447 0.092 2.447h0.9389l1.2637-3.561h-0.8682l-0.8307 2.442-0.1007-2.442h-0.7019l-0.8343 2.45-0.097-2.45zm6.158 0.67c0.135 0 0.2421 0.05 0.3211 0.152 0.079 0.1 0.1177 0.235 0.1177 0.404 0 0.02 0 0.05-0.01 0.09 0 0.04 0 0.06-0.01 0.09h-1.1386c0.064-0.236 0.1562-0.417 0.2763-0.537 0.1218-0.125 0.2695-0.187 0.4424-0.187zm-8.1757 0.06c0.153 0 0.27 0.06 0.349 0.175 0.08 0.125 0.1195 0.285 0.1195 0.508 0 0.416-0.074 0.759-0.2221 1.029-0.1482 0.266-0.3349 0.401-0.5637 0.401-0.1532 0-0.2703-0.06-0.351-0.178-0.079-0.125-0.1194-0.29-0.1194-0.513 0-0.414 0.074-0.754 0.2221-1.02 0.1481-0.268 0.3367-0.402 0.5656-0.402zm-3.4645 0.03c0.1482 0 0.2624 0.06 0.3398 0.172 0.079 0.112 0.1175 0.277 0.1175 0.492 0 0.416-0.072 0.756-0.2164 1.024-0.1449 0.264-0.3285 0.399-0.5507 0.399-0.1448 0-0.2593-0.06-0.3416-0.166-0.08-0.113-0.1214-0.267-0.1214-0.462 0-0.432 0.072-0.782 0.2147-1.052 0.1449-0.271 0.331-0.407 0.5581-0.407z" fill="#d80027"/>
  <path d="m73 12.874 2.5001 3.126h10.625l-1.875-1.875 8.7499-0.626-15.625-2.499 2.4999 2.499z" fill="#404040"/>
</svg>
