<svg version="1.1" viewBox="0 0 32 32" xmlns="http://www.w3.org/2000/svg">
 <defs>
  <radialGradient id="e" cx="9.71" cy="8.79" r="7.5" gradientTransform="matrix(0 1.34 -2.22 -8.04e-7 34.5 10.1)" gradientUnits="userSpaceOnUse">
   <stop stop-color="#fffffa" offset="0"/>
   <stop stop-color="#ffd963" offset=".51"/>
   <stop stop-color="#f90" offset="1"/>
  </radialGradient>
  <linearGradient id="l" x1=".983" x2="14.2" y1="5.36" y2="5.98" gradientTransform="matrix(.133 1.82 -2.84 .0852 31.5 -4.37)" gradientUnits="userSpaceOnUse">
   <stop stop-color="#fff" offset="0"/>
   <stop stop-color="#fff" stop-opacity="0" offset="1"/>
  </linearGradient>
 </defs>
 <path d="m31.5 16a15.5 15.5 0 01-15.5 15.5 15.5 15.5 0 01-15.5-15.5 15.5 15.5 0 0115.5-15.5 15.5 15.5 0 0115.5 15.5z" fill="url(#e)" stroke="#000" stroke-linecap="round" stroke-linejoin="round" stroke-width=".999"/>
 <path d="m15.5 20.5a11.4 8.84 2.04 01-12-8.49 11.4 8.84 2.04 0110.7-9.19 11.4 8.84 2.04 0112 8.49 11.4 8.84 2.04 01-10.7 9.19z" fill="url(#l)" stroke-width="1.03"/>
 <path d="m24.6 13.778c0-2.2144-2.0768-2.2144-4.288-2.2144" style="fill:none;stroke-linecap:round;stroke-linejoin:round;stroke-width:2;stroke:#00cfff"/>
 <path d="m21.4 7.1222-4.416 4.416h6.656" style="fill:none;stroke-linecap:round;stroke-linejoin:round;stroke-width:.9984;stroke:#000"/>
 <path d="m11.8 11.57c-2.2144 0-4.576 0-4.576 2.2144" style="fill:none;stroke-linecap:round;stroke-linejoin:round;stroke-width:2;stroke:#00cfff"/>
 <path d="m8.6 7.1222 4.416 4.416h-6.656" style="fill:none;stroke-linecap:round;stroke-linejoin:round;stroke-width:.9984;stroke:#000"/>
 <path d="m9.5 16c-2.22 2.22-2.22 6.66 0 8.87 4.42-2.22 8.87-2.22 13.3 0 2.22-2.22 2.22-6.66 0-8.87-4.42 2.22-8.87 2.22-13.3 0z" fill="#fff" stroke="#000" stroke-linecap="round" stroke-linejoin="round" stroke-width=".999"/>
</svg>
