<svg version="1.1" viewBox="0 0 32 32" xmlns="http://www.w3.org/2000/svg">
  <path d="m24.6 0c-1.86 0-3.75.716-5.15 2.12l-8.8 8.61c-2.82 3.01-2.82 7.48 0 
           10.5.203.192.617.361.817.562l3.02-2.99c-.203-.192-.617-.422-.817-.623-1.21-1.2-1.21-3.19 
           0-4.37l8.86-8.86c1.21-1.2 3.18-1.2 4.4 0 1.21 1.2 1.21 3.25 0 4.43l-2.64 2.56c.804 1.61 
           1.02 3.46.817 5.05l4.65-4.62c3-2.8 2.97-7.42 0-10.2-1.41-1.41-3.29-2.12-5.15-2.12zm-4.21 
           10.2-3.02 2.99s.617.422.817.623c1.21 1.2 1.21 3.25 0 4.43l-8.86 8.8c-1.21 1.2-3.18 1.2-4.4 
           0-1.21-1.2-1.21-3.19 0-4.37l2.58-2.62c-.804-1.61-.151-2.65-.754-5.05l-4.65 4.68c-2.82 2.81-2.82 
           7.42 0 10.2 2.82 2.81 7.44 2.81 10.2 0l8.86-8.86c2.82-2.81 2.82-7.42 
           0-10.2-.402-.192-.817-.623-.817-.623z"
  />
</svg>
