<svg version="1.1" viewBox="0 0 32 32" xmlns="http://www.w3.org/2000/svg">
  <path d="m7.79 0c-2.2 0-4.19 2-3.59 6.21v-.0234c.4 2.6.797 3.22.797 5.81 
           0 1.6-3 3-3 3v2s3 1.4 3 3c0 2.6-.397 3.19-.797 5.79-.602 4.19 1.6 6.21 3.59 
           6.21h4.21v-4s-3.6.403-3.6-2c0-1.8.401-1.81.801-5.8.2-1.8-.999-3.21-2.2-4.2 
           1.2-1 2.4-2.2 2.2-4-.602-4-.801-4-.801-5.79 0-2.4 3.6-2.21 3.6-2.21v-4zm12.2 
           0v4s3.7-.196 3.7 2.21c0 1.79-.401 1.79-.801 5.79-.198 1.8.897 3 2.1 4-1.2.991-2.3 
           2.4-2.1 4.2.4 4 .801 4 .801 5.8 0 2.4-3.7 2-3.7 2v4l4.31-4e-5c1.99-2e-5 4.19-2.02 
           3.59-6.21-.4-2.6-.898-3.19-.898-5.79 1e-6-1.6 3-3 
           3-3v-2s-3-1.4-3-3c1e-6-2.6.498-3.21.898-5.81v.0234c.608-4.21-1.38-6.21-3.59-6.21z"
  />
</svg>
