<svg version="1.1" viewBox="0 0 32 32" xmlns="http://www.w3.org/2000/svg">
 <defs>
  <radialGradient id="k" cx="9.71" cy="8.79" r="7.5" gradientTransform="matrix(0 1.34 -2.22 -8.04e-7 34.5 10.1)" gradientUnits="userSpaceOnUse">
   <stop stop-color="#fffffa" offset="0"/>
   <stop stop-color="#ffd963" offset=".51"/>
   <stop stop-color="#f90" offset="1"/>
  </radialGradient>
  <linearGradient id="r" x1=".983" x2="14.2" y1="5.36" y2="5.98" gradientTransform="matrix(.133 1.82 -2.84 .0852 32 -4.72)" gradientUnits="userSpaceOnUse">
   <stop stop-color="#fff" offset="0"/>
   <stop stop-color="#fff" stop-opacity="0" offset="1"/>
  </linearGradient>
 </defs>
 <path d="m31.5 16a15.5 15.5 0 01-15.5 15.5 15.5 15.5 0 01-15.5-15.5 15.5 15.5 0 0115.5-15.5 15.5 15.5 0 0115.5 15.5z" style="fill:url(#k) !important;stroke-linecap:round;stroke-linejoin:round;stroke:#000"/>
 <path d="m17 20.2a11.4 8.84 2.04 01-12-8.49 11.4 8.84 2.04 0110.7-9.19 11.4 8.84 2.04 0112 8.49 11.4 8.84 2.04 01-10.7 9.19z" fill="url(#r)" stroke-width="1.03" style="stroke-width:1"/>
 <path d="m7 16c0 6.66 4.39 8.87 8.84 8.87 4.42 0 8.9-2.22 8.9-8.87" fill="none" stroke="#000" stroke-linecap="round" stroke-linejoin="round" stroke-width=".999" style="stroke-width:1"/>
 <path d="m14 9.34a2.22 2.22 0 01-2.22 2.22 2.22 2.22 0 01-2.22-2.22 2.22 2.22 0 012.22-2.22 2.22 2.22 0 012.22 2.22z" stroke="#000" stroke-linecap="round" stroke-linejoin="round" stroke-width=".999" style="stroke-width:1"/>
 <path d="m23 9.34a2.22 2.22 0 01-2.22 2.22 2.22 2.22 0 01-2.22-2.22 2.22 2.22 0 012.22-2.22 2.22 2.22 0 012.22 2.22z" stroke="#000" stroke-linecap="round" stroke-linejoin="round" stroke-width=".999" style="stroke-width:1"/>
</svg>
