<svg version="1.1" viewBox="0 0 32 32" xmlns="http://www.w3.org/2000/svg">
  <path d="m20 0c-2.35-.288-5.23-.192-7.62 1.19-1.6.997-3.99 3.01-4.38 6.81-.4 2.59.794 4.59 2 
           6h-10v2h32v-2h-11c-.998-.599-2-1.08-2.8-1.48-4-1.79-4.19-2.17-4-3.76.202-1.6.788-2.04 
           1.19-2.44 1.8-.997 5.59-.16 7 .439l2.19-5.57c-.4-.192-2.22-.891-4.56-1.19zm-4.81 
           17.7c2.48 1.92 4.95 2.97 4.63 5.39-.4 1.79-.961 2.17-1.56 2.57-2.2 
           1.2-6.61-.005-8.81-1l-2.45 5.19c.601.192 4.62 2 9 2 1.8 0 3.6-.391 5.2-1.19 
           1.8-.997 4.01-2.82 4.81-6.82.4-2.59-.0128-4.53-.812-6.13z"
  />
</svg>
