<svg width="32" height="32" version="1.1" viewBox="0 0 33.3 33.3" xmlns="http://www.w3.org/2000/svg"><path d="m15.6-2e-6c-1.29 0-3.09.747-4.01 1.66l-10.9 10.9c-.913.913-.913 2.41 0 3.32l8.42 8.42c.913.913 2.41.913 3.32 0l10.9-10.9c.913-.913 1.66-2.72 1.66-4.01v-7.04c-4.7e-5-1.29-1.06-2.35-2.35-2.35l-.002-.00203zm3.92 3.13c1.29 0 2.34 1.05 2.34 2.34 0 1.29-1.05 2.34-2.34 2.34-1.29 0-2.34-1.05-2.34-2.34 0-1.29 1.05-2.34 2.34-2.34zm6.51 1.04v6.27c0 1.29-.747 3.09-1.66 4.01l-10.9 10.9c-.913.913-2.41.913-3.32 0l3.12 3.12c.913.913 2.41.913 3.32 0l10.9-10.9c.913-.913 1.66-2.72 1.66-4.01v-7.04c-4.7e-5-1.29-1.06-2.35-2.35-2.35l-.002-.00203zm4.17 4.17v6.27c0 1.29-.747 3.09-1.66 4.01l-10.9 10.9c-.913.913-2.41.913-3.32 0l3.12 3.12c.913.913 2.41.913 3.32 0l10.9-10.9c.913-.913 1.66-2.72 1.66-4.01v-7.04c-4.7e-5-1.29-1.06-2.35-2.35-2.35l-.002-.00203z" style="fill:#105289"/></svg>
