<?xml version="1.0" encoding="UTF-8"?>
<svg width="32" height="32" version="1.1" viewBox="0 0 32 32" xml:space="preserve" xmlns="http://www.w3.org/2000/svg">
<path d="m18.29 2c-7.572 0-13.71 6.269-13.71 14h-4.572l6.095 6.222 6.095-6.222h-4.572c0-6.012 4.777-10.89 10.66-10.89 5.887 0 10.66 4.877 10.66 10.89 0 6.01-4.777 10.89-10.66 10.89-2.309 0-4.434-0.7547-6.187-2.03l-2.156 2.232c2.316 1.82 5.204 2.909 8.343 2.909 7.572 0 13.71-6.269 13.71-14 0-7.732-6.141-14-13.71-14z" style="fill:#105289"/><path d="m21.34 16c0-1.719-1.364-3.111-3.048-3.111s-3.048 1.392-3.048 3.111 1.364 3.111 3.048 3.111 3.048-1.392 3.048-3.111z" style="fill:#105289"/>
</svg>
