<?xml version="1.0" standalone="no"?>
<!DOCTYPE svg PUBLIC "-//W3C//DTD SVG 20010904//EN"
 "http://www.w3.org/TR/2001/REC-SVG-20010904/DTD/svg10.dtd">
<svg version="1.0" xmlns="http://www.w3.org/2000/svg"
 width="700.000000pt" height="700.000000pt" viewBox="0 0 700.000000 700.000000"
 preserveAspectRatio="xMidYMid meet">
<metadata>
Created by potrace 1.11, written by Peter Selinger 2001-2013
</metadata>
<g transform="translate(0.000000,700.000000) scale(0.100000,-0.100000)"
fill="#000000" stroke="none">
<path d="M805 6262 c-167 -12 -372 -90 -515 -197 -87 -64 -193 -184 -234 -263
-9 -18 -25 -60 -36 -95 -19 -60 -20 -96 -17 -1453 l2 -1390 38 -76 c79 -161
267 -293 509 -357 40 -11 95 -23 123 -26 27 -3 51 -8 53 -10 2 -2 -28 -124
-67 -272 -38 -147 -86 -329 -105 -403 -19 -74 -39 -150 -45 -167 -11 -37 5
-46 33 -18 8 8 17 15 20 15 3 0 54 29 113 64 355 210 1066 626 1071 626 3 0
13 6 21 14 9 7 36 25 61 38 25 14 73 42 106 61 l62 37 1658 3 c913 1 1670 6
1684 9 14 4 48 13 75 19 132 31 288 120 369 209 58 65 90 121 112 195 16 56
17 152 17 1440 0 1283 -1 1384 -17 1440 -21 73 -67 166 -109 220 -37 48 -141
152 -182 181 -102 71 -245 129 -346 139 -27 3 -61 8 -75 11 -24 6 -4296 12
-4379 6z m819 -1464 c193 -64 302 -255 260 -455 -48 -230 -297 -365 -518 -282
-222 83 -318 339 -208 555 24 47 102 127 146 150 102 53 221 65 320 32z m1471
2 c208 -68 323 -307 247 -508 -115 -302 -525 -347 -698 -76 -41 64 -57 121
-59 209 -6 219 175 397 395 391 41 -2 93 -9 115 -16z m1475 -1 c48 -17 129
-70 161 -105 37 -41 73 -101 89 -154 19 -58 17 -183 -4 -240 -69 -189 -266
-298 -459 -253 -79 18 -126 44 -185 101 -78 76 -111 151 -117 265 -13 227 176
415 405 403 41 -2 91 -10 110 -17z"/>
<path d="M6319 3728 c-1 -590 -3 -1095 -5 -1123 -17 -200 -134 -390 -292 -474
-133 -70 -15 -66 -2129 -66 l-1903 0 0 -70 c0 -183 90 -344 262 -471 71 -52
163 -97 249 -120 60 -17 164 -18 1545 -19 l1481 -1 129 -76 c797 -469 964
-565 964 -556 0 6 -7 38 -16 72 -9 33 -17 68 -19 76 -2 8 -15 62 -30 120 -14
58 -28 112 -30 121 -2 9 -15 65 -30 124 -14 59 -24 109 -22 112 3 2 32 6 65 8
213 14 355 135 434 370 l23 70 2 1275 c3 1401 6 1323 -58 1455 -43 89 -101
145 -192 187 -76 35 -136 45 -319 54 l-108 6 -1 -1074z"/>
</g>
</svg>
