<?xml version="1.0" encoding="UTF-8"?>
<svg width="32" height="32" version="1.1" viewBox="0 0 15.10375 15.10375" xml:space="preserve" xmlns="http://www.w3.org/2000/svg"><g transform="matrix(.0625 0 0 .0625 3.5e-5 0)"><path d="m210 17.9h-17.9c-9.01 0-16.1-5.16-26.8-8.95-14.8-5.12-36.8-8.96-74.8-8.96-6.64 0-27.2-0.025-27.2-0.025-6.31 0-11.4 2.88-15 6.36-1.39 1.32-2.84 3.24-3.46 6.99-0.101 0.582-0.21 3.02-0.193 3.35-0.478 10.7 6.01 14.6 9.68 15.8-0.101 0.034-0.033 0.126-0.235 0.117l-11.7-0.522c-10.4-0.472-20.6 6.99-20.6 19.7 0 10.5 8.52 17.9 18.8 18.4l-6.18-0.287c-10.4-0.455-19.1 7.7-19.6 18.2-0.453 10.5 7.57 19.4 17.9 19.9-10.3-0.472-19.1 7.68-19.6 18.2-0.454 10.5 6.82 20 17.2 20.4l68.7 8.63s-14.3 24-14.3 59.5c0 23.7 16.9 26.8 26.8 26.8 7.82 2e-3 9.93-15.2 9.93-15.2h0.016c1.77-9.72 4.08-18.2 12.1-33.8 8.97-17.5 21.2-15.9 35.4-31.5 2.52-2.75 5.9-7.28 9.2-12.9 0.269-0.295 0.521-0.708 0.764-1.29 0.293-0.69 0.646-1.17 0.956-1.81 0.545-1 1.08-2 1.61-3.06 8.83-8.83 22.6-7.92 28.4-7.92 11.7 0 17.9-6.82 17.9-17.9l5e-3 -81.8c2e-3 -12.4-5.08-16.6-17.9-16.6z" clip-rule="evenodd" fill="#d80027" fill-rule="evenodd"/></g></svg>
