<?xml version="1.0" encoding="UTF-8" standalone="no"?>
<svg xmlns:rdf="http://www.w3.org/1999/02/22-rdf-syntax-ns#" xmlns="http://www.w3.org/2000/svg" xml:space="preserve" viewBox="0 0 16.77975 16.77975" height="32" width="32" version="1.1" y="0px" x="0px" xmlns:cc="http://creativecommons.org/ns#" xmlns:dc="http://purl.org/dc/elements/1.1/"><metadata><rdf:RDF><cc:Work rdf:about=""><dc:format>image/svg+xml</dc:format><dc:type rdf:resource="http://purl.org/dc/dcmitype/StillImage"/><dc:title/></cc:Work></rdf:RDF></metadata><g id="Delete__x2F__Trash" transform="matrix(.0625 0 0 .0625 -9.22e-7 -9.22e-7)"><path d="m63.1 250s4 18.2 24.6 18.2h93.1c20.6 0 24.6-18.2 24.6-18.2l18.4-179h-179l18.4 179zm107-152c0-4.94 4.01-8.95 8.95-8.95s8.95 4.01 8.95 8.95l-8.95 134c0 4.94-4.01 8.95-8.95 8.95s-8.95-4.01-8.95-8.95l8.95-134zm-44.7 0c0-4.94 4.01-8.95 8.95-8.95s8.95 4.01 8.95 8.95v134c0 4.94-4.01 8.95-8.95 8.95s-8.95-4.01-8.95-8.95v-134zm-35.8-8.95c4.94 0 8.95 4.01 8.95 8.95l8.95 134c0 4.94-4.01 8.95-8.95 8.95s-8.95-4.01-8.95-8.95l-8.6-134c0-4.94 4.01-8.95 8.95-8.95zm129-53.7h-39.4v-17.9c0-13.5-4-17.8-18-17.8h-54c-12 0-17.5 6-17.5 17.9v17.9h-39.4c-7.91 0-14.3 6.01-14.3 13.4 0 7.42 6.4 13.4 14.3 13.4h168c7.91 0 14.3-6.01 14.3-13.4 0-7.42-6.4-13.4-14.3-13.4zm-57.3 0h-53.7l0.001-17.9h53.7v17.9z" fill-rule="evenodd" clip-rule="evenodd" fill="#933ec5"/></g></svg>
