<?xml version="1.0" encoding="UTF-8" standalone="no"?>
<svg xmlns:rdf="http://www.w3.org/1999/02/22-rdf-syntax-ns#" xmlns="http://www.w3.org/2000/svg" xml:space="preserve" height="32" width="32" version="1.1" y="0px" x="0px" xmlns:cc="http://creativecommons.org/ns#" xmlns:dc="http://purl.org/dc/elements/1.1/" viewBox="0 0 16.795313 16.795313"><path d="m10.1 3.52c-0.44-0.441-1.16-0.441-1.59 0l-0.398 0.399-5.58 5.58 0.00144 0.00144-0.176 0.176s-0.561 0.564-1.82 4.65l-0.066 0.1c-0.023 0.1-0.045 0.2-0.068 0.2-0.021 0.1-0.041 0.2-0.062 0.2l-0.052 0.2c-0.0401 0.134-0.0806 0.27-0.122 0.411-0.0912 0.309-0.313 1.01-0.0619 1.26 0.242 0.242 0.944 0.0292 1.25-0.0621 0.139-0.0414 0.275-0.0819 0.408-0.122 0.0613-0.0185 0.121-0.0366 0.181-0.0549 0.0644-0.0196 0.129-0.0391 0.191-0.0584 0.0794-0.0244 0.158-0.0484 0.234-0.0725 0.0229-0.0071 0.0454-0.0142 0.0681-0.0212 3.89-1.21 4.59-1.78 4.64-1.83 0.000438-0.000312 0.000438-0.000312 0.00075-0.000625 0.00244-0.0023 0.00412-0.0038 0.00412-0.0038l0.18-0.181 0.0121 0.0121 5.58-5.58-0.000062-0.0000625 0.398-0.399c0.44-0.441 0.44-1.16 0-1.59l-3.19-3.19zm-3.62 10.2c-0.00488 0.0033-0.0115 0.0076-0.0185 0.0121-0.00387 0.0025-0.00856 0.0054-0.0132 0.0083-0.00469 0.0029-0.00981 0.0061-0.0152 0.0094-0.00481 0.0029-0.00981 0.0059-0.0152 0.0092-0.186 0.111-0.731 0.398-2.05 0.875-0.154 0.0559-0.322 0.115-0.499 0.176l-1.88-1.88c0.0612-0.178 0.121-0.347 0.177-0.502 0.478-1.32 0.762-1.88 0.875-2.06 0.00269-0.0044 0.00513-0.0085 0.00756-0.0125 0.00387-0.0064 0.0075-0.0123 0.0109-0.0178 0.00269-0.0043 0.0055-0.0088 0.00787-0.0125 0.00444-0.0069 0.00875-0.0136 0.0121-0.0185l0.138-0.138 3.41 3.41-0.141 0.141zm10-10.2-3.19-3.19c-0.44-0.441-1.16-0.441-1.59 0l-0.75 0.794c-0.44 0.441-0.44 1.16 0 1.59l3.19 3.19c0.44 0.441 1.16 0.441 1.59 0l0.794-0.8c0.44-0.441 0.44-1.16 0-1.59z" fill-rule="evenodd" clip-rule="evenodd" fill="#c0c0c0"/></svg>
