<?xml version="1.0" encoding="UTF-8" standalone="no"?>
<!-- Generator: Adobe Illustrator 18.1.1, SVG Export Plug-In . SVG Version: 6.00 Build 0)  -->
<svg xmlns:rdf="http://www.w3.org/1999/02/22-rdf-syntax-ns#" xmlns="http://www.w3.org/2000/svg" xml:space="preserve" viewBox="0 0 16.77975 16.77975" height="32" width="32" version="1.1" y="0px" x="0px" xmlns:cc="http://creativecommons.org/ns#" xmlns:dc="http://purl.org/dc/elements/1.1/"><metadata><rdf:RDF><cc:Work rdf:about=""><dc:format>image/svg+xml</dc:format><dc:type rdf:resource="http://purl.org/dc/dcmitype/StillImage"/><dc:title/></cc:Work></rdf:RDF></metadata><g id="Comments" transform="matrix(.0625 0 0 .0625 -5.48e-7 -.0000318)"><path d="m233 13.4h-197c-18.7 0-36 17.4-36 35.8v125c0 18.5 17.3 35.8 35.8 35.8h8.95v44.7l80.5-44.7h107c18.5 0 35.8-17.3 35.8-35.8v-125c0-18.2-17-35.6-35-35.6zm-170 117c-9.88 0-17.9-8.04-17.9-18 0-9.92 8.01-18 17.9-18 9.88 0 17.9 8.04 17.9 18 0 9.92-8.01 18-17.9 18zm71.6 0c-9.88 0-17.9-8.04-17.9-18 0-9.92 8.01-18 17.9-18 9.88 0 17.9 8.04 17.9 18 0 9.92-8.01 18-17.9 18zm71.6 0c-9.88 0-17.9-8.04-17.9-18 0-9.92 8.01-18 17.9-18 9.88 0 17.9 8.04 17.9 18 0.001 9.92-8.01 18-17.9 18z" fill-rule="evenodd" clip-rule="evenodd" fill="#606060"/></g></svg>
