<svg width="32" height="32" version="1.1" viewBox="0 0 15.1 15.1" xmlns="http://www.w3.org/2000/svg"><path d="m13.1 1.12h-1.12c-.563 0-1.01-.322-1.68-.559-.925-.32-2.3-.56-4.68-.56-.415 0-1.7-.00156-1.7-.00156-.394 0-.712.18-.938.398-.194.235-.223.345-.228.646-.0299.669.376.912.605.988-.216-.00679-.505-.0145-.746-.0253-.65-.0295-1.29.437-1.29 1.23 0 .656.413 1.1 1.18 1.15-1.18-.0532-1.56.487-1.61 1.12-.0283.656.473 1.21 1.12 1.24-.644-.0295-1.19.48-1.22 1.14-.0284.656.426 1.25 1.08 1.28l4.29.539s-.894 1.5-.894 3.72c0 1.48 1.06 1.68 1.68 1.68.489.000126.621-.95.621-.95h.001c.111-.608.255-1.14.756-2.11.561-1.09 1.32-.994 2.21-1.97.158-.172.369-.455.575-.806.0778-.128.144-.263.208-.385.552-.552 1.41-.495 1.78-.495.731 0 1.12-.426 1.12-1.12l.000313-5.11c.000125-.775-.318-1.04-1.12-1.04z" clip-rule="evenodd" fill="#d80027" fill-rule="evenodd" stroke-width=".0625"/></svg>