<?xml version="1.0" encoding="UTF-8"?>
<svg width="16" height="16" version="1.1" viewBox="0 0 6.66 6.66" xml:space="preserve" xmlns="http://www.w3.org/2000/svg">
<path d="m4.12 3.33 2.37-2.37c.218-.218.218-.573 0-.791-.218-.218-.573-.218-.791 0l-2.37 2.37-2.37-2.37c-.218-.218-.573-.218-.791 0-.218.218-.218.573 0 .791l2.37 2.37-2.37 2.37c-.218.218-.218.573 0 .791.218.218.573.218.791 0l2.37-2.37 2.37 2.37c.218.218.573.218.791 0s.218-.573 0-.791z" clip-rule="evenodd" fill="#e05050" fill-rule="evenodd" stroke-width=".0312"/>
</svg>
