<?xml version="1.0" encoding="UTF-8"?>
<svg width="32" height="32" version="1.1" viewBox="0 0 16 16" xmlns="http://www.w3.org/2000/svg"><g transform="matrix(.0399 0 0 .04 3 3.03)" fill="#fff" stroke-width=".63"><path d="m244 215-54-54c-.29-.29-.63-.49-.93-.76 11-16 17-36 17-57 0-58-46-104-103-104s-103 46-103 103 46 103 103 103c21 0 40-6.2 57-17 .27.3.47.64.76.93l54 54c8.2 8.2 21 8.2 30 0 8.2-8.2 8.2-21 0-30zm-141-45c-37 0-67-30-67-67s30-67 67-67 67 30 67 67-30 67-67 67z" clip-rule="evenodd" fill="#fff" fill-rule="evenodd" stroke-width=".5"/></g></svg>
