<?xml version="1.0" encoding="UTF-8"?>
<svg width="32" height="32" version="1.1" viewBox="0 0 33.33 33.33" xml:space="preserve" xmlns="http://www.w3.org/2000/svg">
<path d="m30.2 8.625e-5h-9.393c-1.722 0-4.127 0.9962-5.345 2.214l-14.55 14.55c-1.218 1.218-1.218 3.21 0 4.428l11.23 11.23c1.218 1.218 3.21 1.218 4.428 0l14.55-14.55c1.218-1.218 2.214-3.623 2.214-5.345v-9.393c-6.3e-5 -1.722-1.409-3.131-3.131-3.131zm-4.161 10.42c-1.726 0-3.125-1.399-3.125-3.125 0-1.726 1.399-3.125 3.125-3.125 1.726 0 3.125 1.399 3.125 3.125 0 1.726-1.399 3.125-3.125 3.125z" style="fill:#ffda44"/>
</svg>
