<?xml version="1.0" encoding="UTF-8"?>
<svg width="800" height="32" version="1.1" viewBox="0 0 25 1" xmlns="http://www.w3.org/2000/svg" xmlns:xlink="http://www.w3.org/1999/xlink"><defs><radialGradient id="a" cx="9.71" cy="8.79" r="7.5" gradientTransform="matrix(0 .0418 -.0692 -2.51e-8 17.1 .317)" gradientUnits="userSpaceOnUse" xlink:href="#c"/><linearGradient id="c"><stop stop-color="#fffffa" offset="0"/><stop stop-color="#ffd963" offset=".51"/><stop stop-color="#f90" offset="1"/></linearGradient><linearGradient id="b" x1=".983" x2="14.2" y1="5.36" y2="5.98" gradientTransform="matrix(.00414 .0569 -.0887 .00266 17 -.154)" gradientUnits="userSpaceOnUse" xlink:href="#d"/><linearGradient id="d"><stop stop-color="#fff" offset="0"/><stop stop-color="#fff" stop-opacity="0" offset="1"/></linearGradient><radialGradient id="k" cx="9.71" cy="8.79" r="7.5" gradientTransform="matrix(0 .0418 -.0692 -2.51e-8 10.1 .317)" gradientUnits="userSpaceOnUse" xlink:href="#c"/><linearGradient id="r" x1=".983" x2="14.2" y1="5.36" y2="5.98" gradientTransform="matrix(.00414 .0569 -.0887 .00266 9.98 -.147)" gradientUnits="userSpaceOnUse" xlink:href="#d"/><radialGradient id="j" cx="9.71" cy="8.79" r="7.5" gradientTransform="matrix(0 .0418 -.0692 -2.51e-8 11.1 .317)" gradientUnits="userSpaceOnUse" xlink:href="#c"/><linearGradient id="q" x1=".983" x2="14.2" y1="5.36" y2="5.98" gradientTransform="matrix(.00414 .0569 -.0887 .00266 11 -.147)" gradientUnits="userSpaceOnUse" xlink:href="#d"/><radialGradient id="i" cx="9.71" cy="8.79" r="7.5" gradientTransform="matrix(0 .0418 -.0692 -2.51e-8 12.1 .317)" gradientUnits="userSpaceOnUse" xlink:href="#c"/><linearGradient id="p" x1=".983" x2="14.2" y1="5.36" y2="5.98" gradientTransform="matrix(.00414 .0569 -.0887 .00266 12 -.152)" gradientUnits="userSpaceOnUse" xlink:href="#d"/><radialGradient id="h" cx="9.71" cy="8.79" r="7.5" gradientTransform="matrix(0 .0418 -.0692 -2.51e-8 13.1 .317)" gradientUnits="userSpaceOnUse" xlink:href="#c"/><linearGradient id="o" x1=".983" x2="14.2" y1="5.36" y2="5.98" gradientTransform="matrix(.00414 .0569 -.0887 .00266 13 -.143)" gradientUnits="userSpaceOnUse" xlink:href="#d"/><radialGradient id="g" cx="9.71" cy="8.79" r="7.5" gradientTransform="matrix(0 .0418 -.0692 -2.51e-8 14.1 .317)" gradientUnits="userSpaceOnUse" xlink:href="#c"/><linearGradient id="n" x1=".983" x2="14.2" y1="5.36" y2="5.98" gradientTransform="matrix(.00414 .0569 -.0887 .00266 14 -.136)" gradientUnits="userSpaceOnUse" xlink:href="#d"/><radialGradient id="f" cx="9.71" cy="8.79" r="7.5" gradientTransform="matrix(0 .0418 -.0692 -2.51e-8 15.1 .317)" gradientUnits="userSpaceOnUse" xlink:href="#c"/><linearGradient id="m" x1=".983" x2="14.2" y1="5.36" y2="5.98" gradientTransform="matrix(.00414 .0569 -.0887 .00266 15 -.145)" gradientUnits="userSpaceOnUse" xlink:href="#d"/><radialGradient id="e" cx="9.71" cy="8.79" r="7.5" gradientTransform="matrix(0 .0418 -.0692 -2.51e-8 16.1 .317)" gradientUnits="userSpaceOnUse" xlink:href="#c"/><linearGradient id="l" x1=".983" x2="14.2" y1="5.36" y2="5.98" gradientTransform="matrix(.00414 .0569 -.0887 .00266 16 -.136)" gradientUnits="userSpaceOnUse" xlink:href="#d"/></defs><g fill="#fff"><path d="m.688.469s.125-.05.125-.225c0-.256-.319-.244-.438-.244h-.25v1h.25c.231 0 .5 0 .5-.275 0-.238-.188-.256-.188-.256zm-.125-.194c0 .112-.0938.1-.188.1v-.188c.112 0 .188.0062.188.0875zm-.188.537v-.25c.112 0 .25-.0188.25.138 0 .119-.156.112-.25.112z"/><path d="m1.5-3.73e-8h.188l-.188 1h-.188z"/><path d="m2.12.937h.744v.0625h-.744z"/><path d="m2.68-3.73e-8v.525c0 .0938-.0682.162-.161.162h-.0496c-.093 0-.161-.0688-.161-.162v-.525h-.186v.525c0 .194.155.35.347.35h.0558c.192 0 .347-.156.347-.35v-.525z"/><path d="m3.66.44c-.0312-.0187-.0625-.0311-.0875-.0436-.125-.056-.131-.0684-.125-.118.00625-.0498.025-.0622.0375-.0747.0562-.0311.175-.00622.219.0124l.0688-.174c-.025-.0124-.231-.0871-.381 0-.05.0311-.119.0934-.131.212-.0125.0809.00625.143.0438.187h-.3v.0622h1v-.0622z"/><path d="m3.48.564s.00625 0 .00625.00622c.125.056.15.0747.138.156-.0125.056-.0312.0684-.05.0809-.0688.0373-.206 0-.275-.0311l-.075.162c.0188.00622.144.0622.281.0622.0562 0 .112-.0124.162-.0373.0562-.0311.125-.0871.15-.212.0125-.0809 0-.143-.025-.193h-.312z"/><path d="m4.13.194c.0125.0812.025.1.025.181 0 .05-.0938.0938-.0938.0938v.0625s.0938.0438.0938.0938c0 .0812-.0125.1-.025.181-.0188.131.05.194.112.194h.131v-.125s-.112.0125-.112-.0625c0-.0562.0125-.0562.025-.181.00625-.0562-.0312-.1-.0688-.131.0375-.0312.075-.0688.0688-.125-.0188-.125-.025-.125-.025-.181 0-.075.112-.0688.112-.0688v-.125h-.131c-.0688 0-.131.0625-.112.194z"/><path d="m4.87.194c-.0125.0812-.025.1-.025.181 0 .05.0938.0938.0938.0938v.0625s-.0938.0438-.0938.0938c0 .0812.0125.1.025.181.0188.131-.05.194-.112.194h-.131v-.125s.112.0125.112-.0625c0-.0562-.0125-.0562-.025-.181-.00625-.0562.0312-.1.0688-.131-.0375-.0312-.075-.0688-.0688-.125.0125-.125.025-.125.025-.181 0-.075-.112-.0688-.112-.0688v-.125h.131c.0688 0 .131.0625.112.194z"/><path d="m5.93.066c-.0876-.088-.232-.088-.319 0l-.275.27c-.0876.0943-.0876.233 0 .327.00626.00629.0188.0126.025.0189l.0939-.0943c-.00626-.00629-.0188-.0126-.025-.0189-.0376-.0377-.0376-.101 0-.138l.275-.277c.0376-.0377.1-.0377.138 0 .0376.0377.0376.101 0 .138l-.0814.0818c.025.0503.0313.107.025.157l.144-.145c.0939-.088.0939-.233-4e-7-.321z"/><path d="m5.64.318-.0939.0943s.0188.0126.025.0189c.0376.0377.0376.101 0 .138l-.275.277c-.0376.0377-.1.0377-.138 0-.0376-.0377-.0376-.101 0-.138l.0814-.0818c-.025-.0503-.00626-.0818-.025-.157l-.144.145c-.0876.088-.0876.233 0 .321.0876.088.232.088.319 0l.275-.277c.0876-.088.0876-.233 0-.321-.0125-.00629-.025-.0189-.025-.0189z"/><path d="m7 .875h-1v-.75h1zm-.938-.0625h.875v-.625h-.875z"/><path d="m6.12.625v.125h.75v-.0625s.0125-.106-.125-.125c-.119-.0188-.138.0375-.238.0375-.0688 0-.0562-.1-.2-.1-.106 0-.188.125-.188.125z"/><path d="m6.81.375c0 .0691-.0559.125-.125.125s-.125-.0559-.125-.125.0559-.125.125-.125.125.0559.125.125z"/><path d="m7.44.437v.438h-.438v-.444c0-.3.281-.338.281-.338l.0375.0875s-.125.0188-.15.119c-.025.075.025.138.025.138z"/><path d="m8 .437v.438h-.438v-.444c0-.3.281-.338.281-.338l.0375.0875s-.125.0188-.15.119c-.025.075.025.138.025.138z"/><path d="m8-3.73e-8h.156v1h-.156z"/><path d="m8.56.812h.188v.125h-.188z"/><path d="m8.56.562h.188v.125h-.188z"/><path d="m8.56.312h.188v.125h-.188z"/><path d="m8.56.0625h.188v.125h-.188z"/><path d="m8.31.562h.188v.125h-.188z"/><path d="m8.31.0625h.188v.125h-.188z"/><path d="m8.81.312h.188v.125h-.188z"/><path d="m8.81.0625h.188v.125h-.188z"/></g><path d="m12 .5a.484.484 0 01-.484.484.484.484 0 01-.484-.484.484.484 0 01.484-.484.484.484 0 01.484.484z" fill="url(#i)" stroke="#000" stroke-linecap="round" stroke-linejoin="round" stroke-width=".0312"/><path d="m11.5.626a.355.276 2.04 01-.375-.265.355.276 2.04 01.335-.287.355.276 2.04 01.375.265.355.276 2.04 01-.335.287z" fill="url(#p)" stroke-width=".0321"/><path d="m11.2.5c0 .229.155.346.346.346s.346-.117.346-.346z" fill="#fff" stroke="#000" stroke-linecap="round" stroke-linejoin="round" stroke-width=".0312"/><g fill="none" stroke="#000" stroke-linecap="round" stroke-linejoin="round" stroke-width=".0312"><path d="m11.2.362c0-.138.208-.138.208 0"/><path d="m11.6.362c0-.138.208-.138.208 0"/><path d="m11.6.811v-.311m-.277 0v.311"/></g><path d="m9.98.5a.484.484 0 01-.484.484.484.484 0 01-.484-.484.484.484 0 01.484-.484.484.484 0 01.484.484z" fill="url(#k)" stroke="#000" stroke-linecap="round" stroke-linejoin="round" stroke-width=".0312"/><path d="m9.53.631a.355.276 2.04 01-.375-.265.355.276 2.04 01.335-.287.355.276 2.04 01.375.265.355.276 2.04 01-.335.287z" fill="url(#r)" stroke-width=".0321"/><g stroke="#000" stroke-linecap="round" stroke-linejoin="round" stroke-width=".0312"><path d="m9.22.5c0 .208.138.277.277.277.138 0 .277-.0692.277-.277" fill="none"/><path d="m9.43.292a.0692.0692 0 01-.0692.0692.0692.0692 0 01-.0692-.0692.0692.0692 0 01.0692-.0692.0692.0692 0 01.0692.0692z"/><path d="m9.71.292a.0692.0692 0 01-.0692.0692.0692.0692 0 01-.0692-.0692.0692.0692 0 01.0692-.0692.0692.0692 0 01.0692.0692z"/><path d="m11 .5a.484.484 0 01-.484.484.484.484 0 01-.484-.484.484.484 0 01.484-.484.484.484 0 01.484.484z" fill="url(#j)"/></g><path d="m10.5.632a.355.276 2.04 01-.375-.265.355.276 2.04 01.335-.287.355.276 2.04 01.375.265.355.276 2.04 01-.335.287z" fill="url(#q)" stroke-width=".0321"/><g stroke="#000" stroke-linecap="round" stroke-linejoin="round" stroke-width=".0312"><path d="m10.8.5h-.554c0 .208.138.277.277.277s.277-.0692.277-.277z" fill="#fff"/><path d="m10.4.292a.0692.0692 0 01-.0692.0692.0692.0692 0 01-.0692-.0692.0692.0692 0 01.0692-.0692.0692.0692 0 01.0692.0692z"/><path d="m10.7.292a.0692.0692 0 01-.0692.0692.0692.0692 0 01-.0692-.0692.0692.0692 0 01.0692-.0692.0692.0692 0 01.0692.0692z"/><path d="m13 .5a.484.484 0 01-.484.484.484.484 0 01-.484-.484.484.484 0 01.484-.484.484.484 0 01.484.484z" fill="url(#h)"/></g><path d="m12.5.635a.355.276 2.04 01-.375-.265.355.276 2.04 01.335-.287.355.276 2.04 01.375.265.355.276 2.04 01-.335.287z" fill="url(#o)" stroke-width=".0321"/><g stroke="#000" stroke-linecap="round" stroke-linejoin="round" stroke-width=".0312"><path d="m12.2.431c0 .277.138.346.277.346s.277-.0692.277-.277" fill="none"/><path d="m12.7.292a.0692.0692 0 01-.0692.0692.0692.0692 0 01-.0692-.0692.0692.0692 0 01.0692-.0692.0692.0692 0 01.0692.0692z"/><path d="m12.4.292h-.138" fill="#ecf3f7"/><path d="m15 .5a.484.484 0 01-.484.484.484.484 0 01-.484-.484.484.484 0 01.484-.484.484.484 0 01.484.484z" fill="url(#f)"/></g><path d="m14.5.633a.355.276 2.04 01-.375-.265.355.276 2.04 01.335-.287.355.276 2.04 01.375.265.355.276 2.04 01-.335.287z" fill="url(#m)" stroke-width=".0321"/><g stroke="#000" stroke-linecap="round" stroke-linejoin="round" stroke-width=".0312"><path d="m14.2.708c0-.138.138-.208.277-.208s.277.0692.277.208" fill="none"/><path d="m14.4.292a.0692.0692 0 01-.0692.0692.0692.0692 0 01-.0692-.0692.0692.0692 0 01.0692-.0692.0692.0692 0 01.0692.0692z"/><path d="m14.7.292a.0692.0692 0 01-.0692.0692.0692.0692 0 01-.0692-.0692.0692.0692 0 01.0692-.0692.0692.0692 0 01.0692.0692z"/><path d="m14 .5a.484.484 0 01-.484.484.484.484 0 01-.484-.484.484.484 0 01.484-.484.484.484 0 01.484.484z" fill="url(#g)"/></g><path d="m13.5.642a.355.276 2.04 01-.375-.265.355.276 2.04 01.335-.287.355.276 2.04 01.375.265.355.276 2.04 01-.335.287z" fill="url(#n)" stroke-width=".0321"/><g stroke-linecap="round" stroke-linejoin="round" stroke-width=".0312"><path d="m13.4.292a.0692.0692 0 01-.0692.0692.0692.0692 0 01-.0692-.0692.0692.0692 0 01.0692-.0692.0692.0692 0 01.0692.0692z" stroke="#000"/><path d="m13.7.292a.0692.0692 0 01-.0692.0692.0692.0692 0 01-.0692-.0692.0692.0692 0 01.0692-.0692.0692.0692 0 01.0692.0692z" stroke="#000"/><path d="m13.4.569v.208c0 .0692.277.0692.277 0v-.208" fill="#fda7ff" stroke="#6b1a6f"/><path d="m13.6.569v.138" fill="none" stroke="#6b1a6f"/><path d="m13.2.569h.554" fill="none" stroke="#000"/><path d="m17 .5a.484.484 0 01-.484.484.484.484 0 01-.484-.484.484.484 0 01.484-.484.484.484 0 01.484.484z" fill="url(#a)" stroke="#000"/></g><path d="m16.5.624a.355.276 2.04 01-.375-.265.355.276 2.04 01.335-.287.355.276 2.04 01.375.265.355.276 2.04 01-.335.287z" fill="url(#b)" stroke-width=".0321"/><g stroke="#000" stroke-linecap="round" stroke-linejoin="round" stroke-width=".0312"><path d="m16.2.708c0-.0692.138-.138.277-.138s.277.0692.277.138" fill="none"/><path d="m16.3.154.208.0692" fill="#fff"/><path d="m16.5.223.208-.0692" fill="#fff"/><path d="m16.4.362a.0692.0692 0 01-.0692.0692.0692.0692 0 01-.0692-.0692.0692.0692 0 01.0692-.0692.0692.0692 0 01.0692.0692z"/><path d="m16.7.362a.0692.0692 0 01-.0692.0692.0692.0692 0 01-.0692-.0692.0692.0692 0 01.0692-.0692.0692.0692 0 01.0692.0692z"/><path d="m16 .5a.484.484 0 01-.484.484.484.484 0 01-.484-.484.484.484 0 01.484-.484.484.484 0 01.484.484z" fill="url(#e)"/></g><path d="m15.5.642a.355.276 2.04 01-.375-.265.355.276 2.04 01.335-.287.355.276 2.04 01.375.265.355.276 2.04 01-.335.287z" fill="url(#l)" stroke-width=".0321"/><g fill="none" stroke-linecap="round" stroke-linejoin="round"><path d="m15.8.431c0-.0692-.0649-.0692-.134-.0692" stroke="#00cfff" stroke-width=".0625"/><path d="m15.7.223-.138.138h.208" stroke="#000" stroke-width=".0312"/><path d="m15.4.362c-.0692 0-.143 0-.143.0692" stroke="#00cfff" stroke-width=".0625"/><path d="m15.3.223.138.138h-.208" stroke="#000" stroke-width=".0312"/></g><path d="m15.3.5c-.0692.0692-.0692.208 0 .277.138-.0692.277-.0692.415 0 .0692-.0692.0692-.208 0-.277-.138.0692-.277.0692-.415 0z" fill="#fff" stroke="#000" stroke-linecap="round" stroke-linejoin="round" stroke-width=".0312"/><path d="m0-3.73e-8h1v1h-1z" fill-opacity="0"/><path d="m24-3.73e-8h1v1h-1z" fill-opacity="0"/></svg>
