<?xml version="1.0" encoding="UTF-8"?>
<svg width="544" height="32" version="1.1" viewBox="0 0 17 1" xmlns="http://www.w3.org/2000/svg" xmlns:xlink="http://www.w3.org/1999/xlink"><defs><radialGradient id="a" cx="9.714" cy="8.79" r="7.5" gradientTransform="matrix(-7.938e-8 .6038 -1 -3.63e-7 16.29 5.862)" gradientUnits="userSpaceOnUse" xlink:href="#c"/><linearGradient id="c"><stop style="stop-color:#fffffa" offset="0"/><stop style="stop-color:#ffd963" offset=".5101"/><stop style="stop-color:#ff9900" offset="1"/></linearGradient><linearGradient id="b" x1=".9829" x2="14.24" y1="5.36" y2="5.979" gradientUnits="userSpaceOnUse" xlink:href="#d"/><linearGradient id="d"><stop style="stop-color:#ffffff" offset="0"/><stop style="stop-color:#ffffff;stop-opacity:0" offset="1"/></linearGradient></defs><path d="m0.6875 0.4688s0.125-0.04999 0.125-0.225c0-0.2562-0.3187-0.2437-0.4375-0.2437h-0.25v0.9999h0.25c0.2313 0 0.5 0 0.5-0.275 0-0.2375-0.1875-0.2562-0.1875-0.2562zm-0.125-0.1937c0 0.1125-0.09375 0.09999-0.1875 0.09999v-0.1875c0.1125 0 0.1875 0.0062 0.1875 0.08749zm-0.1875 0.5374v-0.25c0.1125 0 0.25-0.01875 0.25 0.1375 0 0.1187-0.1563 0.1125-0.25 0.1125z" style="fill:#ffffff"/><path d="m1.5 0h0.1875l-0.1875 1h-0.1875z" style="fill:#ffffff"/><path d="m2.125 0.9375h0.7438v0.0625h-0.7438z" style="fill:#ffffff"/><path d="m2.683 0v0.525c0 0.09375-0.06818 0.1625-0.1612 0.1625h-0.04959c-0.09298 0-0.1612-0.06875-0.1612-0.1625v-0.525h-0.186v0.525c0 0.1938 0.155 0.35 0.3471 0.35h0.05578c0.1921 0 0.3471-0.1562 0.3471-0.35v-0.525z" style="fill:#ffffff"/><path d="m3.656 0.4399c-0.03125-0.01867-0.0625-0.03112-0.0875-0.04356-0.125-0.05601-0.1312-0.06845-0.125-0.1182 0.00625-0.04978 0.025-0.06223 0.0375-0.07468 0.05625-0.03112 0.175-0.00622 0.2188 0.01245l0.06875-0.1742c-0.025-0.01245-0.2312-0.08712-0.3812 0-0.05 0.03112-0.1188 0.09335-0.1312 0.2116-0.0125 0.0809 0.00625 0.1431 0.04375 0.1867h-0.3v0.06223h1v-0.06223z" style="fill:#ffffff"/><path d="m3.481 0.5644s0.00625 0 0.00625 0.00622c0.125 0.05601 0.15 0.07468 0.1375 0.1556-0.0125 0.05601-0.03125 0.06845-0.05 0.0809-0.06875 0.03734-0.2062 0-0.275-0.03112l-0.075 0.1618c0.01875 0.00622 0.1438 0.06223 0.2812 0.06223 0.05625 0 0.1125-0.01245 0.1625-0.03734 0.05625-0.03112 0.125-0.08712 0.15-0.2116 0.0125-0.0809 0-0.1431-0.025-0.1929h-0.3125z" style="fill:#ffffff"/><path d="m4.131 0.1938c0.0125 0.08125 0.025 0.1 0.025 0.1812 0 0.05-0.09375 0.09375-0.09375 0.09375v0.0625s0.09375 0.04375 0.09375 0.09375c0 0.08125-0.0125 0.1-0.025 0.1812-0.01875 0.1312 0.05 0.1938 0.1125 0.1938h0.1312v-0.125s-0.1125 0.0125-0.1125-0.0625c0-0.05625 0.0125-0.05625 0.025-0.1812 0.00625-0.05625-0.03125-0.1-0.06875-0.1312 0.0375-0.03125 0.075-0.06875 0.06875-0.125-0.01875-0.125-0.025-0.125-0.025-0.1812 0-0.075 0.1125-0.06875 0.1125-0.06875v-0.125h-0.1312c-0.06875 0-0.1312 0.0625-0.1125 0.1938z" style="fill:#ffffff"/><path d="m4.869 0.1938c-0.0125 0.08125-0.025 0.1-0.025 0.1812 0 0.05 0.09375 0.09375 0.09375 0.09375v0.0625s-0.09375 0.04375-0.09375 0.09375c0 0.08125 0.0125 0.1 0.025 0.1812 0.01875 0.1312-0.05 0.1938-0.1125 0.1938h-0.1312v-0.125s0.1125 0.0125 0.1125-0.0625c0-0.05625-0.0125-0.05625-0.025-0.1812-0.00625-0.05625 0.03125-0.1 0.06875-0.1312-0.0375-0.03125-0.075-0.06875-0.06875-0.125 0.0125-0.125 0.025-0.125 0.025-0.1812 0-0.075-0.1125-0.06875-0.1125-0.06875v-0.125h0.1312c0.06875 0 0.1312 0.0625 0.1125 0.1938z" style="fill:#ffffff"/><path d="m5.93 0.06604c-0.08764-0.08805-0.2316-0.08805-0.3192 0l-0.2754 0.2704c-0.08764 0.09434-0.08764 0.2327 0 0.327 0.00626 0.00629 0.01878 0.01258 0.02504 0.01887l0.0939-0.09434c-0.00626-0.00629-0.01878-0.01258-0.02504-0.01887-0.03756-0.03774-0.03756-0.1006 0-0.1384l0.2754-0.2767c0.03756-0.03774 0.1002-0.03774 0.1377 0 0.03756 0.03774 0.03756 0.1006 0 0.1384l-0.08138 0.08176c0.02504 0.05031 0.0313 0.1069 0.02504 0.1572l0.144-0.1447c0.0939-0.08805 0.0939-0.2327-4e-7 -0.3208z" style="fill:#ffffff"/><path d="m5.635 0.3176-0.0939 0.09434s0.01878 0.01258 0.02504 0.01887c0.03756 0.03774 0.03756 0.1006 0 0.1384l-0.2754 0.2767c-0.03756 0.03774-0.1002 0.03774-0.1377 0-0.03756-0.03774-0.03756-0.1006 0-0.1384l0.08138-0.08176c-0.02504-0.05031-0.00626-0.08176-0.02504-0.1572l-0.144 0.1447c-0.08764 0.08805-0.08764 0.2327 0 0.3208 0.08764 0.08805 0.2316 0.08805 0.3192 0l0.2754-0.2767c0.08764-0.08805 0.08764-0.2327 0-0.3208-0.01252-0.00629-0.02504-0.01887-0.02504-0.01887z" style="fill:#ffffff"/><path d="m7 0.875h-1v-0.75h1zm-0.9375-0.0625h0.875v-0.625h-0.875z" style="fill:#ffffff"/><path d="m6.125 0.625v0.125h0.75v-0.0625s0.0125-0.1062-0.125-0.125c-0.1188-0.01875-0.1375 0.0375-0.2375 0.0375-0.06875 0-0.05625-0.1-0.2-0.1-0.1062 0-0.1875 0.125-0.1875 0.125z" style="fill:#ffffff"/><path d="m6.812 0.375c0 0.06906-0.05594 0.125-0.125 0.125s-0.125-0.05594-0.125-0.125c0-0.06906 0.05594-0.125 0.125-0.125s0.125 0.05594 0.125 0.125z" style="fill:#ffffff"/><path d="m7.438 0.4375v0.4375h-0.4375v-0.4438c0-0.3 0.2812-0.3375 0.2812-0.3375l0.0375 0.0875s-0.125 0.01875-0.15 0.1188c-0.025 0.075 0.025 0.1375 0.025 0.1375z" style="fill:#ffffff"/><path d="m8 0.4375v0.4375h-0.4375v-0.4438c0-0.3 0.2812-0.3375 0.2812-0.3375l0.0375 0.0875s-0.125 0.01875-0.15 0.1188c-0.025 0.075 0.025 0.1375 0.025 0.1375z" style="fill:#ffffff"/><rect x="8" width=".1562" height="1" style="fill:#ffffff"/><rect x="8.562" y=".8125" width=".1875" height=".125" style="fill:#ffffff"/><rect x="8.562" y=".5625" width=".1875" height=".125" style="fill:#ffffff"/><rect x="8.562" y=".3125" width=".1875" height=".125" style="fill:#ffffff"/><rect x="8.562" y=".0625" width=".1875" height=".125" style="fill:#ffffff"/><rect x="8.312" y=".5625" width=".1875" height=".125" style="fill:#ffffff"/><rect x="8.312" y=".0625" width=".1875" height=".125" style="fill:#ffffff"/><rect x="8.812" y=".3125" width=".1875" height=".125" style="fill:#ffffff"/><rect x="8.812" y=".0625" width=".1875" height=".125" style="fill:#ffffff"/><g transform="matrix(.0692 0 0 .0692 8.622 -.09151)" style="stroke-width:.4516"><circle transform="translate(34.1 .04834)" cx="7.5" cy="8.5" r="7" style="fill:url(#a);stroke-linecap:round;stroke-linejoin:round;stroke-width:.4516;stroke:#000000"/><ellipse transform="matrix(.05988 .8217 -1.282 .03837 48.53 -.875)" cx="8.568" cy="5.714" rx="4.854" ry="4" style="fill:url(#b)"/><path d="m36.6 8.548c0 3.312 2.24 5 5 5s5-1.688 5-5z" style="fill:#ffffff;stroke-linecap:round;stroke-linejoin:round;stroke-width:.4516;stroke:#000000"/><path d="m37.6 6.548c0-2 3-2 3 0" style="fill:none;stroke-linecap:round;stroke-linejoin:round;stroke-width:.4516;stroke:#000000"/><path d="m42.6 6.548c0-2 3-2 3 0" style="fill:none;stroke-linecap:round;stroke-linejoin:round;stroke-width:.4516;stroke:#000000"/><path d="m43.6 13.05v-4.5m-4 0v4.5" style="fill:none;stroke-linecap:round;stroke-linejoin:round;stroke-width:.4516;stroke:#000000"/></g><g transform="matrix(.0692 0 0 .0692 8.836 -.09151)" style="stroke-width:.4516"><circle transform="translate(2.098 .04834)" cx="7.5" cy="8.5" r="7" style="fill:url(#a);stroke-linecap:round;stroke-linejoin:round;stroke-width:.4516;stroke:#000000"/><ellipse transform="matrix(.05988 .8217 -1.282 .03837 16.49 -.8018)" cx="8.568" cy="5.714" rx="4.854" ry="4" style="fill:url(#b)"/><path d="m5.598 8.548c0 3 2 4 4 4 2 0 4-1 4-4" style="fill:none;stroke-linecap:round;stroke-linejoin:round;stroke-width:.4516;stroke:#000000"/><circle transform="translate(-12.9 1.048)" cx="20.5" cy="4.5" r="1" style="fill:#000000;stroke-linecap:round;stroke-linejoin:round;stroke-width:.4516;stroke:#000000"/><circle transform="translate(-8.902 1.048)" cx="20.5" cy="4.5" r="1" style="fill:#000000;stroke-linecap:round;stroke-linejoin:round;stroke-width:.4516;stroke:#000000"/></g><g transform="matrix(.0692 0 0 .0692 8.729 -.09151)" style="stroke-width:.4516"><circle transform="translate(18.1 .04834)" cx="7.5" cy="8.5" r="7" style="fill:url(#a);stroke-linecap:round;stroke-linejoin:round;stroke-width:.4516;stroke:#000000"/><ellipse transform="matrix(.05988 .8217 -1.282 .03837 32.47 -.7987)" cx="8.568" cy="5.714" rx="4.854" ry="4" style="fill:url(#b)"/><path d="m29.6 8.548h-8c0 3 2 4 4 4s4-1 4-4z" style="fill:#ffffff;stroke-linecap:round;stroke-linejoin:round;stroke-width:.4516;stroke:#000000"/><circle transform="translate(3.098 1.048)" cx="20.5" cy="4.5" r="1" style="fill:#000000;stroke-linecap:round;stroke-linejoin:round;stroke-width:.4516;stroke:#000000"/><circle transform="translate(7.098 1.048)" cx="20.5" cy="4.5" r="1" style="fill:#000000;stroke-linecap:round;stroke-linejoin:round;stroke-width:.4516;stroke:#000000"/></g><g transform="matrix(.0692 0 0 .0692 8.514 -.09151)" style="stroke-width:.4516"><circle transform="translate(50.1 .04834)" cx="7.5" cy="8.5" r="7" style="fill:url(#a);stroke-linecap:round;stroke-linejoin:round;stroke-width:.4516;stroke:#000000"/><ellipse transform="matrix(.05988 .8217 -1.282 .03837 64.38 -.7472)" cx="8.568" cy="5.714" rx="4.854" ry="4" style="fill:url(#b)"/><path d="m53.6 7.548c0 4 2 5 4 5s4-1 4-4" style="fill:none;stroke-linecap:round;stroke-linejoin:round;stroke-width:.4516;stroke:#000000"/><circle transform="translate(39.1 1.048)" cx="20.5" cy="4.5" r="1" style="fill:#000000;stroke-linecap:round;stroke-linejoin:round;stroke-width:.4516;stroke:#000000"/><path d="m56.6 5.548h-2" style="fill:#ecf3f7;stroke-linecap:round;stroke-linejoin:round;stroke-width:.4516;stroke:#000000"/></g><g transform="matrix(.0692 0 0 .0692 11.62 -1.199)" style="stroke-width:.4516"><circle transform="translate(34.1 16.05)" cx="7.5" cy="8.5" r="7" style="fill:url(#a);stroke-linecap:round;stroke-linejoin:round;stroke-width:.4516;stroke:#000000"/><ellipse transform="matrix(.05988 .8217 -1.282 .03837 48.4 15.23)" cx="8.568" cy="5.714" rx="4.854" ry="4" style="fill:url(#b)"/><path d="m37.6 27.55c0-2 2-3 4-3s4 1 4 3" style="fill:none;stroke-linecap:round;stroke-linejoin:round;stroke-width:.4516;stroke:#000000"/><circle transform="translate(19.1 17.05)" cx="20.5" cy="4.5" r="1" style="fill:#000000;stroke-linecap:round;stroke-linejoin:round;stroke-width:.4516;stroke:#000000"/><circle transform="translate(23.1 17.05)" cx="20.5" cy="4.5" r="1" style="fill:#000000;stroke-linecap:round;stroke-linejoin:round;stroke-width:.4516;stroke:#000000"/></g><g transform="matrix(.0692 0 0 .0692 12.84 -1.199)" style="stroke-width:.4516"><circle transform="translate(2.098 16.05)" cx="7.5" cy="8.5" r="7" style="fill:url(#a);stroke-linecap:round;stroke-linejoin:round;stroke-width:.4516;stroke:#000000"/><ellipse transform="matrix(.05988 .8217 -1.282 .03837 16.45 15.36)" cx="8.568" cy="5.714" rx="4.854" ry="4" style="fill:url(#b)"/><circle transform="translate(-12.9 17.05)" cx="20.5" cy="4.5" r="1" style="fill:#000000;stroke-linecap:round;stroke-linejoin:round;stroke-width:.4516;stroke:#000000"/><circle transform="translate(-8.902 17.05)" cx="20.5" cy="4.5" r="1" style="fill:#000000;stroke-linecap:round;stroke-linejoin:round;stroke-width:.4516;stroke:#000000"/><path d="m8.598 25.55v3c0 1 4 1 4 0v-3" style="fill:#fda7ff;stroke-linecap:round;stroke-linejoin:round;stroke-width:.4516;stroke:#6b1a6f"/><path d="m10.6 25.55v2" style="fill:none;stroke-linecap:round;stroke-linejoin:round;stroke-width:.4516;stroke:#6b1a6f"/><path d="m5.598 25.55h8" style="fill:none;stroke-linecap:round;stroke-linejoin:round;stroke-width:.4516;stroke:#000000"/></g><g transform="matrix(.0692 0 0 .0692 11.41 -1.199)" style="stroke-width:.4516"><circle transform="translate(66.1 16.05)" cx="7.5" cy="8.5" r="7" style="fill:url(#a);stroke-linecap:round;stroke-linejoin:round;stroke-width:.4516;stroke:#000000"/><ellipse transform="matrix(.05988 .8217 -1.282 .03837 80.48 15.1)" cx="8.568" cy="5.714" rx="4.854" ry="4" style="fill:url(#b)"/><path d="m69.6 27.55c0-1 2-2 4-2s4 1 4 2" style="fill:none;stroke-linecap:round;stroke-linejoin:round;stroke-width:.4516;stroke:#000000"/><path d="m70.6 19.55 3 1" style="fill:#ffffff;stroke-linecap:round;stroke-linejoin:round;stroke-width:.4516;stroke:#000000"/><path d="m73.6 20.55 3-1" style="fill:#ffffff;stroke-linecap:round;stroke-linejoin:round;stroke-width:.4516;stroke:#000000"/><circle transform="translate(51.1 18.05)" cx="20.5" cy="4.5" r="1" style="fill:#000000;stroke-linecap:round;stroke-linejoin:round;stroke-width:.4516;stroke:#000000"/><circle transform="translate(55.1 18.05)" cx="20.5" cy="4.5" r="1" style="fill:#000000;stroke-linecap:round;stroke-linejoin:round;stroke-width:.4516;stroke:#000000"/></g><g transform="matrix(.0692 0 0 .0692 11.51 -1.199)" style="stroke-width:.4516"><circle transform="translate(50.1 16.05)" cx="7.5" cy="8.5" r="7" style="fill:url(#a);stroke-linecap:round;stroke-linejoin:round;stroke-width:.4516;stroke:#000000"/><ellipse transform="matrix(.05988 .8217 -1.282 .03837 64.51 15.36)" cx="8.568" cy="5.714" rx="4.854" ry="4" style="fill:url(#b)"/><path d="m61.6 23.55c0-1-0.9375-1-1.938-1" style="fill:none;stroke-linecap:round;stroke-linejoin:round;stroke-width:.9032;stroke:#00cfff"/><path d="m60.6 20.55-2 2h3" style="fill:none;stroke-linecap:round;stroke-linejoin:round;stroke-width:.4516;stroke:#000000"/><path d="m55.66 22.55c-1 0-2.062 0-2.062 1" style="fill:none;stroke-linecap:round;stroke-linejoin:round;stroke-width:.9032;stroke:#00cfff"/><path d="m54.6 20.55 2 2h-3" style="fill:none;stroke-linecap:round;stroke-linejoin:round;stroke-width:.4516;stroke:#000000"/><path d="m54.6 24.55c-1 1-1 3 0 4 2-1 4-1 6 0 1-1 1-3 0-4-2 1-4 1-6 0z" style="fill:#ffffff;stroke-linecap:round;stroke-linejoin:round;stroke-width:.4516;stroke:#000000"/></g></svg>
