<?xml version="1.0" encoding="UTF-8"?>
<svg width="512" height="32" version="1.1" viewBox="0 0 16 1" xmlns="http://www.w3.org/2000/svg"><path d="m.69.47s.13-.05.13-.22c0-.26-.32-.24-.44-.24h-.25v1h.25c.23 0 .5 0 .5-.27 0-.24-.19-.26-.19-.26zm-.12-.19c0 .11-.094.1-.19.1v-.19c.11 0 .19.0062.19.087zm-.19.54v-.25c.11 0 .25-.019.25.14 0 .12-.16.11-.25.11z" style="fill:#ffffff"/><path d="m1.5 0h.19l-.19 1h-.19z" style="fill:#ffffff"/><path d="m2.1.94h.74v.062h-.74z" style="fill:#ffffff"/><path d="m2.7 0v.52c0 .094-.068.16-.16.16h-.05c-.093 0-.16-.069-.16-.16v-.52h-.19v.52c0 .19.15.35.35.35h.056c.19 0 .35-.16.35-.35v-.52z" style="fill:#ffffff"/><path d="m3.7.44c-.031-.019-.062-.031-.088-.044-.12-.056-.13-.068-.12-.12.0062-.05.025-.062.038-.075.056-.031.18-.0062.22.012l.069-.17c-.025-.012-.23-.087-.38 0-.05.031-.12.093-.13.21-.012.081.0062.14.044.19h-.3v.062h1v-.062z" style="fill:#ffffff"/><path d="m3.5.56s.0062 0 .0062.0062c.12.056.15.075.14.16-.012.056-.031.068-.05.081-.069.037-.21 0-.28-.031l-.075.16c.019.0062.14.062.28.062.056 0 .11-.012.16-.037.056-.031.12-.087.15-.21.012-.081 0-.14-.025-.19h-.31z" style="fill:#ffffff"/><path d="m4.1.19c.012.081.025.1.025.18 0 .05-.094.094-.094.094v.062s.094.044.094.094c0 .081-.012.1-.025.18-.019.13.05.19.11.19h.13v-.12s-.11.012-.11-.062c0-.056.012-.056.025-.18.0062-.056-.031-.1-.069-.13.038-.031.075-.069.069-.12-.019-.12-.025-.12-.025-.18 0-.075.11-.069.11-.069v-.12h-.13c-.069 0-.13.062-.11.19z" style="fill:#ffffff"/><path d="m4.9.19c-.012.081-.025.1-.025.18 0 .05.094.094.094.094v.062s-.094.044-.094.094c0 .081.012.1.025.18.019.13-.05.19-.11.19h-.13v-.12s.11.012.11-.062c0-.056-.012-.056-.025-.18-.0062-.056.031-.1.069-.13-.038-.031-.075-.069-.069-.12.012-.12.025-.12.025-.18 0-.075-.11-.069-.11-.069v-.12h.13c.069 0 .13.062.11.19z" style="fill:#ffffff"/><path d="m5.9.066c-.088-.088-.23-.088-.32 0l-.28.27c-.088.094-.088.23 0 .33.0063.0063.019.013.025.019l.094-.094c-.0063-.0063-.019-.013-.025-.019-.038-.038-.038-.1 0-.14l.28-.28c.038-.038.1-.038.14 0 .038.038.038.1 0 .14l-.081.082c.025.05.031.11.025.16l.14-.14c.094-.088.094-.23-4e-7-.32z" style="fill:#ffffff"/><path d="m5.6.32-.094.094s.019.013.025.019c.038.038.038.1 0 .14l-.28.28c-.038.038-.1.038-.14 0-.038-.038-.038-.1 0-.14l.081-.082c-.025-.05-.0063-.082-.025-.16l-.14.14c-.088.088-.088.23 0 .32.088.088.23.088.32 0l.28-.28c.088-.088.088-.23 0-.32-.013-.0063-.025-.019-.025-.019z" style="fill:#ffffff"/><path d="m7 .88h-1v-.75h1zm-.94-.062h.88v-.62h-.88z" style="fill:#ffffff"/><path d="m6.1.62v.12h.75v-.062s.012-.11-.12-.12c-.12-.019-.14.038-.24.038-.069 0-.056-.1-.2-.1-.11 0-.19.12-.19.12z" style="fill:#ffffff"/><path d="m6.8.38c0 .069-.056.12-.12.12s-.12-.056-.12-.12c0-.069.056-.12.12-.12s.12.056.12.12z" style="fill:#ffffff"/><path d="m7.4.44v.44h-.44v-.44c0-.3.28-.34.28-.34l.038.088s-.12.019-.15.12c-.025.075.025.14.025.14z" style="fill:#ffffff"/><path d="m8 .44v.44h-.44v-.44c0-.3.28-.34.28-.34l.038.088s-.12.019-.15.12c-.025.075.025.14.025.14z" style="fill:#ffffff"/><rect x="8" width=".16" height="1" style="fill:#ffffff"/><rect x="8.6" y=".81" width=".19" height=".12" style="fill:#ffffff"/><rect x="8.6" y=".56" width=".19" height=".12" style="fill:#ffffff"/><rect x="8.6" y=".31" width=".19" height=".12" style="fill:#ffffff"/><rect x="8.6" y=".062" width=".19" height=".12" style="fill:#ffffff"/><rect x="8.3" y=".56" width=".19" height=".12" style="fill:#ffffff"/><rect x="8.3" y=".062" width=".19" height=".12" style="fill:#ffffff"/><rect x="8.8" y=".31" width=".19" height=".12" style="fill:#ffffff"/><rect x="8.8" y=".062" width=".19" height=".12" style="fill:#ffffff"/></svg>
