<?xml version="1.0" encoding="UTF-8" standalone="no"?>
<!-- Generator: Adobe Illustrator 19.0.0, SVG Export Plug-In . SVG Version: 6.00 Build 0)  -->

<svg
   xmlns:dc="http://purl.org/dc/elements/1.1/"
   xmlns:cc="http://creativecommons.org/ns#"
   xmlns:rdf="http://www.w3.org/1999/02/22-rdf-syntax-ns#"
   xmlns:svg="http://www.w3.org/2000/svg"
   xmlns="http://www.w3.org/2000/svg"
   xmlns:sodipodi="http://sodipodi.sourceforge.net/DTD/sodipodi-0.dtd"
   xmlns:inkscape="http://www.inkscape.org/namespaces/inkscape"
   version="1.1"
   id="Capa_1"
   x="0px"
   y="0px"
   viewBox="0 0 479.99999 479.99999"
   xml:space="preserve"
   sodipodi:docname="anon.svg"
   width="480"
   height="480"
   inkscape:export-filename="/work/asmwork/ProjAsmBoard/www/templates/Modern/_images/anon.png"
   inkscape:export-xdpi="35.463509"
   inkscape:export-ydpi="35.463509"
   inkscape:version="0.92.4 5da689c313, 2019-01-14"><metadata
   id="metadata55"><rdf:RDF><cc:Work
       rdf:about=""><dc:format>image/svg+xml</dc:format><dc:type
         rdf:resource="http://purl.org/dc/dcmitype/StillImage" /><dc:title></dc:title></cc:Work></rdf:RDF></metadata><defs
   id="defs53" /><sodipodi:namedview
   pagecolor="#ffffff"
   bordercolor="#666666"
   borderopacity="1"
   objecttolerance="10"
   gridtolerance="10"
   guidetolerance="10"
   inkscape:pageopacity="0"
   inkscape:pageshadow="2"
   inkscape:window-width="1366"
   inkscape:window-height="746"
   id="namedview51"
   showgrid="false"
   inkscape:zoom="0.68110256"
   inkscape:cx="-127.73407"
   inkscape:cy="173.2485"
   inkscape:window-x="0"
   inkscape:window-y="0"
   inkscape:window-maximized="1"
   inkscape:current-layer="Capa_1" />



















<g
   id="g886"
   transform="translate(66.751,-66.751433)"><path
     inkscape:connector-curvature="0"
     id="path2"
     d="m 167.249,204.47299 c 0,0 4.4,-35.6 21.6,-49.6 17.2,-14 29.2,-15.2 29.2,-15.2 l 19.2,20.4 c 0,0 -49.6,15.2 -52.8,61.2 -2.8,46.4 -17.2,-16.8 -17.2,-16.8 z"
     style="fill:#68aa00" /><path
     inkscape:connector-curvature="0"
     id="path4"
     d="m 339.249,278.47299 c 14.8,45.2 5.6,99.2 -24.8,140.8 -11.6,16.4 -25.6,29.2 -40.4,37.6 -14.8,8.8 -30.4,13.2 -46,13.2 -8,0 -16.4,-1.2 -24.4,-4 l -2.8,-0.8 -2.4,1.6 c -14.4,9.6 -34,9.2 -48.4,-0.8 l -2.4,-1.6 -2.8,0.8 c -8.8,3.2 -17.6,4.8 -26.8,4.8 -31.2,0 -62.8,-18.8 -86.4,-51.2 -30,-41.6 -39.6,-95.6 -24.8,-140.8 18.8,-55.2 60.8,-67.2 92.8,-67.2 25.2,0 45.2,7.2 45.6,7.2 l 2.8,0.8 2.4,-1.6 c 14.4,-10 34,-10.4 48.4,-0.8 l 2.4,1.6 2.4,-0.8 c 6.4,-2 22.8,-6.4 42.8,-6.4 32.4,0 74.4,12 92.8,67.6 z"
     style="fill:#f27503" /><path
     inkscape:connector-curvature="0"
     id="path6"
     d="m 79.249,270.47299 73.2,30.8 c -0.4,0.4 -48.4,48.4 -73.2,-30.8 z"
     style="fill:#231f20" /><g
     transform="translate(0,133.50299)"
     id="g12">
	<path
   inkscape:connector-curvature="0"
   id="path8"
   d="m 198.849,333.77 2.4,-1.6 c -1.2,0.8 -2,1.2 -3.2,2 0.4,0 0.8,-0.4 0.8,-0.4 z"
   style="fill:#d35c02" />
	<path
   inkscape:connector-curvature="0"
   id="path10"
   d="m 201.249,332.17 2.8,0.8 c 8,2.4 16,4 24.4,4 15.6,0 31.6,-4.8 46,-13.2 14.8,-8.8 28.4,-21.6 40.4,-37.6 30,-41.6 39.6,-95.6 24.8,-140.8 -18.8,-56 -60.8,-68 -92.8,-68 -20,0 -36.8,4.4 -42.8,6.4 l -2.8,0.8 c 0,0 47.2,16.8 70.4,52.4 27.2,41.6 42.8,148.8 -70.4,195.2 z"
   style="fill:#d35c02" />
</g><g
     transform="translate(0,133.50299)"
     id="g18">
	<polygon
   id="polygon14"
   points="88.849,224.97 102.849,210.57 147.249,239.77 173.249,218.17 199.249,239.77 243.649,210.57 257.249,224.97 302.049,196.57 257.249,264.97 243.649,250.57 199.249,279.77 173.249,258.17 147.249,279.77 102.849,250.57 88.849,264.97 44.449,196.57 "
   style="fill:#231f20" />
	<path
   inkscape:connector-curvature="0"
   id="path16"
   d="m 271.649,136.97 -73.2,30.8 c 0,0.4 48.4,48.4 73.2,-30.8 z"
   style="fill:#231f20" />
</g><g
     transform="translate(0,133.50299)"
     id="g20">
</g><g
     transform="translate(0,133.50299)"
     id="g22">
</g><g
     transform="translate(0,133.50299)"
     id="g24">
</g><g
     transform="translate(0,133.50299)"
     id="g26">
</g><g
     transform="translate(0,133.50299)"
     id="g28">
</g><g
     transform="translate(0,133.50299)"
     id="g30">
</g><g
     transform="translate(0,133.50299)"
     id="g32">
</g><g
     transform="translate(0,133.50299)"
     id="g34">
</g><g
     transform="translate(0,133.50299)"
     id="g36">
</g><g
     transform="translate(0,133.50299)"
     id="g38">
</g><g
     transform="translate(0,133.50299)"
     id="g40">
</g><g
     transform="translate(0,133.50299)"
     id="g42">
</g><g
     transform="translate(0,133.50299)"
     id="g44">
</g><g
     transform="translate(0,133.50299)"
     id="g46">
</g><g
     transform="translate(0,133.50299)"
     id="g48">
</g></g>
</svg>