<?xml version="1.0" encoding="UTF-8"?>
<svg width="32" height="32" version="1.1" viewBox="0 0 30.61 30.61" xml:space="preserve" xmlns="http://www.w3.org/2000/svg">
<path d="m7.408 5.031h15.79c1.454 0 2.626-1.119 2.626-2.506 0-1.412-1.172-2.525-2.626-2.525h-15.79c-1.454 0-2.626 1.119-2.626 2.506s1.179 2.525 2.626 2.525z" style="fill:#606060"/><path d="m23.2 25.59h-15.8c-1.454 0-2.626 1.119-2.626 2.506s1.172 2.506 2.626 2.506h15.79c1.454 0 2.626-1.119 2.626-2.506 0-1.362-1.172-2.506-2.62-2.506z" style="fill:#606060"/><path d="m23.02 6.706v-0.4625h-15.4v0.4625c0 3.938 2.089 7.319 5.043 8.606-2.954 1.288-5.069 4.644-5.069 8.606v0.4625h15.38v-0.4625c0-3.938-2.089-7.319-5.043-8.606 2.98-1.288 5.089-4.644 5.089-8.606z" style="fill:#105289"/>
</svg>
