<?xml version="1.0" encoding="UTF-8" standalone="no"?>
<svg xmlns:rdf="http://www.w3.org/1999/02/22-rdf-syntax-ns#" xmlns="http://www.w3.org/2000/svg" xml:space="preserve" viewBox="0 0 16.795313 16.795313" height="32" width="32" version="1.1" y="0px" x="0px" xmlns:cc="http://creativecommons.org/ns#" xmlns:dc="http://purl.org/dc/elements/1.1/"><metadata><rdf:RDF><cc:Work rdf:about=""><dc:format>image/svg+xml</dc:format><dc:type rdf:resource="http://purl.org/dc/dcmitype/StillImage"/><dc:title/></cc:Work></rdf:RDF></metadata><g id="Edit" transform="matrix(.0625 0 0 .0625 -.00593 -.0000623)"><path d="m161 56.3c-7.04-7.05-18.5-7.05-25.5 0l-6.37 6.38-89.2 89.3 0.023 0.023-2.81 2.82s-8.97 9.03-29.2 74.4l-0.426 1.37c-0.361 1.17-0.726 2.36-1.09 3.57-0.326 1.07-0.656 2.15-0.987 3.25l-0.839 2.78c-0.642 2.14-1.29 4.32-1.96 6.57-1.46 4.94-5.01 16.1-0.99 20.1 3.87 3.88 15.1 0.467 20-0.993 2.23-0.662 4.4-1.31 6.52-1.95 0.981-0.296 1.93-0.586 2.89-0.878 1.03-0.314 2.06-0.626 3.06-0.935 1.27-0.39 2.52-0.775 3.75-1.16 0.367-0.114 0.727-0.227 1.09-0.34 62.2-19.4 73.4-28.5 74.3-29.3 0.007-0.005 0.007-0.005 0.012-0.01 0.039-0.036 0.066-0.06 0.066-0.06l2.88-2.89 0.193 0.193 89.2-89.3-0.001-0.001 6.37-6.38c7.04-7.05 7.04-18.5 0-25.5l-51-51zm-58 163c-0.078 0.053-0.184 0.122-0.296 0.193-0.062 0.04-0.137 0.087-0.211 0.133-0.075 0.047-0.157 0.098-0.244 0.151-0.077 0.047-0.157 0.095-0.243 0.147-2.97 1.78-11.7 6.36-32.8 14-2.47 0.894-5.16 1.84-7.98 2.82l-30.1-30.1c0.98-2.84 1.93-5.55 2.83-8.04 7.64-21.2 12.2-30 14-32.9 0.043-0.071 0.082-0.136 0.121-0.2 0.062-0.102 0.12-0.197 0.174-0.284 0.043-0.069 0.088-0.141 0.126-0.2 0.071-0.111 0.14-0.217 0.193-0.296l2.2-2.21 54.5 54.5-2.25 2.26zm160-163-51-51c-7.04-7.05-18.5-7.05-25.5 0l-12 12.7c-7.04 7.05-7.04 18.5 0 25.5l51 51c7.04 7.05 18.5 7.05 25.5 0l12.7-12.8c7.04-7.05 7.04-18.5 0-25.5z" fill-rule="evenodd" clip-rule="evenodd" fill="#606060"/></g></svg>
