<?xml version="1.0" encoding="UTF-8" standalone="no"?>
<svg
   xmlns:dc="http://purl.org/dc/elements/1.1/"
   xmlns:cc="http://creativecommons.org/ns#"
   xmlns:rdf="http://www.w3.org/1999/02/22-rdf-syntax-ns#"
   xmlns:svg="http://www.w3.org/2000/svg"
   xmlns="http://www.w3.org/2000/svg"
   xmlns:sodipodi="http://sodipodi.sourceforge.net/DTD/sodipodi-0.dtd"
   xmlns:inkscape="http://www.inkscape.org/namespaces/inkscape"
   xml:space="preserve"
   viewBox="0 0 15.644562 15.644562"
   height="32"
   width="32"
   version="1.1"
   y="0px"
   x="0px"
   id="svg2"
   inkscape:version="0.91 r13725"
   sodipodi:docname="search.svg"><metadata
     id="metadata11"><rdf:RDF><cc:Work
         rdf:about=""><dc:format>image/svg+xml</dc:format><dc:type
           rdf:resource="http://purl.org/dc/dcmitype/StillImage" /><dc:title></dc:title></cc:Work></rdf:RDF></metadata><defs
     id="defs9" /><sodipodi:namedview
     pagecolor="#404040"
     bordercolor="#666666"
     borderopacity="1"
     objecttolerance="10"
     gridtolerance="10"
     guidetolerance="10"
     inkscape:pageopacity="1"
     inkscape:pageshadow="2"
     inkscape:window-width="640"
     inkscape:window-height="480"
     id="namedview7"
     showgrid="false"
     inkscape:current-layer="svg2" /><g
     id="Search"
     fill="#fff"
     transform="matrix(.0391 0 0 .0391 2.93 2.93)"><path
       d="m244 215-54.4-54.4c-0.289-0.289-0.628-0.491-0.93-0.76 10.7-16.2 16.9-35.7 16.9-56.6 0-57.9-46-104-103-104-56.9 0-103 46.1-103 103 0 56.8 46.1 103 103 103 20.9 0 40.3-6.24 56.6-16.9 0.269 0.301 0.47 0.64 0.759 0.929l54.4 54.4c8.17 8.17 21.4 8.17 29.6 0 8.17-8.17 8.17-21.4 0-29.6zm-141-45c-37.1 0-67.2-30.1-67.2-67.2s30.1-67.2 67.2-67.2 67.2 30.1 67.2 67.2-30.1 67.2-67.2 67.2z"
       fill-rule="evenodd"
       clip-rule="evenodd"
       fill="#fff"
       id="path5" /></g></svg>