<?xml version="1.0" encoding="UTF-8" standalone="no"?>
<svg xmlns:rdf="http://www.w3.org/1999/02/22-rdf-syntax-ns#" style="enable-background:new 0 0 106.058 106.059" xmlns="http://www.w3.org/2000/svg" xml:space="preserve" height="106px" viewBox="0 0 106.058 106.059" width="106px" version="1.1" y="0px" x="0px" xmlns:cc="http://creativecommons.org/ns#" xmlns:dc="http://purl.org/dc/elements/1.1/"><path d="m15.5 15.5c-20.7 20.7-20.7 54.4 0 75 20.7 20.7 54.3 20.7 75-0.004s20.7-54.3 0.002-75c-20.6-20.7-54.3-20.7-75 0zm69.3 69.3c-17.5 17.5-46 17.5-63.5 0.002s-17.5-46 0-63.5 46-17.5 63.5 0c17.2 17.5 17.2 46 0 63.5zm-31.8-27c-11.2 0-21.3 7.32-25.6 18.6-0.191 0.507-0.148 1.09 0.117 1.55s0.715 0.738 1.2 0.739l48.6 0.068h0.002c0.479 0 0.926-0.273 1.19-0.729 0.268-0.455 0.315-1.03 0.133-1.54-4.1-11.5-14.2-18.8-25.6-18.8zm-19.1 18.2l-2.47-0.003c-0.43-0.001-0.828-0.201-1.07-0.533-0.234-0.333-0.273-0.754-0.104-1.12 0.533-1.14 1.18-2.23 1.9-3.25h1.74l0.1 4.8zm30.3-12.8c2.64 1.15 5.02 2.71 7.01 4.62h-7v-4.6zm-16.9 12.8l-9.78-0.012v-4.91h9.78v4.9zm0-8.2h-9.78v-2.02c2.83-2.04 6.17-3.52 9.78-4.28v6.3zm13.3 8.2l-9.78-0.011v-4.92h9.78v4.9zm0-8.2h-9.78v-6.81c0.729-0.057 1.46-0.095 2.2-0.095 2.64 0 5.19 0.36 7.58 1.02v5.9zm13.4 8.2l-9.78-0.012v-4.94h9.78v4.9zm-10.2-29.7c-1.23-1.23-1.23-3.22 0-4.45l9.46-9.46c1.23-1.23 3.22-1.23 4.45 0s1.23 3.22-0.002 4.45l-9.46 9.46c-1.3 1.3-3.3 1.3-4.5 0zm14.1 2.4c0 2.25-1.83 4.08-4.08 4.08s-4.08-1.83-4.08-4.08c0-2.25 1.83-4.08 4.08-4.08s4.1 1.9 4.1 4.1zm-49.5-11.8c-1.23-1.23-1.23-3.22 0-4.45s3.22-1.23 4.45 0l9.46 9.46c1.23 1.23 1.23 3.22 0 4.45s-3.22 1.23-4.45 0l-9.4-9.5zm3.9 7.7c2.25 0 4.08 1.83 4.08 4.08s-1.83 4.08-4.08 4.08-4.08-1.83-4.08-4.08c0-2.2 1.8-4.1 4.1-4.1z"/></svg>
