<?xml version="1.0" encoding="iso-8859-1"?>
<!-- Generator: Adobe Illustrator 16.0.0, SVG Export Plug-In . SVG Version: 6.00 Build 0)  -->
<!DOCTYPE svg PUBLIC "-//W3C//DTD SVG 1.1//EN" "http://www.w3.org/Graphics/SVG/1.1/DTD/svg11.dtd">
<svg version="1.1" id="Capa_1" xmlns="http://www.w3.org/2000/svg" xmlns:xlink="http://www.w3.org/1999/xlink" x="0px" y="0px"
	 width="106.058px" height="106.059px" viewBox="0 0 106.058 106.059" style="enable-background:new 0 0 106.058 106.059;"
	 xml:space="preserve">
<g>
	<path d="M15.515,15.512C-5.172,36.198-5.17,69.858,15.517,90.547c20.682,20.684,54.34,20.684,75.028-0.004
		c20.686-20.685,20.684-54.342,0.002-75.024C69.857-5.172,36.199-5.172,15.515,15.512z M84.758,84.758
		c-17.494,17.494-45.963,17.496-63.456,0.002c-17.498-17.497-17.496-45.966,0-63.46C38.795,3.806,67.262,3.804,84.76,21.301
		C102.254,38.795,102.252,67.265,84.758,84.758z M52.959,57.778c-11.246,0-21.281,7.315-25.564,18.636
		c-0.191,0.507-0.148,1.09,0.117,1.551s0.715,0.738,1.197,0.739l48.639,0.068h0.002c0.479,0,0.926-0.273,1.191-0.729
		c0.268-0.455,0.315-1.033,0.133-1.54C74.539,65.129,64.445,57.778,52.959,57.778z M33.925,76.002l-2.469-0.003
		c-0.43-0.001-0.828-0.201-1.066-0.533c-0.234-0.333-0.273-0.754-0.104-1.119c0.533-1.145,1.178-2.226,1.9-3.249h1.738
		L33.925,76.002L33.925,76.002z M64.17,63.182c2.641,1.154,5.018,2.712,7.014,4.615H64.17V63.182z M47.269,76.018l-9.785-0.012
		v-4.908h9.785V76.018z M47.269,67.798h-9.785v-2.017c2.834-2.045,6.17-3.52,9.785-4.283V67.798z M60.611,76.031l-9.785-0.011
		v-4.924h9.785V76.031z M60.611,67.798h-9.785v-6.81c0.729-0.057,1.461-0.095,2.201-0.095c2.635,0,5.187,0.36,7.584,1.024V67.798z
		 M73.955,76.048l-9.784-0.012v-4.938h9.784V76.048z M63.765,46.336c-1.229-1.229-1.229-3.221,0-4.451l9.457-9.455
		c1.229-1.229,3.221-1.229,4.451,0c1.229,1.229,1.229,3.222-0.002,4.451l-9.455,9.455C66.988,47.565,64.994,47.565,63.765,46.336z
		 M77.877,48.711c0,2.254-1.826,4.08-4.078,4.08s-4.078-1.826-4.078-4.08c0-2.253,1.826-4.08,4.078-4.08
		S77.877,46.458,77.877,48.711z M28.384,36.881c-1.229-1.229-1.229-3.223,0-4.451s3.221-1.229,4.451,0l9.455,9.455
		c1.229,1.23,1.229,3.223,0,4.451s-3.223,1.229-4.451,0L28.384,36.881z M32.258,44.631c2.252,0,4.08,1.827,4.08,4.08
		c0,2.254-1.828,4.08-4.08,4.08s-4.078-1.826-4.078-4.08C28.179,46.458,30.006,44.631,32.258,44.631z"/>
</g>
<g>
</g>
<g>
</g>
<g>
</g>
<g>
</g>
<g>
</g>
<g>
</g>
<g>
</g>
<g>
</g>
<g>
</g>
<g>
</g>
<g>
</g>
<g>
</g>
<g>
</g>
<g>
</g>
<g>
</g>
</svg>
