<?xml version="1.0" encoding="UTF-8" standalone="no"?>
<svg xmlns:rdf="http://www.w3.org/1999/02/22-rdf-syntax-ns#" style="enable-background:new 0 0 106.059 106.059" xmlns="http://www.w3.org/2000/svg" xml:space="preserve" height="106px" viewBox="0 0 106.059 106.059" width="106px" version="1.1" y="0px" x="0px" xmlns:cc="http://creativecommons.org/ns#" xmlns:dc="http://purl.org/dc/elements/1.1/"><path d="m15.5 15.5c-20.7 20.7-20.7 54.4 0 75 20.7 20.7 54.3 20.7 75-0.004s20.7-54.3 0.002-75c-20.6-20.7-54.3-20.7-75 0zm69.3 69.3c-17.5 17.5-46 17.5-63.5 0.002s-17.5-46 0-63.5 46-17.5 63.5 0c17.2 17.5 17.2 46 0 63.5zm-30.7-25.4c10.1 0 19.1 5.74 22.9 14.6 0.658 1.52-0.041 3.29-1.56 3.94-1.52 0.66-3.28-0.042-3.94-1.56-2.9-6.6-9.7-10.9-17.4-10.9-7.87 0-14.7 4.32-17.5 11-0.479 1.15-1.6 1.85-2.77 1.85-0.384 0-0.773-0.074-1.15-0.23-1.53-0.636-2.26-2.39-1.62-3.92 3.7-9 12.8-14.7 23.1-14.7zm-20.9-20.7c0-3.42 2.78-6.2 6.2-6.2s6.2 2.78 6.2 6.2c0 3.43-2.78 6.2-6.2 6.2-3.4 0-6.2-2.8-6.2-6.2zm28.2 0c0-3.42 2.78-6.2 6.2-6.2s6.2 2.78 6.2 6.2c0 3.43-2.78 6.2-6.2 6.2-3.5 0-6.2-2.8-6.2-6.2zm-40.8 9.4c2.37-2.48 8.5-2.3 8.5-2.3-1.58 2.29-1.9 4.19-1.9 4.19-0.375 2.16-1.54 3.38-1.54 3.38-2.56 2.68-5.21 0.11-5.21 0.11-2.7-2.5 0.1-5.4 0.1-5.4zm0.4 15.6c1.65-1.73 5.92-1.6 5.92-1.6-1.1 1.59-1.32 2.92-1.32 2.92-0.261 1.5-1.07 2.35-1.07 2.35-1.78 1.87-3.63 0.076-3.63 0.076-1.8-1.8 0.1-3.8 0.1-3.8z"/></svg>
