<?xml version="1.0" encoding="iso-8859-1"?>
<!-- Generator: Adobe Illustrator 16.0.0, SVG Export Plug-In . SVG Version: 6.00 Build 0)  -->
<!DOCTYPE svg PUBLIC "-//W3C//DTD SVG 1.1//EN" "http://www.w3.org/Graphics/SVG/1.1/DTD/svg11.dtd">
<svg version="1.1" id="Capa_1" xmlns="http://www.w3.org/2000/svg" xmlns:xlink="http://www.w3.org/1999/xlink" x="0px" y="0px"
	 width="106.059px" height="106.059px" viewBox="0 0 106.059 106.059" style="enable-background:new 0 0 106.059 106.059;"
	 xml:space="preserve">
<g>
	<path d="M15.515,15.512C-5.172,36.198-5.17,69.858,15.517,90.547c20.682,20.684,54.341,20.684,75.027-0.004
		c20.686-20.685,20.684-54.342,0.002-75.024C69.858-5.172,36.199-5.172,15.515,15.512z M84.758,84.758
		c-17.493,17.494-45.961,17.496-63.455,0.002c-17.498-17.497-17.496-45.966,0-63.46C38.796,3.806,67.263,3.804,84.76,21.301
		C102.254,38.795,102.252,67.265,84.758,84.758z M54.091,59.371c10.084,0,19.084,5.742,22.927,14.63
		c0.658,1.521-0.041,3.286-1.563,3.943c-1.52,0.66-3.284-0.042-3.942-1.562C68.617,69.692,61.78,65.37,54.091,65.37
		c-7.869,0-14.748,4.319-17.523,11.004c-0.479,1.154-1.596,1.851-2.771,1.851c-0.384,0-0.773-0.074-1.15-0.23
		c-1.53-0.636-2.255-2.392-1.619-3.921C34.735,65.143,43.789,59.371,54.091,59.371z M33.24,38.67c0-3.423,2.777-6.201,6.201-6.201
		c3.423,0,6.199,2.777,6.199,6.201c0,3.426-2.776,6.203-6.199,6.203C36.017,44.873,33.24,42.096,33.24,38.67z M61.357,38.67
		c0-3.423,2.78-6.201,6.202-6.201c3.424,0,6.201,2.777,6.201,6.201c0,3.426-2.777,6.203-6.201,6.203
		C64.138,44.873,61.357,42.096,61.357,38.67z M20.587,48.067c2.374-2.483,8.499-2.301,8.499-2.301
		c-1.581,2.289-1.902,4.191-1.902,4.191c-0.375,2.156-1.542,3.376-1.542,3.376c-2.564,2.684-5.211,0.11-5.211,0.11
		C17.827,50.955,20.587,48.067,20.587,48.067z M20.993,63.692c1.652-1.729,5.917-1.602,5.917-1.602
		c-1.101,1.593-1.325,2.917-1.325,2.917c-0.261,1.501-1.073,2.351-1.073,2.351c-1.785,1.869-3.628,0.076-3.628,0.076
		C19.071,65.703,20.993,63.692,20.993,63.692z"/>
</g>
<g>
</g>
<g>
</g>
<g>
</g>
<g>
</g>
<g>
</g>
<g>
</g>
<g>
</g>
<g>
</g>
<g>
</g>
<g>
</g>
<g>
</g>
<g>
</g>
<g>
</g>
<g>
</g>
<g>
</g>
</svg>
