<?xml version="1.0" encoding="UTF-8" standalone="no"?>
<svg xmlns:rdf="http://www.w3.org/1999/02/22-rdf-syntax-ns#" style="enable-background:new 0 0 106.059 106.059" xmlns="http://www.w3.org/2000/svg" xml:space="preserve" height="106px" viewBox="0 0 106.059 106.059" width="106px" version="1.1" y="0px" x="0px" xmlns:cc="http://creativecommons.org/ns#" xmlns:dc="http://purl.org/dc/elements/1.1/"><path d="m90.5 15.5c-20.6-20.7-54.3-20.7-75 0s-20.7 54.4 0 75c20.7 20.7 54.3 20.7 75-0.004 20.5-20.6 20.5-54.3 0-75zm-5.7 69.3c-17.5 17.5-46 17.5-63.5 0.002s-17.5-46 0-63.5 46-17.5 63.5 0c17.2 17.5 17.2 46 0 63.5zm-6.3-23.7c0.266 0.403 0.31 0.913 0.118 1.36-4.28 9.9-14.3 16.3-25.6 16.3-11.5 0-21.6-6.43-25.7-16.4-0.184-0.443-0.135-0.949 0.132-1.35 0.266-0.397 0.713-0.637 1.19-0.637h0.002l48.6 0.061c0.6-0.1 1.1 0.2 1.3 0.6zm-45.3-22.4c0-3.42 2.78-6.2 6.2-6.2s6.2 2.78 6.2 6.2c0 3.43-2.78 6.2-6.2 6.2-3.4 0-6.2-2.8-6.2-6.2zm28.2 0c0-3.42 2.78-6.2 6.2-6.2s6.2 2.78 6.2 6.2c0 3.43-2.78 6.2-6.2 6.2s-6.2-2.8-6.2-6.2z"/></svg>
