<?xml version="1.0" encoding="UTF-8" standalone="no"?>
<svg xmlns:rdf="http://www.w3.org/1999/02/22-rdf-syntax-ns#" style="enable-background:new 0 0 106.059 106.059" xmlns="http://www.w3.org/2000/svg" xml:space="preserve" height="106px" viewBox="0 0 106.059 106.059" width="106px" version="1.1" y="0px" x="0px" xmlns:cc="http://creativecommons.org/ns#" xmlns:dc="http://purl.org/dc/elements/1.1/"><path d="m90.5 15.5c-20.6-20.7-54.3-20.7-75 0s-20.7 54.4 0 75c20.7 20.7 54.3 20.7 75-0.004 20.5-20.6 20.5-54.3 0-75zm-5.7 69.3c-17.5 17.5-46 17.5-63.5 0.002s-17.5-46 0-63.5 46-17.5 63.5 0c17.2 17.5 17.2 46 0 63.5zm-7.8-10.8c0.658 1.52-0.042 3.29-1.56 3.94-1.52 0.66-3.29-0.042-3.94-1.56-2.89-6.69-9.73-11-17.4-11-7.87 0-14.7 4.32-17.5 11-0.479 1.15-1.6 1.85-2.77 1.85-0.384 0-0.773-0.074-1.15-0.23-1.53-0.636-2.26-2.39-1.62-3.92 3.71-8.93 12.8-14.7 23.1-14.7 10.1 0 19.1 5.7 22.9 14.6zm-43.8-35.3c0-3.42 2.78-6.2 6.2-6.2s6.2 2.78 6.2 6.2c0 3.43-2.78 6.2-6.2 6.2-3.4 0-6.2-2.8-6.2-6.2zm28.2 0c0-3.42 2.78-6.2 6.2-6.2s6.2 2.78 6.2 6.2c0 3.43-2.78 6.2-6.2 6.2s-6.2-2.8-6.2-6.2z"/></svg>
