<?xml version="1.0" encoding="UTF-8" standalone="no"?>
<svg xmlns:rdf="http://www.w3.org/1999/02/22-rdf-syntax-ns#" style="enable-background:new 0 0 106.059 106.059" xmlns="http://www.w3.org/2000/svg" xml:space="preserve" height="106px" viewBox="0 0 106.059 106.059" width="106px" version="1.1" y="0px" x="0px" xmlns:cc="http://creativecommons.org/ns#" xmlns:dc="http://purl.org/dc/elements/1.1/"><path d="m90.5 15.5c-20.6-20.7-54.3-20.7-75 0s-20.7 54.4 0 75c20.7 20.7 54.3 20.7 75-0.004 20.5-20.6 20.5-54.3 0-75zm-5.7 69.3c-17.5 17.5-46 17.5-63.5 0.002s-17.5-46 0-63.5 46-17.5 63.5 0c17.2 17.5 17.2 46 0 63.5zm-51.6-46.1c0-3.42 2.78-6.2 6.2-6.2s6.2 2.78 6.2 6.2c0 3.43-2.78 6.2-6.2 6.2-3.4 0-6.2-2.8-6.2-6.2zm28.2 0c0-3.42 2.78-6.2 6.2-6.2s6.2 2.78 6.2 6.2c0 3.43-2.78 6.2-6.2 6.2s-6.2-2.8-6.2-6.2zm14.6 25.4c-3.84 8.89-12.8 14.6-22.9 14.6-10.3 0-19.4-5.77-23.1-14.7-0.636-1.53 0.089-3.28 1.62-3.92 0.376-0.155 0.766-0.229 1.15-0.229 1.18 0 2.29 0.695 2.77 1.85 2.78 6.69 9.66 11 17.5 11 7.69 0 14.5-4.32 17.4-11 0.658-1.52 2.42-2.22 3.94-1.56s2.3 2.3 1.6 3.9z"/></svg>
