<?xml version="1.0" encoding="UTF-8" standalone="no"?>
<svg xmlns:rdf="http://www.w3.org/1999/02/22-rdf-syntax-ns#" style="enable-background:new 0 0 106.058 106.059" xmlns="http://www.w3.org/2000/svg" xml:space="preserve" height="106px" viewBox="0 0 106.058 106.059" width="106px" version="1.1" y="0px" x="0px" xmlns:cc="http://creativecommons.org/ns#" xmlns:dc="http://purl.org/dc/elements/1.1/"><path d="m90.5 15.5c-20.6-20.7-54.3-20.7-75 0s-20.7 54.4 0 75c20.7 20.7 54.3 20.7 75-0.004 20.5-20.6 20.5-54.3 0-75zm-5.7 69.3c-17.5 17.5-46 17.5-63.5 0.002s-17.5-46 0-63.5 46-17.5 63.5 0c17.2 17.5 17.2 46 0 63.5zm-8.8-22.7c-2.51 5.8-7.23 10.3-13 12.7v3.94c0 5.3-4.47 9.59-9.98 9.59s-9.98-4.29-9.98-9.59v-3.93c-5.86-2.4-10.6-6.88-13-12.7-0.637-1.53 0.09-3.28 1.62-3.92 0.377-0.155 0.766-0.229 1.15-0.229 1.18 0 2.29 0.695 2.77 1.85 2.78 6.69 9.65 11 17.5 11 7.69 0 14.5-4.32 17.4-11 0.658-1.52 2.42-2.22 3.94-1.56 1.6 0.6 2.3 2.3 1.6 3.9zm-14.6-23.4c0-1.2 2.78-2.17 6.2-2.17s6.2 0.972 6.2 2.17-2.78 2.17-6.2 2.17c-3.5-0.1-6.2-1-6.2-2.2zm-28.2 0c0-3.42 2.78-6.2 6.2-6.2s6.2 2.78 6.2 6.2c0 3.43-2.78 6.2-6.2 6.2-3.4 0-6.2-2.8-6.2-6.2z"/></svg>
