<?xml version="1.0" encoding="UTF-8" standalone="no"?>
<svg xmlns:rdf="http://www.w3.org/1999/02/22-rdf-syntax-ns#" style="enable-background:new 0 0 106.059 106.059" xmlns="http://www.w3.org/2000/svg" xml:space="preserve" height="106px" viewBox="0 0 106.059 106.059" width="106px" version="1.1" y="0px" x="0px" xmlns:cc="http://creativecommons.org/ns#" xmlns:dc="http://purl.org/dc/elements/1.1/"><path d="m90.5 90.5c20.7-20.7 20.7-54.3 0.002-75-20.6-20.7-54.3-20.7-75 0s-20.7 54.4 0 75c20.7 20.5 54.4 20.5 75 0zm-37.5 5.9c-5.99-2.16-9.53-6.36-10.5-12.5-0.188-1.14-0.281-2.36-0.279-3.62 0.004-2.58 0.406-4.77 0.693-6 0.377-0.064 0.805-0.097 1.27-0.097 3.56 0 8.07 1.8 8.11 1.82 0.01 0.004 0.092 0.035 0.104 0.038 0.438 0.151 0.916 0.142 1.36-0.038 0.043-0.018 4.55-1.82 8.11-1.82 0.469 0 0.896 0.031 1.27 0.098 0.289 1.22 0.695 3.4 0.705 5.99 0.004 1.26-0.088 2.47-0.275 3.62-1 6.1-4.6 10.3-10.6 12.5zm-12.4-25.6c-0.543 0.227-0.955 0.683-1.13 1.25-0.008 0.026-0.75 2.52-0.99 6.02-3.48-2.15-5.91-5.18-7.19-9.03-0.369-1.54-0.41-3.83 0.088-4.47 0.068-0.086 0.338-0.122 0.547-0.127 0.326 0.007 0.871 0.054 1.36 0.164 2.06 1.01 9.28 4.17 19.5 4.17 6.78 0 13.5-1.4 19.9-4.14 0.996-0.244 1.91-0.244 2.05-0.07 0.5 0.643 0.459 2.93 0.102 4.43-1.29 3.88-3.72 6.92-7.19 9.06-0.242-3.54-0.984-5.99-0.99-6.01-0.174-0.569-0.584-1.02-1.13-1.25-1.01-0.421-2.23-0.635-3.63-0.635-3.39 0-7.2 1.23-8.84 1.82-1.64-0.597-5.44-1.82-8.84-1.82-1.6 0-2.8 0.2-3.8 0.6zm-19.3-49.5c17.5-17.5 46-17.5 63.5 0s17.5 46-0.002 63.5c-7.06 7.06-15.9 11.3-25.1 12.6 5.53-3.92 7.4-9.56 7.89-14.2 5.98-2.7 10-7.13 12-13.2 0.057-0.219 1.36-5.4-0.789-8.18-0.871-1.12-2.16-1.69-3.85-1.69-0.805 0-1.71 0.132-2.75 0.415-6.28 2.71-12.8 4.09-19.4 4.09-11.2 0-18.8-4.03-18.8-4.07-0.035-0.019-0.072-0.032-0.109-0.044-0.848-0.226-1.82-0.364-2.67-0.384v0.002c-0.021-0.003-0.041-0.004-0.063-0.004l-0.133-0.005c-0.047 0-0.094 0.008-0.139 0.021-1.55 0.073-2.74 0.657-3.56 1.74-2.1 2.79-0.814 7.9-0.75 8.14 1.97 6.05 6.01 10.5 12 13.2 0.484 4.63 2.36 10.3 7.89 14.2-9.3-1.3-18.1-5.5-25.2-12.5-17.5-17.5-17.5-46 0-63.5zm11.9 17.4c0-3.42 2.78-6.2 6.2-6.2s6.2 2.78 6.2 6.2c0 3.43-2.78 6.2-6.2 6.2-3.4 0-6.2-2.8-6.2-6.2zm28.2 0c0-3.42 2.78-6.2 6.2-6.2s6.2 2.78 6.2 6.2c0 3.43-2.78 6.2-6.2 6.2-3.5 0-6.2-2.8-6.2-6.2z"/></svg>
