<?xml version="1.0" encoding="UTF-8" standalone="no"?>
<svg xmlns:rdf="http://www.w3.org/1999/02/22-rdf-syntax-ns#" style="enable-background:new 0 0 106.059 106.059" xmlns="http://www.w3.org/2000/svg" xml:space="preserve" height="106px" viewBox="0 0 106.059 106.059" width="106px" version="1.1" y="0px" x="0px" xmlns:cc="http://creativecommons.org/ns#" xmlns:dc="http://purl.org/dc/elements/1.1/"><path d="m90.5 90.5c20.7-20.7 20.7-54.3 0.002-75s-54.3-20.7-75-0.007-20.7 54.4 0 75c20.7 20.5 54.4 20.5 75 0zm-69.2-69.2c17.5-17.5 46-17.5 63.5 0s17.5 46-0.002 63.5-46 17.5-63.5 0.004-17.5-46 0-63.5zm40.1 17.4c0-3.42 2.78-6.2 6.2-6.2s6.2 2.78 6.2 6.2c0 3.43-2.78 6.2-6.2 6.2-3.5 0-6.2-2.8-6.2-6.2zm-31.4 25.3c-0.636-1.53 0.089-3.28 1.62-3.92 0.376-0.155 0.766-0.229 1.15-0.229 1.18 0.002 2.29 0.696 2.77 1.85 2.78 6.68 9.66 11 17.5 11 7.69 0 14.5-4.32 17.4-11 0.658-1.52 2.42-2.22 3.94-1.56 1.52 0.658 2.22 2.42 1.56 3.94-3.84 8.89-12.8 14.6-22.9 14.6-10.3 0-19.4-5.8-23.1-14.7zm3.3-25.3c0-0.338 0.036-0.668 0.088-0.992 0.476 2.93 3.01 5.17 6.07 5.17s5.59-2.24 6.07-5.17c0.052 0.324 0.087 0.654 0.087 0.992 0 3.4-2.76 6.16-6.15 6.16-3.6 0-6.3-2.8-6.3-6.2z"/></svg>
