<?xml version="1.0" encoding="iso-8859-1"?>
<!-- Generator: Adobe Illustrator 16.0.0, SVG Export Plug-In . SVG Version: 6.00 Build 0)  -->
<!DOCTYPE svg PUBLIC "-//W3C//DTD SVG 1.1//EN" "http://www.w3.org/Graphics/SVG/1.1/DTD/svg11.dtd">
<svg version="1.1" id="Capa_1" xmlns="http://www.w3.org/2000/svg" xmlns:xlink="http://www.w3.org/1999/xlink" x="0px" y="0px"
	 width="106.059px" height="106.059px" viewBox="0 0 106.059 106.059" style="enable-background:new 0 0 106.059 106.059;"
	 xml:space="preserve">
<g>
	<path d="M90.544,90.542c20.687-20.685,20.685-54.341,0.002-75.023c-20.688-20.69-54.347-20.69-75.031-0.007
		C-5.173,36.199-5.171,69.857,15.517,90.546C36.199,111.23,69.857,111.23,90.544,90.542z M21.301,21.299
		C38.794,3.807,67.261,3.805,84.758,21.301c17.494,17.494,17.492,45.963-0.002,63.456c-17.493,17.494-45.961,17.496-63.455,0.004
		C3.803,67.262,3.806,38.793,21.301,21.299z M61.356,38.67c0-3.424,2.779-6.201,6.202-6.201c3.424,0,6.2,2.777,6.2,6.201
		c0,3.426-2.776,6.203-6.2,6.203C64.136,44.873,61.356,42.095,61.356,38.67z M30.024,63.994c-0.636-1.528,0.089-3.284,1.62-3.922
		c0.376-0.155,0.766-0.229,1.149-0.229c1.176,0.002,2.292,0.696,2.771,1.852c2.776,6.685,9.655,11.004,17.523,11.004
		c7.69,0,14.528-4.321,17.42-11.012c0.658-1.521,2.424-2.221,3.944-1.563c1.52,0.658,2.22,2.425,1.562,3.945
		c-3.843,8.887-12.843,14.629-22.927,14.629C42.788,78.697,33.734,72.926,30.024,63.994z M33.286,38.717
		c0-0.338,0.036-0.668,0.088-0.992c0.476,2.93,3.008,5.166,6.066,5.166c3.061,0,5.593-2.236,6.067-5.166
		c0.052,0.324,0.087,0.654,0.087,0.992c0,3.4-2.756,6.156-6.154,6.156C36.043,44.873,33.286,42.117,33.286,38.717z"/>
</g>
<g>
</g>
<g>
</g>
<g>
</g>
<g>
</g>
<g>
</g>
<g>
</g>
<g>
</g>
<g>
</g>
<g>
</g>
<g>
</g>
<g>
</g>
<g>
</g>
<g>
</g>
<g>
</g>
<g>
</g>
</svg>
