<?xml version="1.0" encoding="UTF-8" standalone="no"?>
<!-- Generator: Adobe Illustrator 18.1.1, SVG Export Plug-In . SVG Version: 6.00 Build 0)  -->

<svg
   xmlns:dc="http://purl.org/dc/elements/1.1/"
   xmlns:cc="http://creativecommons.org/ns#"
   xmlns:rdf="http://www.w3.org/1999/02/22-rdf-syntax-ns#"
   xmlns:svg="http://www.w3.org/2000/svg"
   xmlns="http://www.w3.org/2000/svg"
   xmlns:sodipodi="http://sodipodi.sourceforge.net/DTD/sodipodi-0.dtd"
   xmlns:inkscape="http://www.inkscape.org/namespaces/inkscape"
   version="1.1"
   id="Capa_1"
   x="0px"
   y="0px"
   viewBox="0 0 128 128"
   xml:space="preserve"
   inkscape:version="0.91 r13725"
   sodipodi:docname="anon.svg"
   width="128"
   height="128"
   inkscape:export-filename="/work/asmwork/ProjAsmBoard/www/images/anon.png"
   inkscape:export-xdpi="90"
   inkscape:export-ydpi="90"><metadata
     id="metadata40"><rdf:RDF><cc:Work
         rdf:about=""><dc:format>image/svg+xml</dc:format><dc:type
           rdf:resource="http://purl.org/dc/dcmitype/StillImage" /><dc:title></dc:title></cc:Work></rdf:RDF></metadata><defs
     id="defs38" /><sodipodi:namedview
     pagecolor="#ffffff"
     bordercolor="#666666"
     borderopacity="1"
     objecttolerance="10"
     gridtolerance="10"
     guidetolerance="10"
     inkscape:pageopacity="0"
     inkscape:pageshadow="2"
     inkscape:window-width="640"
     inkscape:window-height="480"
     id="namedview36"
     showgrid="false"
     inkscape:current-layer="Capa_1" /><path
     inkscape:connector-curvature="0"
     id="path4"
     d="m 70.521421,36.697576 c 0.677071,0.492277 2.20821,0.444005 3.087169,-0.610947 0.496552,-0.597622 4.794553,-5.105306 10.828096,-5.105306 7.747715,0 10.630732,2.592628 10.630732,2.592628 -2.755799,-4.965517 -8.708134,-5.57395 -10.43714,-5.57395 -8.415734,0 -13.218835,4.013144 -14.469139,5.716002 -1.252316,1.703109 -0.257202,2.531031 0.360282,2.981573 z M 94.37476,50.499953 c -1.079843,0 -1.125098,1.765965 -1.125098,2.249945 -5.03e-4,3.164858 -1.788089,6.248758 -3.375043,7.874933 -4.565762,4.678398 -12.042951,0.569212 -12.042951,0.569212 -1.261367,-0.509877 0.111882,0.754759 0.111882,0.754759 0.718303,0.744702 2.775158,3.035376 6.811432,3.549527 -0.186804,0.197615 -5.020829,5.251381 -5.020829,5.251381 l -4.49989,0 -4.49989,-6.749835 c -1.195495,1.581925 -2.249945,2.249945 -4.500141,2.249945 -1.234466,0 -2.636627,-0.211192 -3.621182,-1.300589 -0.924969,-1.023022 -0.878708,-2.369871 -0.878708,-3.199301 -0.0045,-3.375295 0,-11.961994 0,-13.499922 l 0,-3.867572 c 0,-1.968607 -2.210221,-3.783598 -2.210221,-3.783598 -2.623553,-1.799654 -4.480279,2.25447 -4.480279,2.25447 l -0.02866,0.02187 c -2.157674,-0.784175 -4.438795,-1.263379 -6.838083,-1.263379 -2.937826,0 -6.376478,0.323073 -8.942959,1.458983 0,-0.641369 0,-1.571115 0,-1.571115 0,-16.12448 17.393641,-5.548054 19.843463,-4.673369 2.285395,0.812836 1.823791,-1.813985 1.426047,-2.252208 -5.483943,-6.046868 -14.800258,-6.574093 -14.800258,-6.574093 -12.739632,0 -13.203248,12.475893 -13.203248,17.999811 l 0,11.700518 c 0,14.268005 18.199941,38.825819 29.509252,40.695368 -0.05481,0.02615 1.201781,0.323073 1.707132,0.689892 0.01961,0.01333 0.05255,0 0.0704,0.01106 C 64.437343,99.639214 65.256716,100 66.17716,100 c 0.894547,0 1.681236,-0.347209 2.31833,-0.857086 0,0 0.795237,-0.459342 1.964334,-0.834961 1.335787,-0.353998 3.623445,-1.742331 5.044965,-2.882766 5.768046,-4.626353 11.588386,-11.784995 15.633711,-22.106734 0,0 0.542813,-2.427949 -0.153868,-2.568492 -0.619747,-0.125458 -1.030565,0.0088 -2.704761,3.019034 -6.389804,11.490584 -15.260354,19.269978 -19.795192,19.48117 l 0,-9.000283 c 2.869692,-0.441742 7.980529,-2.713812 11.432507,-5.849253 2.249945,-2.045793 -1.788592,-1.579915 -2.432475,-1.318188 -2.757559,1.111773 -3.315709,2.6673 -11.250228,2.6673 -7.567197,0 -12.086949,-3.188239 -13.499921,-4.49989 4.183605,0 9.000031,0 9.000031,0 l 4.49989,-4.500141 4.500141,4.500141 c 0,0 5.293116,0 9.000032,0 l 8.18468,-9.716323 c 6.875293,-0.608684 7.580522,-8.573122 7.580522,-9.408586 0,-1.74032 0,-1.706881 0,-3.375044 0,-0.530744 -0.0181,-2.249945 -1.125098,-2.249945 z M 52.838901,80.178912 c 6.041588,3.801701 9.167476,3.78209 11.145637,4.070719 l 0,9.000031 C 53.324641,90.526799 52.721237,82.812522 52.838901,80.178912 Z m 3.575926,-23.60368 c -1.678722,7.424643 -10.074343,7.424643 -10.074343,7.424643 -4.981105,0 -7.105843,-2.553408 -7.105843,-9.303494 l 0,-10.009477 c 2.566481,1.138172 6.005133,2.105882 8.942959,2.105882 2.599417,0 5.06709,-0.536024 7.380895,-1.448171 0.0065,0 0.01282,0.0023 0.01282,0.0023 0.850549,0 1.324976,0.665756 1.324976,0.665756 0,0 1.388585,2.283384 -0.481467,10.562598 z M 72.444271,44.202421 c 2.992384,1.606062 6.314881,2.590617 9.867677,2.590617 3.557321,0 6.877304,-0.984304 9.872453,-2.590617 -2.995149,-1.606314 -6.315132,-2.590618 -9.872453,-2.590618 -3.553048,0 -6.875293,0.984304 -9.867677,2.590618 z"
     style="clip-rule:evenodd;fill-rule:evenodd;fill:#000000;fill-opacity:0.50196081" /><g
     id="g6"
     transform="translate(0,-158.37399)" /><g
     id="g8"
     transform="translate(0,-158.37399)" /><g
     id="g10"
     transform="translate(0,-158.37399)" /><g
     id="g12"
     transform="translate(0,-158.37399)" /><g
     id="g14"
     transform="translate(0,-158.37399)" /><g
     id="g16"
     transform="translate(0,-158.37399)" /><g
     id="g18"
     transform="translate(0,-158.37399)" /><g
     id="g20"
     transform="translate(0,-158.37399)" /><g
     id="g22"
     transform="translate(0,-158.37399)" /><g
     id="g24"
     transform="translate(0,-158.37399)" /><g
     id="g26"
     transform="translate(0,-158.37399)" /><g
     id="g28"
     transform="translate(0,-158.37399)" /><g
     id="g30"
     transform="translate(0,-158.37399)" /><g
     id="g32"
     transform="translate(0,-158.37399)" /><g
     id="g34"
     transform="translate(0,-158.37399)" /></svg>