<?xml version="1.0" encoding="UTF-8" standalone="no"?>
<!-- Generator: Adobe Illustrator 18.1.1, SVG Export Plug-In . SVG Version: 6.00 Build 0)  -->

<svg
   xmlns:dc="http://purl.org/dc/elements/1.1/"
   xmlns:cc="http://creativecommons.org/ns#"
   xmlns:rdf="http://www.w3.org/1999/02/22-rdf-syntax-ns#"
   xmlns:svg="http://www.w3.org/2000/svg"
   xmlns="http://www.w3.org/2000/svg"
   xmlns:sodipodi="http://sodipodi.sourceforge.net/DTD/sodipodi-0.dtd"
   xmlns:inkscape="http://www.inkscape.org/namespaces/inkscape"
   version="1.1"
   id="Capa_1"
   x="0px"
   y="0px"
   viewBox="0 0 20.135672 20.135672"
   xml:space="preserve"
   width="36"
   height="36"
   sodipodi:docname="anonymous-logo.svg"
   inkscape:version="0.92.1 r"><metadata
     id="metadata40"><rdf:RDF><cc:Work
         rdf:about=""><dc:format>image/svg+xml</dc:format><dc:type
           rdf:resource="http://purl.org/dc/dcmitype/StillImage" /><dc:title></dc:title></cc:Work></rdf:RDF></metadata><defs
     id="defs38" /><sodipodi:namedview
     pagecolor="#ffffff"
     bordercolor="#666666"
     borderopacity="1"
     objecttolerance="10"
     gridtolerance="10"
     guidetolerance="10"
     inkscape:pageopacity="0"
     inkscape:pageshadow="2"
     inkscape:window-width="640"
     inkscape:window-height="480"
     id="namedview36"
     showgrid="false"
     inkscape:current-layer="Capa_1" /><g
     id="Anonym__x2F__Guy_Fawkes"
     transform="scale(0.07031225)"><path
       style="clip-rule:evenodd;fill:#3f3f3f;fill-rule:evenodd"
       d="m 169.126,34.594 c 2.693,1.958 8.783,1.766 12.279,-2.43 1.975,-2.377 19.07,-20.306 43.068,-20.306 30.816,0 42.283,10.312 42.283,10.312 C 255.795,2.42 232.12,0 225.243,0 c -33.473,0 -52.577,15.962 -57.55,22.735 -4.981,6.774 -1.023,10.067 1.433,11.859 z m 94.875,54.898 c -4.295,0 -4.475,7.024 -4.475,8.949 -0.002,12.588 -7.112,24.854 -13.424,31.322 -18.16,18.608 -47.9,2.264 -47.9,2.264 -5.017,-2.028 0.445,3.002 0.445,3.002 2.857,2.962 11.038,12.073 27.092,14.118 -0.743,0.786 -19.97,20.887 -19.97,20.887 h -17.898 l -17.898,-26.847 c -4.755,6.292 -8.949,8.949 -17.899,8.949 -4.91,0 -10.487,-0.84 -14.403,-5.173 -3.679,-4.069 -3.495,-9.426 -3.495,-12.725 -0.018,-13.425 0,-47.578 0,-53.695 V 65.16 c 0,-7.83 -8.791,-15.049 -8.791,-15.049 -10.435,-7.158 -17.82,8.967 -17.82,8.967 l -0.114,0.087 C 98.869,56.046 89.796,54.14 80.253,54.14 c -11.685,0 -25.362,1.285 -35.57,5.803 0,-2.551 0,-6.249 0,-6.249 0,-64.134 69.182,-22.067 78.926,-18.588 9.09,3.233 7.254,-7.215 5.672,-8.958 C 107.469,2.097 70.414,0 70.414,0 19.743,0 17.899,49.622 17.899,71.593 v 46.538 c 0,56.75 72.389,154.427 117.371,161.863 -0.218,0.104 4.78,1.285 6.79,2.744 0.078,0.053 0.209,0 0.28,0.044 2.587,2.158 5.846,3.593 9.507,3.593 3.558,0 6.687,-1.381 9.221,-3.409 0,0 3.163,-1.827 7.813,-3.321 5.313,-1.408 14.412,-6.93 20.066,-11.466 22.942,-18.401 46.092,-46.874 62.182,-87.928 0,0 2.159,-9.657 -0.612,-10.216 -2.465,-0.499 -4.099,0.035 -10.758,12.008 -25.415,45.703 -60.697,76.645 -78.734,77.485 V 223.73 c 11.414,-1.757 31.742,-10.794 45.472,-23.265 8.949,-8.137 -7.114,-6.284 -9.675,-5.243 -10.968,4.422 -13.188,10.609 -44.747,10.609 -30.098,0 -48.075,-12.681 -53.695,-17.898 16.64,0 35.797,0 35.797,0 l 17.898,-17.899 17.899,17.899 c 0,0 21.053,0 35.797,0 l 32.554,-38.646 c 27.346,-2.421 30.151,-34.099 30.151,-37.422 0,-6.922 0,-6.789 0,-13.424 0,-2.111 -0.072,-8.949 -4.475,-8.949 z M 98.795,207.538 c 24.03,15.121 36.463,15.043 44.331,16.191 v 35.797 C 100.727,248.696 98.327,218.013 98.795,207.538 Z m 14.223,-93.882 c -6.677,29.531 -40.07,29.531 -40.07,29.531 -19.812,0 -28.263,-10.156 -28.263,-37.004 V 66.371 c 10.208,4.527 23.885,8.376 35.57,8.376 10.339,0 20.154,-2.132 29.357,-5.76 0.026,0 0.051,0.009 0.051,0.009 3.383,0 5.27,2.648 5.27,2.648 0,0 5.523,9.082 -1.915,42.012 z m 63.756,-49.212 c 11.902,6.388 25.117,10.304 39.248,10.304 14.149,0 27.354,-3.915 39.267,-10.304 -11.913,-6.389 -25.118,-10.304 -39.267,-10.304 -14.132,0 -27.346,3.915 -39.248,10.304 z"
       id="path2"
       inkscape:connector-curvature="0" /></g><g
     id="g5"
     transform="translate(0,-266.23833)" /><g
     id="g7"
     transform="translate(0,-266.23833)" /><g
     id="g9"
     transform="translate(0,-266.23833)" /><g
     id="g11"
     transform="translate(0,-266.23833)" /><g
     id="g13"
     transform="translate(0,-266.23833)" /><g
     id="g15"
     transform="translate(0,-266.23833)" /><g
     id="g17"
     transform="translate(0,-266.23833)" /><g
     id="g19"
     transform="translate(0,-266.23833)" /><g
     id="g21"
     transform="translate(0,-266.23833)" /><g
     id="g23"
     transform="translate(0,-266.23833)" /><g
     id="g25"
     transform="translate(0,-266.23833)" /><g
     id="g27"
     transform="translate(0,-266.23833)" /><g
     id="g29"
     transform="translate(0,-266.23833)" /><g
     id="g31"
     transform="translate(0,-266.23833)" /><g
     id="g33"
     transform="translate(0,-266.23833)" /></svg>