<?xml version="1.0" encoding="UTF-8" standalone="no"?>
<!-- Generator: Adobe Illustrator 18.1.1, SVG Export Plug-In . SVG Version: 6.00 Build 0)  -->

<svg
   xmlns:dc="http://purl.org/dc/elements/1.1/"
   xmlns:cc="http://creativecommons.org/ns#"
   xmlns:rdf="http://www.w3.org/1999/02/22-rdf-syntax-ns#"
   xmlns:svg="http://www.w3.org/2000/svg"
   xmlns="http://www.w3.org/2000/svg"
   xmlns:sodipodi="http://sodipodi.sourceforge.net/DTD/sodipodi-0.dtd"
   xmlns:inkscape="http://www.inkscape.org/namespaces/inkscape"
   version="1.1"
   id="Capa_1"
   x="0px"
   y="0px"
   viewBox="0 0 16.77975 16.77975"
   xml:space="preserve"
   width="32"
   height="32"
   inkscape:version="0.91 r13725"
   sodipodi:docname="del_gray.svg"><metadata
     id="metadata40"><rdf:RDF><cc:Work
         rdf:about=""><dc:format>image/svg+xml</dc:format><dc:type
           rdf:resource="http://purl.org/dc/dcmitype/StillImage" /><dc:title></dc:title></cc:Work></rdf:RDF></metadata><defs
     id="defs38" /><sodipodi:namedview
     pagecolor="#ffffff"
     bordercolor="#666666"
     borderopacity="1"
     objecttolerance="10"
     gridtolerance="10"
     guidetolerance="10"
     inkscape:pageopacity="0"
     inkscape:pageshadow="2"
     inkscape:window-width="1366"
     inkscape:window-height="744"
     id="namedview36"
     showgrid="false"
     inkscape:window-x="0"
     inkscape:window-y="0"
     inkscape:window-maximized="1"
     inkscape:current-layer="Capa_1" /><g
     id="Delete__x2F__Trash"
     transform="matrix(0.06250001,0,0,0.06250001,-9.2245716e-7,-9.2245716e-7)"><path
       style="clip-rule:evenodd;fill:#933ec5;fill-rule:evenodd"
       d="m 63.119,250.254 c 0,0 3.999,18.222 24.583,18.222 l 93.072,0 c 20.583,0 24.582,-18.222 24.582,-18.222 l 18.374,-178.66 -178.984,0 18.373,178.66 z M 170.035,98.442 c 0,-4.943 4.006,-8.949 8.949,-8.949 4.943,0 8.95,4.006 8.95,8.949 l -8.95,134.238 c 0,4.943 -4.007,8.949 -8.949,8.949 -4.942,0 -8.949,-4.007 -8.949,-8.949 l 8.949,-134.238 z m -44.746,0 c 0,-4.943 4.007,-8.949 8.949,-8.949 4.943,0 8.949,4.006 8.949,8.949 l 0,134.238 c 0,4.943 -4.006,8.949 -8.949,8.949 -4.943,0 -8.949,-4.007 -8.949,-8.949 l 0,-134.238 z m -35.797,-8.95 c 4.943,0 8.949,4.006 8.949,8.949 l 8.95,134.238 c 0,4.943 -4.007,8.949 -8.95,8.949 -4.942,0 -8.949,-4.007 -8.949,-8.949 L 80.543,98.442 c 0,-4.943 4.007,-8.95 8.949,-8.95 z m 128.868,-53.681 -39.376,0 0,-17.912 C 178.984,4.322 174.593,0 161.086,0 L 107.39,0 C 95.001,0 89.492,6.001 89.492,17.899 l 0,17.913 -39.376,0 c -7.914,0 -14.319,6.007 -14.319,13.43 0,7.424 6.405,13.431 14.319,13.431 l 168.244,0 c 7.914,0 14.319,-6.007 14.319,-13.431 0,-7.423 -6.405,-13.431 -14.319,-13.431 z m -57.274,0 -53.695,0 10e-4,-17.913 53.695,0 0,17.913 z"
       id="path4"
       inkscape:connector-curvature="0" /></g><g
     id="g6"
     transform="translate(0,-251.69628)" /><g
     id="g8"
     transform="translate(0,-251.69628)" /><g
     id="g10"
     transform="translate(0,-251.69628)" /><g
     id="g12"
     transform="translate(0,-251.69628)" /><g
     id="g14"
     transform="translate(0,-251.69628)" /><g
     id="g16"
     transform="translate(0,-251.69628)" /><g
     id="g18"
     transform="translate(0,-251.69628)" /><g
     id="g20"
     transform="translate(0,-251.69628)" /><g
     id="g22"
     transform="translate(0,-251.69628)" /><g
     id="g24"
     transform="translate(0,-251.69628)" /><g
     id="g26"
     transform="translate(0,-251.69628)" /><g
     id="g28"
     transform="translate(0,-251.69628)" /><g
     id="g30"
     transform="translate(0,-251.69628)" /><g
     id="g32"
     transform="translate(0,-251.69628)" /><g
     id="g34"
     transform="translate(0,-251.69628)" /></svg>