<?xml version="1.0" encoding="UTF-8" standalone="no"?>
<!-- Generator: Adobe Illustrator 18.1.1, SVG Export Plug-In . SVG Version: 6.00 Build 0)  -->

<svg
   xmlns:dc="http://purl.org/dc/elements/1.1/"
   xmlns:cc="http://creativecommons.org/ns#"
   xmlns:rdf="http://www.w3.org/1999/02/22-rdf-syntax-ns#"
   xmlns:svg="http://www.w3.org/2000/svg"
   xmlns="http://www.w3.org/2000/svg"
   xmlns:sodipodi="http://sodipodi.sourceforge.net/DTD/sodipodi-0.dtd"
   xmlns:inkscape="http://www.inkscape.org/namespaces/inkscape"
   version="1.1"
   id="Capa_1"
   x="0px"
   y="0px"
   viewBox="0 0 16.77975 16.77975"
   xml:space="preserve"
   width="32"
   height="32"
   inkscape:version="0.91 r13725"
   sodipodi:docname="del_white.svg"><metadata
     id="metadata40"><rdf:RDF><cc:Work
         rdf:about=""><dc:format>image/svg+xml</dc:format><dc:type
           rdf:resource="http://purl.org/dc/dcmitype/StillImage" /><dc:title></dc:title></cc:Work></rdf:RDF></metadata><defs
     id="defs38" /><sodipodi:namedview
     pagecolor="#404040"
     bordercolor="#666666"
     borderopacity="1"
     objecttolerance="10"
     gridtolerance="10"
     guidetolerance="10"
     inkscape:pageopacity="1"
     inkscape:pageshadow="2"
     inkscape:window-width="1366"
     inkscape:window-height="744"
     id="namedview36"
     showgrid="false"
     inkscape:window-x="0"
     inkscape:window-y="0"
     inkscape:window-maximized="1"
     inkscape:current-layer="Capa_1" /><path
     inkscape:connector-curvature="0"
     id="path4"
     d="m 5.6117892,12.921751 c 0,0 0.156211,0.711797 0.9602736,0.711797 l 3.6356252,0 c 0.804024,0 0.960234,-0.711797 0.960234,-0.711797 l 0.717735,-6.9789071 -6.9915631,0 0.7176953,6.9789071 z M 9.7881957,6.9915939 c 0,-0.1930859 0.1564844,-0.3495702 0.3495703,-0.3495702 0.193086,0 0.34961,0.1564843 0.34961,0.3495702 l -0.34961,5.2436721 c 0,0.193086 -0.1565234,0.349571 -0.3495703,0.349571 -0.1930468,0 -0.34957,-0.156524 -0.34957,-0.349571 l 0.34957,-5.2436721 z m -1.7478906,0 c 0,-0.1930859 0.1565235,-0.3495702 0.3495703,-0.3495702 0.193086,0 0.3495704,0.1564843 0.3495704,0.3495702 l 0,5.2436721 c 0,0.193086 -0.1564844,0.349571 -0.3495704,0.349571 -0.1930859,0 -0.3495703,-0.156524 -0.3495703,-0.349571 l 0,-5.2436721 z M 6.6419847,6.6419846 c 0.1930859,0 0.3495703,0.1564844 0.3495703,0.3495703 l 0.3496094,5.2436721 c 0,0.193086 -0.1565234,0.34957 -0.3496094,0.34957 -0.1930469,0 -0.3495703,-0.156523 -0.3495703,-0.34957 L 6.2924143,6.9915939 c 0,-0.1930859 0.1565235,-0.3496093 0.3495704,-0.3496093 z m 5.0339063,-2.0969143 -1.538125,0 0,-0.6996875 c 0,-0.5303517 -0.1715234,-0.6991798 -0.6991403,-0.6991798 l -2.0975003,0 c -0.4839454,0 -0.6991407,0.2344141 -0.6991407,0.6991798 l 0,0.6997266 -1.5381252,0 c -0.3091406,0 -0.559336,0.2346484 -0.559336,0.5246094 0,0.29 0.2501954,0.5246485 0.559336,0.5246485 l 6.5720315,0 c 0.309141,0 0.559336,-0.2346485 0.559336,-0.5246485 0,-0.289961 -0.250195,-0.5246485 -0.559336,-0.5246485 z m -2.2372653,0 -2.0974613,0 3.91e-5,-0.6997266 2.097461,0 0,0.6997266 z"
     style="clip-rule:evenodd;fill:#ffffff;fill-opacity:1;fill-rule:evenodd" /><g
     id="g6"
     transform="translate(0,-251.69628)" /><g
     id="g8"
     transform="translate(0,-251.69628)" /><g
     id="g10"
     transform="translate(0,-251.69628)" /><g
     id="g12"
     transform="translate(0,-251.69628)" /><g
     id="g14"
     transform="translate(0,-251.69628)" /><g
     id="g16"
     transform="translate(0,-251.69628)" /><g
     id="g18"
     transform="translate(0,-251.69628)" /><g
     id="g20"
     transform="translate(0,-251.69628)" /><g
     id="g22"
     transform="translate(0,-251.69628)" /><g
     id="g24"
     transform="translate(0,-251.69628)" /><g
     id="g26"
     transform="translate(0,-251.69628)" /><g
     id="g28"
     transform="translate(0,-251.69628)" /><g
     id="g30"
     transform="translate(0,-251.69628)" /><g
     id="g32"
     transform="translate(0,-251.69628)" /><g
     id="g34"
     transform="translate(0,-251.69628)" /></svg>