<?xml version="1.0" encoding="UTF-8" standalone="no"?>
<!-- Generator: Adobe Illustrator 18.1.1, SVG Export Plug-In . SVG Version: 6.00 Build 0)  -->

<svg
   xmlns:dc="http://purl.org/dc/elements/1.1/"
   xmlns:cc="http://creativecommons.org/ns#"
   xmlns:rdf="http://www.w3.org/1999/02/22-rdf-syntax-ns#"
   xmlns:svg="http://www.w3.org/2000/svg"
   xmlns="http://www.w3.org/2000/svg"
   xmlns:sodipodi="http://sodipodi.sourceforge.net/DTD/sodipodi-0.dtd"
   xmlns:inkscape="http://www.inkscape.org/namespaces/inkscape"
   version="1.1"
   id="Capa_1"
   x="0px"
   y="0px"
   viewBox="0 0 15.10375 15.10375"
   xml:space="preserve"
   width="32"
   height="32"
   sodipodi:docname="dislike-thumb.svg"
   inkscape:version="0.92.1 r"><metadata
     id="metadata40"><rdf:RDF><cc:Work
         rdf:about=""><dc:format>image/svg+xml</dc:format><dc:type
           rdf:resource="http://purl.org/dc/dcmitype/StillImage" /><dc:title></dc:title></cc:Work></rdf:RDF></metadata><defs
     id="defs38" /><sodipodi:namedview
     pagecolor="#ffffff"
     bordercolor="#666666"
     borderopacity="1"
     objecttolerance="10"
     gridtolerance="10"
     guidetolerance="10"
     inkscape:pageopacity="0"
     inkscape:pageshadow="2"
     inkscape:window-width="640"
     inkscape:window-height="480"
     id="namedview36"
     showgrid="false"
     inkscape:current-layer="Capa_1" /><g
     id="Dislike_2"
     transform="matrix(0.0625,0,0,0.0625,3.499173e-5,0)"><path
       style="clip-rule:evenodd;fill:#d80027;fill-rule:evenodd"
       d="m 210.323,17.93 h -17.898 c -9.01,0 -16.066,-5.165 -26.848,-8.949 C 150.811,3.865 128.756,0.025 90.766,0.025 84.122,0.025 63.516,0 63.516,0 57.207,0 52.139,2.882 48.481,6.363 c -1.392,1.323 -2.844,3.245 -3.465,6.994 -0.101,0.582 -0.21,3.017 -0.193,3.346 -0.478,10.729 6.008,14.614 9.682,15.835 -0.101,0.034 -0.033,0.126 -0.235,0.117 L 42.608,32.133 c -10.352,-0.472 -20.572,6.986 -20.572,19.669 0,10.517 8.524,17.933 18.844,18.439 l -6.184,-0.287 c -10.352,-0.455 -19.103,7.695 -19.582,18.22 -0.453,10.526 7.567,19.433 17.913,19.906 -10.345,-0.472 -19.121,7.677 -19.573,18.203 -0.454,10.526 6.821,19.99 17.174,20.444 l 68.73,8.63 c 0,0 -14.324,23.959 -14.324,59.455 0,23.664 16.905,26.848 26.848,26.848 7.821,0.002 9.927,-15.151 9.927,-15.151 h 0.016 c 1.77,-9.717 4.077,-18.203 12.091,-33.827 8.968,-17.512 21.184,-15.869 35.446,-31.467 2.517,-2.747 5.898,-7.281 9.195,-12.86 0.269,-0.295 0.521,-0.708 0.764,-1.289 0.293,-0.69 0.646,-1.172 0.956,-1.812 0.545,-1.003 1.082,-2.005 1.61,-3.059 8.826,-8.827 22.579,-7.925 28.435,-7.925 11.746,0 17.898,-6.825 17.898,-17.898 l 0.005,-81.828 C 228.227,22.121 223.143,17.93 210.323,17.93 Z"
       id="path2"
       inkscape:connector-curvature="0" /></g><g
     id="g5"
     transform="translate(0,-226.55625)" /><g
     id="g7"
     transform="translate(0,-226.55625)" /><g
     id="g9"
     transform="translate(0,-226.55625)" /><g
     id="g11"
     transform="translate(0,-226.55625)" /><g
     id="g13"
     transform="translate(0,-226.55625)" /><g
     id="g15"
     transform="translate(0,-226.55625)" /><g
     id="g17"
     transform="translate(0,-226.55625)" /><g
     id="g19"
     transform="translate(0,-226.55625)" /><g
     id="g21"
     transform="translate(0,-226.55625)" /><g
     id="g23"
     transform="translate(0,-226.55625)" /><g
     id="g25"
     transform="translate(0,-226.55625)" /><g
     id="g27"
     transform="translate(0,-226.55625)" /><g
     id="g29"
     transform="translate(0,-226.55625)" /><g
     id="g31"
     transform="translate(0,-226.55625)" /><g
     id="g33"
     transform="translate(0,-226.55625)" /></svg>