<?xml version="1.0" encoding="UTF-8" standalone="no"?>
<!-- Generator: Adobe Illustrator 18.1.1, SVG Export Plug-In . SVG Version: 6.00 Build 0)  -->

<svg
   xmlns:dc="http://purl.org/dc/elements/1.1/"
   xmlns:cc="http://creativecommons.org/ns#"
   xmlns:rdf="http://www.w3.org/1999/02/22-rdf-syntax-ns#"
   xmlns:svg="http://www.w3.org/2000/svg"
   xmlns="http://www.w3.org/2000/svg"
   xmlns:sodipodi="http://sodipodi.sourceforge.net/DTD/sodipodi-0.dtd"
   xmlns:inkscape="http://www.inkscape.org/namespaces/inkscape"
   version="1.1"
   id="Capa_1"
   x="0px"
   y="0px"
   viewBox="0 0 1.6229375 1.6229375"
   xml:space="preserve"
   width="32"
   height="32"
   inkscape:version="0.91 r13725"
   sodipodi:docname="download.svg"><metadata
     id="metadata44"><rdf:RDF><cc:Work
         rdf:about=""><dc:format>image/svg+xml</dc:format><dc:type
           rdf:resource="http://purl.org/dc/dcmitype/StillImage" /><dc:title></dc:title></cc:Work></rdf:RDF></metadata><defs
     id="defs42" /><sodipodi:namedview
     pagecolor="#ffffff"
     bordercolor="#666666"
     borderopacity="1"
     objecttolerance="10"
     gridtolerance="10"
     guidetolerance="10"
     inkscape:pageopacity="0"
     inkscape:pageshadow="2"
     inkscape:window-width="640"
     inkscape:window-height="480"
     id="namedview40"
     showgrid="false"
     inkscape:current-layer="Capa_1" /><g
     id="g3"
     transform="scale(0.0625,0.0625)"><g
       id="c23_download"><path
         d="m 22.074,7.644 -3.913,0 0,1.824 3.913,0 c 1.07,0 1.943,0.592 1.943,1.316 l 0,11.924 c 0,0.726 -0.873,1.314 -1.943,1.314 l -18.178,0 c -1.074,0 -1.947,-0.589 -1.947,-1.314 l 0,-11.924 c 0,-0.725 0.873,-1.316 1.947,-1.316 l 3.908,0 0,-1.824 -3.908,0 C 1.742,7.644 0,8.821 0,10.274 l 0,12.938 c 0,1.453 1.742,2.629 3.896,2.629 l 18.178,0 c 2.15,0 3.893,-1.176 3.893,-2.629 l 0,-12.938 c 0,-1.453 -1.742,-2.63 -3.893,-2.63 z"
         id="path6"
         inkscape:connector-curvature="0"
         style="fill:#d80027" /><polygon
         points="9.166,5.284 9.166,7.03 9.166,13.493 5.445,13.493 13.077,22.554 20.522,13.267 16.799,13.267 16.799,7.03 16.799,5.284 16.799,0.126 9.166,0.126 "
         id="polygon8"
         style="fill:#d80027" /></g></g><g
     id="g10"
     transform="matrix(0.0625,0,0,0.0625,0,-0.11812301)" /><g
     id="g12"
     transform="matrix(0.0625,0,0,0.0625,0,-0.11812301)" /><g
     id="g14"
     transform="matrix(0.0625,0,0,0.0625,0,-0.11812301)" /><g
     id="g16"
     transform="matrix(0.0625,0,0,0.0625,0,-0.11812301)" /><g
     id="g18"
     transform="matrix(0.0625,0,0,0.0625,0,-0.11812301)" /><g
     id="g20"
     transform="matrix(0.0625,0,0,0.0625,0,-0.11812301)" /><g
     id="g22"
     transform="matrix(0.0625,0,0,0.0625,0,-0.11812301)" /><g
     id="g24"
     transform="matrix(0.0625,0,0,0.0625,0,-0.11812301)" /><g
     id="g26"
     transform="matrix(0.0625,0,0,0.0625,0,-0.11812301)" /><g
     id="g28"
     transform="matrix(0.0625,0,0,0.0625,0,-0.11812301)" /><g
     id="g30"
     transform="matrix(0.0625,0,0,0.0625,0,-0.11812301)" /><g
     id="g32"
     transform="matrix(0.0625,0,0,0.0625,0,-0.11812301)" /><g
     id="g34"
     transform="matrix(0.0625,0,0,0.0625,0,-0.11812301)" /><g
     id="g36"
     transform="matrix(0.0625,0,0,0.0625,0,-0.11812301)" /><g
     id="g38"
     transform="matrix(0.0625,0,0,0.0625,0,-0.11812301)" /></svg>