<?xml version="1.0" encoding="UTF-8" standalone="no"?>
<!-- Generator: Adobe Illustrator 18.1.1, SVG Export Plug-In . SVG Version: 6.00 Build 0)  -->

<svg
   xmlns:dc="http://purl.org/dc/elements/1.1/"
   xmlns:cc="http://creativecommons.org/ns#"
   xmlns:rdf="http://www.w3.org/1999/02/22-rdf-syntax-ns#"
   xmlns:svg="http://www.w3.org/2000/svg"
   xmlns="http://www.w3.org/2000/svg"
   xmlns:sodipodi="http://sodipodi.sourceforge.net/DTD/sodipodi-0.dtd"
   xmlns:inkscape="http://www.inkscape.org/namespaces/inkscape"
   version="1.1"
   id="Capa_1"
   x="0px"
   y="0px"
   viewBox="0 0 16.795313 16.795313"
   xml:space="preserve"
   width="32"
   height="32"
   inkscape:version="0.91 r13725"
   sodipodi:docname="edit.svg"><metadata
     id="metadata40"><rdf:RDF><cc:Work
         rdf:about=""><dc:format>image/svg+xml</dc:format><dc:type
           rdf:resource="http://purl.org/dc/dcmitype/StillImage" /><dc:title /></cc:Work></rdf:RDF></metadata><defs
     id="defs38" /><sodipodi:namedview
     pagecolor="#ffffff"
     bordercolor="#666666"
     borderopacity="1"
     objecttolerance="10"
     gridtolerance="10"
     guidetolerance="10"
     inkscape:pageopacity="0"
     inkscape:pageshadow="2"
     inkscape:window-width="1366"
     inkscape:window-height="744"
     id="namedview36"
     showgrid="false"
     inkscape:window-x="0"
     inkscape:window-y="0"
     inkscape:window-maximized="1"
     inkscape:current-layer="Capa_1" /><g
     id="Edit"
     transform="matrix(0.06254376,0,0,0.06250007,-0.00592672,-6.2325547e-5)"><path
       style="clip-rule:evenodd;fill:#ffda44;fill-rule:evenodd"
       d="m 161.359,56.337 c -7.041,-7.049 -18.458,-7.049 -25.498,0 l -6.374,6.381 -89.243,89.337 0.023,0.023 -2.812,2.82 c 0,0 -8.968,9.032 -29.216,74.399 -0.142,0.457 -0.283,0.911 -0.426,1.374 -0.361,1.171 -0.726,2.361 -1.094,3.567 -0.326,1.066 -0.656,2.154 -0.987,3.249 -0.279,0.923 -0.556,1.836 -0.839,2.779 -0.642,2.14 -1.292,4.318 -1.955,6.567 -1.455,4.937 -5.009,16.07 -0.99,20.1 3.87,3.882 15.12,0.467 20.043,-0.993 2.232,-0.662 4.395,-1.311 6.519,-1.952 0.981,-0.296 1.932,-0.586 2.891,-0.878 1.031,-0.314 2.057,-0.626 3.062,-0.935 1.269,-0.39 2.52,-0.775 3.75,-1.157 0.367,-0.114 0.727,-0.227 1.091,-0.34 62.192,-19.365 73.357,-28.453 74.285,-29.284 0.007,-0.005 0.007,-0.005 0.012,-0.01 0.039,-0.036 0.066,-0.06 0.066,-0.06 l 2.879,-2.886 0.193,0.193 89.245,-89.337 -0.001,-0.001 6.374,-6.381 c 7.041,-7.048 7.041,-18.476 0,-25.525 l -50.998,-51.05 z m -57.96,163.445 c -0.078,0.053 -0.184,0.122 -0.296,0.193 -0.062,0.04 -0.137,0.087 -0.211,0.133 -0.075,0.047 -0.157,0.098 -0.244,0.151 -0.077,0.047 -0.157,0.095 -0.243,0.147 -2.969,1.777 -11.682,6.362 -32.828,14.017 -2.471,0.894 -5.162,1.842 -7.981,2.819 l -30.06,-30.091 c 0.98,-2.84 1.929,-5.551 2.826,-8.041 7.638,-21.235 12.219,-29.974 13.986,-32.939 0.043,-0.071 0.082,-0.136 0.121,-0.2 0.062,-0.102 0.12,-0.197 0.174,-0.284 0.043,-0.069 0.088,-0.141 0.126,-0.2 0.071,-0.111 0.14,-0.217 0.193,-0.296 l 2.2,-2.206 54.485,54.542 -2.248,2.255 z M 263.351,56.337 212.354,5.287 c -7.041,-7.048 -18.456,-7.048 -25.498,0 L 174.108,18.05 c -7.041,7.048 -7.041,18.476 0,25.524 l 50.996,51.05 c 7.04,7.048 18.457,7.048 25.498,0 l 12.749,-12.762 c 7.041,-7.049 7.041,-18.477 0,-25.525 z"
       id="path4"
       inkscape:connector-curvature="0" /></g><g
     id="g6"
     transform="translate(0,-251.92969)" /><g
     id="g8"
     transform="translate(0,-251.92969)" /><g
     id="g10"
     transform="translate(0,-251.92969)" /><g
     id="g12"
     transform="translate(0,-251.92969)" /><g
     id="g14"
     transform="translate(0,-251.92969)" /><g
     id="g16"
     transform="translate(0,-251.92969)" /><g
     id="g18"
     transform="translate(0,-251.92969)" /><g
     id="g20"
     transform="translate(0,-251.92969)" /><g
     id="g22"
     transform="translate(0,-251.92969)" /><g
     id="g24"
     transform="translate(0,-251.92969)" /><g
     id="g26"
     transform="translate(0,-251.92969)" /><g
     id="g28"
     transform="translate(0,-251.92969)" /><g
     id="g30"
     transform="translate(0,-251.92969)" /><g
     id="g32"
     transform="translate(0,-251.92969)" /><g
     id="g34"
     transform="translate(0,-251.92969)" /></svg>