<?xml version="1.0" encoding="UTF-8" standalone="no"?>
<!-- Generator: Adobe Illustrator 18.1.1, SVG Export Plug-In . SVG Version: 6.00 Build 0)  -->

<svg
   xmlns:dc="http://purl.org/dc/elements/1.1/"
   xmlns:cc="http://creativecommons.org/ns#"
   xmlns:rdf="http://www.w3.org/1999/02/22-rdf-syntax-ns#"
   xmlns:svg="http://www.w3.org/2000/svg"
   xmlns="http://www.w3.org/2000/svg"
   xmlns:sodipodi="http://sodipodi.sourceforge.net/DTD/sodipodi-0.dtd"
   xmlns:inkscape="http://www.inkscape.org/namespaces/inkscape"
   version="1.1"
   id="Capa_1"
   x="0px"
   y="0px"
   viewBox="0 0 16.795313 16.795313"
   xml:space="preserve"
   width="32"
   height="32"
   inkscape:version="0.91 r13725"
   sodipodi:docname="edit_white.svg"><metadata
     id="metadata40"><rdf:RDF><cc:Work
         rdf:about=""><dc:format>image/svg+xml</dc:format><dc:type
           rdf:resource="http://purl.org/dc/dcmitype/StillImage" /><dc:title></dc:title></cc:Work></rdf:RDF></metadata><defs
     id="defs38" /><sodipodi:namedview
     pagecolor="#404040"
     bordercolor="#666666"
     borderopacity="1"
     objecttolerance="10"
     gridtolerance="10"
     guidetolerance="10"
     inkscape:pageopacity="1"
     inkscape:pageshadow="2"
     inkscape:window-width="1366"
     inkscape:window-height="744"
     id="namedview36"
     showgrid="false"
     inkscape:window-x="0"
     inkscape:window-y="0"
     inkscape:window-maximized="1"
     inkscape:current-layer="Capa_1" /><path
     inkscape:connector-curvature="0"
     id="path4"
     d="m 9.4529161,5.349749 c -0.2752316,-0.2753518 -0.7215204,-0.2753518 -0.996713,0 L 8.2070444,5.5990071 4.7185489,9.0887372 4.719448,9.0896357 4.6095273,9.199792 c 0,0 -0.3505577,0.3528129 -1.142049,2.906214 -0.00555,0.01785 -0.011062,0.03559 -0.016652,0.05367 -0.014111,0.04574 -0.028379,0.09223 -0.042764,0.139336 -0.012743,0.04164 -0.025643,0.08414 -0.038582,0.126914 -0.010906,0.03605 -0.021734,0.07172 -0.032796,0.108555 -0.025096,0.08359 -0.050504,0.168672 -0.076421,0.256524 -0.056876,0.192851 -0.1958011,0.627735 -0.038699,0.785157 0.1512777,0.15164 0.5910386,0.01824 0.7834779,-0.03879 0.087249,-0.02586 0.1717999,-0.05121 0.2548267,-0.07625 0.038347,-0.01156 0.075522,-0.02289 0.1130088,-0.0343 0.040302,-0.01227 0.080408,-0.02445 0.1196931,-0.03652 0.049605,-0.01523 0.098506,-0.03027 0.1465869,-0.04519 0.014346,-0.0045 0.028418,-0.0089 0.042647,-0.01328 2.4310759,-0.756447 2.8675141,-1.111447 2.9037895,-1.143908 2.736e-4,-1.95e-4 2.736e-4,-1.95e-4 4.69e-4,-3.91e-4 0.00152,-0.0014 0.00258,-0.0023 0.00258,-0.0023 l 0.1125397,-0.112735 0.00754,0.0075 3.488574,-3.4897299 -3.9e-5,-3.9e-5 0.249158,-0.2492581 c 0.275232,-0.2753128 0.275232,-0.7217195 0,-0.9970713 L 9.4529161,5.349749 Z m -2.2656477,6.384577 c -0.00305,0.0021 -0.00719,0.0048 -0.011571,0.0075 -0.00242,0.0016 -0.00536,0.0034 -0.00825,0.0052 -0.00293,0.0018 -0.00614,0.0038 -0.00954,0.0059 -0.00301,0.0018 -0.00614,0.0037 -0.0095,0.0057 -0.1160578,0.06941 -0.4566476,0.248516 -1.2832416,0.54754 -0.096591,0.03492 -0.2017818,0.07195 -0.3119761,0.110117 L 4.3781545,11.240927 c 0.038308,-0.110938 0.075404,-0.216836 0.1104679,-0.314102 0.2985683,-0.829493 0.4776389,-1.1708605 0.5467107,-1.286681 0.00168,-0.00277 0.00321,-0.00531 0.00473,-0.00781 0.00242,-0.00398 0.00469,-0.0077 0.0068,-0.011094 0.00168,-0.0027 0.00344,-0.00551 0.00493,-0.00781 0.00278,-0.00434 0.00547,-0.00848 0.00754,-0.011563 l 0.085998,-0.086172 2.1298105,2.1305492 -0.087874,0.08809 z M 13.439768,5.349749 11.446303,3.3556063 c -0.275232,-0.2753127 -0.721442,-0.2753127 -0.996713,0 L 9.9512726,3.8541615 c -0.2752316,0.2753128 -0.2752316,0.7217195 0,0.9970323 l 1.9934264,1.9941427 c 0.275192,0.2753128 0.721481,0.2753128 0.996713,0 l 0.498356,-0.4985162 c 0.275232,-0.2753518 0.275232,-0.7217585 0,-0.9970713 z"
     style="clip-rule:evenodd;fill:#ffffff;fill-rule:evenodd;fill-opacity:1" /><g
     id="g6"
     transform="translate(0,-251.92969)" /><g
     id="g8"
     transform="translate(0,-251.92969)" /><g
     id="g10"
     transform="translate(0,-251.92969)" /><g
     id="g12"
     transform="translate(0,-251.92969)" /><g
     id="g14"
     transform="translate(0,-251.92969)" /><g
     id="g16"
     transform="translate(0,-251.92969)" /><g
     id="g18"
     transform="translate(0,-251.92969)" /><g
     id="g20"
     transform="translate(0,-251.92969)" /><g
     id="g22"
     transform="translate(0,-251.92969)" /><g
     id="g24"
     transform="translate(0,-251.92969)" /><g
     id="g26"
     transform="translate(0,-251.92969)" /><g
     id="g28"
     transform="translate(0,-251.92969)" /><g
     id="g30"
     transform="translate(0,-251.92969)" /><g
     id="g32"
     transform="translate(0,-251.92969)" /><g
     id="g34"
     transform="translate(0,-251.92969)" /></svg>