<?xml version="1.0" encoding="UTF-8" standalone="no"?>
<!-- Generator: Adobe Illustrator 18.1.1, SVG Export Plug-In . SVG Version: 6.00 Build 0)  -->

<svg
   xmlns:dc="http://purl.org/dc/elements/1.1/"
   xmlns:cc="http://creativecommons.org/ns#"
   xmlns:rdf="http://www.w3.org/1999/02/22-rdf-syntax-ns#"
   xmlns:svg="http://www.w3.org/2000/svg"
   xmlns="http://www.w3.org/2000/svg"
   xmlns:sodipodi="http://sodipodi.sourceforge.net/DTD/sodipodi-0.dtd"
   xmlns:inkscape="http://www.inkscape.org/namespaces/inkscape"
   version="1.1"
   id="Capa_1"
   x="0px"
   y="0px"
   viewBox="0 0 17.899188 17.899188"
   xml:space="preserve"
   width="32"
   height="32"
   sodipodi:docname="group.svg"
   inkscape:version="0.92.2 2405546, 2018-03-11"><metadata
   id="metadata40"><rdf:RDF><cc:Work
       rdf:about=""><dc:format>image/svg+xml</dc:format><dc:type
         rdf:resource="http://purl.org/dc/dcmitype/StillImage" /><dc:title></dc:title></cc:Work></rdf:RDF></metadata><defs
   id="defs38">
	
</defs><sodipodi:namedview
   pagecolor="#ffffff"
   bordercolor="#666666"
   borderopacity="1"
   objecttolerance="10"
   gridtolerance="10"
   guidetolerance="10"
   inkscape:pageopacity="0"
   inkscape:pageshadow="2"
   inkscape:window-width="2560"
   inkscape:window-height="1418"
   id="namedview36"
   showgrid="false"
   inkscape:zoom="38.40625"
   inkscape:cx="10.792514"
   inkscape:cy="15.89585"
   inkscape:window-x="1366"
   inkscape:window-y="0"
   inkscape:window-maximized="1"
   inkscape:current-layer="Capa_1" />
<path
   inkscape:connector-curvature="0"
   id="path2"
   d="m 8.9495621,8.9571249 c 1.5689979,0 2.7893079,-1.6273977 2.7893079,-3.3120483 V 5.117299 c 0,-1.6845881 -1.22031,-2.8799007 -2.7893079,-2.8799007 -1.56906,0 -2.7893706,1.1952501 -2.7893706,2.8799007 v 0.5277776 c 0,1.6846506 1.2203106,3.3120483 2.7893706,3.3120483 z M 3.361196,9.5019659 c 0.4486243,0 1.6763098,-0.582093 1.6763098,-1.7899062 V 6.8170754 c 0,-1.2078757 -0.8856236,-1.7899686 -1.6763098,-1.7899686 -0.7644363,0 -1.6762473,0.5820929 -1.6762473,1.7899686 v 0.8949843 c 0,1.2078132 1.251498,1.7899062 1.6762473,1.7899062 z M 13.40493,11.739833 c -8.75e-4,-0.0088 -0.0035,-0.01706 -0.0044,-0.02575 -0.01313,-0.105381 -0.03325,-0.208449 -0.06119,-0.309392 0,-9.37e-4 0,-0.0018 -8.75e-4,-0.0026 -0.05856,-0.214573 -0.157375,-0.421272 -0.305,-0.624907 v -8.75e-4 C 12.791368,10.44114 12.426119,10.09931 11.832682,9.7659797 11.518933,9.589783 11.380808,9.5090288 11.186871,9.5090288 c -0.3085,0 -0.577687,0.2398875 -1.031186,0.6563472 h -9.37e-4 l -0.4124997,0.379269 c -0.014875,0.01406 -0.4596243,0.642409 -0.7926237,0.642409 -0.3329995,0 -0.7778113,-0.628408 -0.7926863,-0.642409 L 7.744439,10.165376 H 7.743564 C 7.2900647,9.7489163 7.0208777,9.5090288 6.7123781,9.5090288 c -0.1939996,0 -0.3671244,0.080754 -0.6458114,0.2569509 -0.5753741,0.3632063 -0.958811,0.6747233 -1.1999356,1.0093653 l -9.375e-4,4.38e-4 c -8.75e-4,8.75e-4 -8.75e-4,0.0023 -0.00169,0.003 -0.1459998,0.201948 -0.2438746,0.407333 -0.3023745,0.620595 -8.125e-4,0.0017 -0.00181,0.0039 -0.0025,0.0061 -0.027188,0.100193 -0.047312,0.201886 -0.060375,0.306329 -8.75e-4,0.0097 -0.0035,0.01881 -0.00444,0.02844 -0.01225,0.111006 -0.019187,0.224199 -0.019187,0.341705 0,0.01306 -2.5e-4,2.449816 0,2.461192 0,0.795291 0.2997495,1.118683 1.1186232,1.118683 h 6.7118637 c 0.825936,0 1.118623,-0.305953 1.118623,-1.118683 2.5e-4,-0.01138 -6.2e-5,-2.448128 -6.2e-5,-2.461192 -6.3e-5,-0.117443 -0.0071,-0.230637 -0.01925,-0.34208 z m 1.142811,-2.2378671 c 0.448561,0 1.676372,-0.582093 1.676372,-1.7899062 V 6.8170754 c 0,-1.2078757 -0.885624,-1.7899686 -1.676372,-1.7899686 -0.764499,0 -1.67631,0.5820929 -1.67631,1.7899686 v 0.8949843 c 0,1.2078132 1.251498,1.7899062 1.67631,1.7899062 z M 1.2728869,10.713342 c -1.04093588,0.592593 -1.27249801173,1.537393 -1.27249801173,2.1518 0,0.0096 -8.749986e-4,1.109995 0,1.118683 0,0.811918 0.27268706173,1.118746 1.11862321173,1.118746 H 3.356321 c 0,0 0,-2.377249 0,-3.356175 L 2.7970094,11.187054 C 2.2052604,10.665277 1.7063862,10.466891 1.2728869,10.713342 Z m 2.0834341,1.033054 c 0.012313,0.01062 0,-0.265639 0,0 z m 14.542477,1.118746 c 0,-0.61447 -0.231625,-1.559269 -1.272498,-2.1518 -0.4335,-0.246451 -0.932374,-0.04807 -1.524123,0.473775 l -0.559311,0.559341 c 0,0.978864 0,3.356176 0,3.356176 h 2.237309 c 0.845936,0 1.118623,-0.306829 1.118623,-1.118746 8.75e-4,-0.0088 0,-1.109121 0,-1.118746 z m -3.355995,-1.118746 c 0,-0.265639 -0.01225,0.01062 0,0 z"
   style="clip-rule:evenodd;fill:#ffcc40;fill-rule:evenodd;stroke-width:0.06250159;stroke:none;fill-opacity:1" />
<g
   id="g5"
   transform="matrix(0.0624999,0,0,0.06250327,1.3888867e-5,-4.0625e-4)">
</g>
<g
   id="g7"
   transform="matrix(0.0624999,0,0,0.06250327,1.3888867e-5,-4.0625e-4)">
</g>
<g
   id="g9"
   transform="matrix(0.0624999,0,0,0.06250327,1.3888867e-5,-4.0625e-4)">
</g>
<g
   id="g11"
   transform="matrix(0.0624999,0,0,0.06250327,1.3888867e-5,-4.0625e-4)">
</g>
<g
   id="g13"
   transform="matrix(0.0624999,0,0,0.06250327,1.3888867e-5,-4.0625e-4)">
</g>
<g
   id="g15"
   transform="matrix(0.0624999,0,0,0.06250327,1.3888867e-5,-4.0625e-4)">
</g>
<g
   id="g17"
   transform="matrix(0.0624999,0,0,0.06250327,1.3888867e-5,-4.0625e-4)">
</g>
<g
   id="g19"
   transform="matrix(0.0624999,0,0,0.06250327,1.3888867e-5,-4.0625e-4)">
</g>
<g
   id="g21"
   transform="matrix(0.0624999,0,0,0.06250327,1.3888867e-5,-4.0625e-4)">
</g>
<g
   id="g23"
   transform="matrix(0.0624999,0,0,0.06250327,1.3888867e-5,-4.0625e-4)">
</g>
<g
   id="g25"
   transform="matrix(0.0624999,0,0,0.06250327,1.3888867e-5,-4.0625e-4)">
</g>
<g
   id="g27"
   transform="matrix(0.0624999,0,0,0.06250327,1.3888867e-5,-4.0625e-4)">
</g>
<g
   id="g29"
   transform="matrix(0.0624999,0,0,0.06250327,1.3888867e-5,-4.0625e-4)">
</g>
<g
   id="g31"
   transform="matrix(0.0624999,0,0,0.06250327,1.3888867e-5,-4.0625e-4)">
</g>
<g
   id="g33"
   transform="matrix(0.0624999,0,0,0.06250327,1.3888867e-5,-4.0625e-4)">
</g>
</svg>