<?xml version="1.0" encoding="UTF-8" standalone="no"?>
<!-- Generator: Adobe Illustrator 18.1.1, SVG Export Plug-In . SVG Version: 6.00 Build 0)  -->

<svg
   xmlns:dc="http://purl.org/dc/elements/1.1/"
   xmlns:cc="http://creativecommons.org/ns#"
   xmlns:rdf="http://www.w3.org/1999/02/22-rdf-syntax-ns#"
   xmlns:svg="http://www.w3.org/2000/svg"
   xmlns="http://www.w3.org/2000/svg"
   xmlns:sodipodi="http://sodipodi.sourceforge.net/DTD/sodipodi-0.dtd"
   xmlns:inkscape="http://www.inkscape.org/namespaces/inkscape"
   version="1.1"
   id="Capa_1"
   x="0px"
   y="0px"
   viewBox="0 0 17.899188 17.899188"
   xml:space="preserve"
   width="32"
   height="32"
   sodipodi:docname="group2.svg"
   inkscape:version="0.92.2 2405546, 2018-03-11"><metadata
   id="metadata40"><rdf:RDF><cc:Work
       rdf:about=""><dc:format>image/svg+xml</dc:format><dc:type
         rdf:resource="http://purl.org/dc/dcmitype/StillImage" /><dc:title /></cc:Work></rdf:RDF></metadata><defs
   id="defs38">
	
</defs><sodipodi:namedview
   pagecolor="#ffffff"
   bordercolor="#666666"
   borderopacity="1"
   objecttolerance="10"
   gridtolerance="10"
   guidetolerance="10"
   inkscape:pageopacity="0"
   inkscape:pageshadow="2"
   inkscape:window-width="2560"
   inkscape:window-height="1418"
   id="namedview36"
   showgrid="false"
   inkscape:zoom="1"
   inkscape:cx="16"
   inkscape:cy="25.373474"
   inkscape:window-x="1366"
   inkscape:window-y="0"
   inkscape:window-maximized="1"
   inkscape:current-layer="Capa_1"
   inkscape:snap-grids="true"
   inkscape:lockguides="false"
   inkscape:snap-page="true"
   inkscape:snap-object-midpoints="true"
   inkscape:snap-center="true"
   inkscape:snap-global="true"
   inkscape:snap-bbox="false"
   inkscape:bbox-paths="false"
   inkscape:bbox-nodes="false"
   inkscape:snap-bbox-edge-midpoints="false"
   inkscape:snap-bbox-midpoints="false"
   showguides="true"
   inkscape:guide-bbox="true"><inkscape:grid
     type="xygrid"
     id="grid4552" /><sodipodi:guide
     position="0.55934975,2.2373985"
     orientation="0,1"
     id="guide4630"
     inkscape:locked="false"
     inkscape:label=""
     inkscape:color="rgb(0,0,255)" /><sodipodi:guide
     position="0.55934975,3.915447"
     orientation="0,1"
     id="guide4728"
     inkscape:locked="false"
     inkscape:label=""
     inkscape:color="rgb(0,0,255)" /><sodipodi:guide
     position="-5e-08,6.152845"
     orientation="0,1"
     id="guide4730"
     inkscape:locked="false"
     inkscape:label=""
     inkscape:color="rgb(0,0,255)" /><sodipodi:guide
     position="0.55934975,13.98374"
     orientation="0,1"
     id="guide4732"
     inkscape:locked="false" /><sodipodi:guide
     position="0.55934975,16.221138"
     orientation="0,1"
     id="guide4734"
     inkscape:locked="false"
     inkscape:label=""
     inkscape:color="rgb(0,0,255)" /><sodipodi:guide
     position="-5e-08,12.305691"
     orientation="0,1"
     id="guide4736"
     inkscape:locked="false"
     inkscape:label=""
     inkscape:color="rgb(0,0,255)" /><sodipodi:guide
     position="0.55934975,12.235773"
     orientation="1,0"
     id="guide4738"
     inkscape:locked="false" /><sodipodi:guide
     position="17.339838,12.235773"
     orientation="1,0"
     id="guide4740"
     inkscape:locked="false"
     inkscape:label=""
     inkscape:color="rgb(0,0,255)" /><sodipodi:guide
     position="-5e-08,12.235773"
     orientation="1,0"
     id="guide4742"
     inkscape:locked="false" /><sodipodi:guide
     position="3.9154473,3.915447"
     orientation="1,0"
     id="guide4744"
     inkscape:locked="false" /><sodipodi:guide
     position="5.0341465,12.235773"
     orientation="1,0"
     id="guide4746"
     inkscape:locked="false" /><sodipodi:guide
     position="-1.237197,11.186992"
     orientation="0,1"
     id="guide839"
     inkscape:locked="false"
     inkscape:label=""
     inkscape:color="rgb(0,0,255)" /></sodipodi:namedview>

<g
   id="g5"
   transform="matrix(0.0624999,0,0,0.06250327,1.3888867e-5,-4.0625e-4)"
   style="fill:#a0ff00;fill-opacity:1">
</g>
<g
   id="g7"
   transform="matrix(0.0624999,0,0,0.06250327,1.3888867e-5,-4.0625e-4)"
   style="fill:#a0ff00;fill-opacity:1">
</g>
<g
   id="g9"
   transform="matrix(0.0624999,0,0,0.06250327,1.3888867e-5,-4.0625e-4)"
   style="fill:#a0ff00;fill-opacity:1">
</g>
<g
   id="g11"
   transform="matrix(0.0624999,0,0,0.06250327,1.3888867e-5,-4.0625e-4)"
   style="fill:#a0ff00;fill-opacity:1">
</g>
<g
   id="g13"
   transform="matrix(0.0624999,0,0,0.06250327,1.3888867e-5,-4.0625e-4)"
   style="fill:#a0ff00;fill-opacity:1">
</g>
<g
   id="g15"
   transform="matrix(0.0624999,0,0,0.06250327,1.3888867e-5,-4.0625e-4)"
   style="fill:#a0ff00;fill-opacity:1">
</g>
<g
   id="g17"
   transform="matrix(0.0624999,0,0,0.06250327,1.3888867e-5,-4.0625e-4)"
   style="fill:#a0ff00;fill-opacity:1">
</g>
<g
   id="g19"
   transform="matrix(0.0624999,0,0,0.06250327,1.3888867e-5,-4.0625e-4)"
   style="fill:#a0ff00;fill-opacity:1">
</g>
<g
   id="g21"
   transform="matrix(0.0624999,0,0,0.06250327,1.3888867e-5,-4.0625e-4)"
   style="fill:#a0ff00;fill-opacity:1">
</g>
<g
   id="g23"
   transform="matrix(0.0624999,0,0,0.06250327,1.3888867e-5,-4.0625e-4)"
   style="fill:#a0ff00;fill-opacity:1">
</g>
<g
   id="g25"
   transform="matrix(0.0624999,0,0,0.06250327,1.3888867e-5,-4.0625e-4)"
   style="fill:#a0ff00;fill-opacity:1">
</g>
<g
   id="g27"
   transform="matrix(0.0624999,0,0,0.06250327,1.3888867e-5,-4.0625e-4)"
   style="fill:#a0ff00;fill-opacity:1">
</g>
<g
   id="g29"
   transform="matrix(0.0624999,0,0,0.06250327,1.3888867e-5,-4.0625e-4)"
   style="fill:#a0ff00;fill-opacity:1">
</g>
<g
   id="g31"
   transform="matrix(0.0624999,0,0,0.06250327,1.3888867e-5,-4.0625e-4)"
   style="fill:#a0ff00;fill-opacity:1">
</g>
<g
   id="g33"
   transform="matrix(0.0624999,0,0,0.06250327,1.3888867e-5,-4.0625e-4)"
   style="fill:#a0ff00;fill-opacity:1">
</g>
<path
   style="fill:#a0ff00;fill-opacity:1;stroke:none;stroke-width:0.82915622"
   d="M 4 3 L 1 6 L 1 9 L 0 9 L 0 12 L 1 12 L 1 18 L 0 18 L 0 21 L 1 21 L 1 25 L 7 25 L 7 21 L 9 21 L 9 25 L 15 25 L 15 21 L 17 21 L 17 25 L 23 25 L 23 21 L 25 21 L 25 25 L 31 25 L 31 21 L 32 21 L 32 18 L 31 18 L 31 12 L 32 12 L 32 9 L 31 9 L 31 6 L 28 3 L 25 6 L 25 9 L 23 9 L 23 6 L 20 3 L 17 6 L 17 9 L 15 9 L 15 6 L 12 3 L 9 6 L 9 9 L 7 9 L 7 6 L 4 3 z M 7 12 L 9 12 L 9 18 L 7 18 L 7 12 z M 15 12 L 17 12 L 17 18 L 15 18 L 15 12 z M 23 12 L 25 12 L 25 18 L 23 18 L 23 12 z "
   transform="scale(0.55934962)"
   id="rect4595" /></svg>