<?xml version="1.0" encoding="UTF-8" standalone="no"?>
<!-- Generator: Adobe Illustrator 18.1.1, SVG Export Plug-In . SVG Version: 6.00 Build 0)  -->

<svg
   xmlns:dc="http://purl.org/dc/elements/1.1/"
   xmlns:cc="http://creativecommons.org/ns#"
   xmlns:rdf="http://www.w3.org/1999/02/22-rdf-syntax-ns#"
   xmlns:svg="http://www.w3.org/2000/svg"
   xmlns="http://www.w3.org/2000/svg"
   xmlns:sodipodi="http://sodipodi.sourceforge.net/DTD/sodipodi-0.dtd"
   xmlns:inkscape="http://www.inkscape.org/namespaces/inkscape"
   version="1.1"
   id="Capa_1"
   x="0px"
   y="0px"
   viewBox="0 0 17.618836 17.618836"
   xml:space="preserve"
   width="36"
   height="36"
   sodipodi:docname="lines-menu.svg"
   inkscape:version="0.92.1 r"><metadata
     id="metadata40"><rdf:RDF><cc:Work
         rdf:about=""><dc:format>image/svg+xml</dc:format><dc:type
           rdf:resource="http://purl.org/dc/dcmitype/StillImage" /><dc:title></dc:title></cc:Work></rdf:RDF></metadata><defs
     id="defs38" /><sodipodi:namedview
     pagecolor="#ffffff"
     bordercolor="#666666"
     borderopacity="1"
     objecttolerance="10"
     gridtolerance="10"
     guidetolerance="10"
     inkscape:pageopacity="0"
     inkscape:pageshadow="2"
     inkscape:window-width="640"
     inkscape:window-height="480"
     id="namedview36"
     showgrid="false"
     inkscape:current-layer="Capa_1" /><g
     id="Menu"
     transform="matrix(0.0703125,0,0,0.0703125,3.1250004e-8,3.51875e-5)"><path
       style="clip-rule:evenodd;fill:#3f3f3f;fill-rule:evenodd"
       d="m 22.373,76.068 h 205.832 c 12.356,0 22.374,-10.017 22.374,-22.373 0,-12.356 -10.017,-22.373 -22.374,-22.373 H 22.373 C 10.017,31.323 0,41.339 0,53.696 0,66.052 10.017,76.068 22.373,76.068 Z m 205.832,26.848 H 22.373 C 10.017,102.916 0,112.933 0,125.289 c 0,12.357 10.017,22.373 22.373,22.373 h 205.832 c 12.356,0 22.374,-10.016 22.374,-22.373 0,-12.356 -10.018,-22.373 -22.374,-22.373 z m 0,71.594 H 22.373 C 10.017,174.51 0,184.526 0,196.883 c 0,12.356 10.017,22.373 22.373,22.373 h 205.832 c 12.356,0 22.374,-10.017 22.374,-22.373 0,-12.357 -10.018,-22.373 -22.374,-22.373 z"
       id="path2"
       inkscape:connector-curvature="0" /></g><g
     id="g5"
     transform="translate(0,-232.96016)" /><g
     id="g7"
     transform="translate(0,-232.96016)" /><g
     id="g9"
     transform="translate(0,-232.96016)" /><g
     id="g11"
     transform="translate(0,-232.96016)" /><g
     id="g13"
     transform="translate(0,-232.96016)" /><g
     id="g15"
     transform="translate(0,-232.96016)" /><g
     id="g17"
     transform="translate(0,-232.96016)" /><g
     id="g19"
     transform="translate(0,-232.96016)" /><g
     id="g21"
     transform="translate(0,-232.96016)" /><g
     id="g23"
     transform="translate(0,-232.96016)" /><g
     id="g25"
     transform="translate(0,-232.96016)" /><g
     id="g27"
     transform="translate(0,-232.96016)" /><g
     id="g29"
     transform="translate(0,-232.96016)" /><g
     id="g31"
     transform="translate(0,-232.96016)" /><g
     id="g33"
     transform="translate(0,-232.96016)" /></svg>