<?xml version="1.0" encoding="UTF-8" standalone="no"?>
<!-- Generator: Adobe Illustrator 16.0.0, SVG Export Plug-In . SVG Version: 6.00 Build 0)  -->

<svg
   xmlns:dc="http://purl.org/dc/elements/1.1/"
   xmlns:cc="http://creativecommons.org/ns#"
   xmlns:rdf="http://www.w3.org/1999/02/22-rdf-syntax-ns#"
   xmlns:svg="http://www.w3.org/2000/svg"
   xmlns="http://www.w3.org/2000/svg"
   xmlns:sodipodi="http://sodipodi.sourceforge.net/DTD/sodipodi-0.dtd"
   xmlns:inkscape="http://www.inkscape.org/namespaces/inkscape"
   version="1.1"
   id="Capa_1"
   x="0px"
   y="0px"
   width="32"
   height="32"
   viewBox="0 0 1.9214375 1.9215"
   xml:space="preserve"
   inkscape:version="0.91 r13725"
   sodipodi:docname="posts_gray.svg"><metadata
     id="metadata43"><rdf:RDF><cc:Work
         rdf:about=""><dc:format>image/svg+xml</dc:format><dc:type
           rdf:resource="http://purl.org/dc/dcmitype/StillImage" /><dc:title></dc:title></cc:Work></rdf:RDF></metadata><defs
     id="defs41" /><sodipodi:namedview
     pagecolor="#ffffff"
     bordercolor="#666666"
     borderopacity="1"
     objecttolerance="10"
     gridtolerance="10"
     guidetolerance="10"
     inkscape:pageopacity="0"
     inkscape:pageshadow="2"
     inkscape:window-width="1366"
     inkscape:window-height="744"
     id="namedview39"
     showgrid="false"
     inkscape:window-x="0"
     inkscape:window-y="0"
     inkscape:window-maximized="1"
     inkscape:current-layer="Capa_1" /><path
     style="fill:#c0c0c0;fill-opacity:1"
     inkscape:connector-curvature="0"
     id="path5"
     d="m 1.7865894,0.60439468 -0.052627,0 0,0.57845632 c 0,0.090065 -0.052439,0.1715055 -0.1575677,0.1715055 l -1.02997092,0 0,0.027501 c 0,0.079628 0.0905655,0.1600052 0.18356847,0.1600052 l 0.78746305,0 0.3012598,0.1771308 -0.043689,-0.1771308 0.011563,0 c 0.092941,0 0.1348793,-0.08019 0.1348793,-0.1600052 l 0,-0.64014576 c 0,-0.0796276 -0.041939,-0.13731696 -0.1348793,-0.13731696 z" /><path
     style="fill:#c0c0c0;fill-opacity:1"
     inkscape:connector-curvature="0"
     id="path7"
     d="m 1.42264,0.20250662 -1.19628881,0 c -0.10525342,0 -0.226382354117,0.093503 -0.226382354117,0.18363097 l 0,0.72502351 c 0,0.083003 0.102628334117,0.1429422 0.201069034117,0.1521925 l -0.0640646,0.2431954 0.41051333,-0.2415079 0.87515338,0 c 0.1052535,0 0.2023816,-0.063814 0.2023816,-0.15388 l 0,-0.58658152 0,-0.13844199 c 0,-0.0901279 -0.097191,-0.18363097 -0.2023816,-0.18363097 z M 0.40885712,0.8145265 c -0.0596894,0 -0.10806601,-0.0483766 -0.10806601,-0.10806601 0,-0.0596894 0.0483766,-0.10806601 0.10806601,-0.10806601 0.0596269,0 0.10806601,0.0483766 0.10806601,0.10806601 0,0.0596894 -0.0484391,0.10806601 -0.10806601,0.10806601 z m 0.40363811,0 c -0.0596894,0 -0.10806601,-0.0483766 -0.10806601,-0.10806601 0,-0.0596894 0.0483766,-0.10806601 0.10806601,-0.10806601 0.0596894,0 0.10806601,0.0483766 0.10806601,0.10806601 0,0.0596894 -0.0483766,0.10806601 -0.10806601,0.10806601 z m 0.40370057,0 c -0.059689,0 -0.1081285,-0.0483766 -0.1081285,-0.10806601 0,-0.0596894 0.048439,-0.10806601 0.1081285,-0.10806601 0.059565,0 0.108066,0.0483766 0.108066,0.10806601 0,0.0596894 -0.048501,0.10806601 -0.108066,0.10806601 z" /><g
     id="g9"
     transform="translate(0,-28.8225)" /><g
     id="g11"
     transform="translate(0,-28.8225)" /><g
     id="g13"
     transform="translate(0,-28.8225)" /><g
     id="g15"
     transform="translate(0,-28.8225)" /><g
     id="g17"
     transform="translate(0,-28.8225)" /><g
     id="g19"
     transform="translate(0,-28.8225)" /><g
     id="g21"
     transform="translate(0,-28.8225)" /><g
     id="g23"
     transform="translate(0,-28.8225)" /><g
     id="g25"
     transform="translate(0,-28.8225)" /><g
     id="g27"
     transform="translate(0,-28.8225)" /><g
     id="g29"
     transform="translate(0,-28.8225)" /><g
     id="g31"
     transform="translate(0,-28.8225)" /><g
     id="g33"
     transform="translate(0,-28.8225)" /><g
     id="g35"
     transform="translate(0,-28.8225)" /><g
     id="g37"
     transform="translate(0,-28.8225)" /></svg>