<?xml version="1.0" encoding="UTF-8" standalone="no"?>
<!-- Generator: Adobe Illustrator 16.0.0, SVG Export Plug-In . SVG Version: 6.00 Build 0)  -->

<svg
   xmlns:dc="http://purl.org/dc/elements/1.1/"
   xmlns:cc="http://creativecommons.org/ns#"
   xmlns:rdf="http://www.w3.org/1999/02/22-rdf-syntax-ns#"
   xmlns:svg="http://www.w3.org/2000/svg"
   xmlns="http://www.w3.org/2000/svg"
   xmlns:sodipodi="http://sodipodi.sourceforge.net/DTD/sodipodi-0.dtd"
   xmlns:inkscape="http://www.inkscape.org/namespaces/inkscape"
   version="1.1"
   id="Capa_1"
   x="0px"
   y="0px"
   width="32"
   height="32"
   viewBox="0 0 1.9214375 1.9215"
   xml:space="preserve"
   inkscape:version="0.91 r13725"
   sodipodi:docname="posts.svg"><metadata
     id="metadata43"><rdf:RDF><cc:Work
         rdf:about=""><dc:format>image/svg+xml</dc:format><dc:type
           rdf:resource="http://purl.org/dc/dcmitype/StillImage" /><dc:title></dc:title></cc:Work></rdf:RDF></metadata><defs
     id="defs41" /><sodipodi:namedview
     pagecolor="#ffffff"
     bordercolor="#666666"
     borderopacity="1"
     objecttolerance="10"
     gridtolerance="10"
     guidetolerance="10"
     inkscape:pageopacity="0"
     inkscape:pageshadow="2"
     inkscape:window-width="1366"
     inkscape:window-height="744"
     id="namedview39"
     showgrid="false"
     inkscape:window-x="0"
     inkscape:window-y="0"
     inkscape:window-maximized="1"
     inkscape:current-layer="Capa_1" /><g
     id="g3"
     transform="matrix(0.06250203,0,0,0.06250203,-3.1164117e-5,4.5396878e-8)"><path
       d="m 28.585,9.67 -0.842,0 0,9.255 c 0,1.441 -0.839,2.744 -2.521,2.744 l -16.479,0 0,0.44 c 0,1.274 1.449,2.56 2.937,2.56 l 12.599,0 4.82,2.834 -0.699,-2.834 0.185,0 c 1.487,0 2.158,-1.283 2.158,-2.56 l 0,-10.242 c 0,-1.274 -0.671,-2.197 -2.158,-2.197 z"
       id="path5"
       inkscape:connector-curvature="0"
       style="fill:#ffda44" /><path
       d="m 22.762,3.24 -19.14,0 C 1.938,3.24 0,4.736 0,6.178 l 0,11.6 c 0,1.328 1.642,2.287 3.217,2.435 l -1.025,3.891 6.568,-3.864 14.002,0 C 24.446,20.24 26,19.219 26,17.778 L 26,8.393 26,6.178 C 26,4.736 24.445,3.24 22.762,3.24 Z m -16.22,9.792 c -0.955,0 -1.729,-0.774 -1.729,-1.729 0,-0.955 0.774,-1.729 1.729,-1.729 0.954,0 1.729,0.774 1.729,1.729 0,0.955 -0.775,1.729 -1.729,1.729 z m 6.458,0 c -0.955,0 -1.729,-0.774 -1.729,-1.729 0,-0.955 0.774,-1.729 1.729,-1.729 0.955,0 1.729,0.774 1.729,1.729 0,0.955 -0.774,1.729 -1.729,1.729 z m 6.459,0 c -0.955,0 -1.73,-0.774 -1.73,-1.729 0,-0.955 0.775,-1.729 1.73,-1.729 0.953,0 1.729,0.774 1.729,1.729 0,0.955 -0.776,1.729 -1.729,1.729 z"
       id="path7"
       inkscape:connector-curvature="0"
       style="fill:#ffda44" /></g><g
     id="g9"
     transform="translate(0,-28.8225)" /><g
     id="g11"
     transform="translate(0,-28.8225)" /><g
     id="g13"
     transform="translate(0,-28.8225)" /><g
     id="g15"
     transform="translate(0,-28.8225)" /><g
     id="g17"
     transform="translate(0,-28.8225)" /><g
     id="g19"
     transform="translate(0,-28.8225)" /><g
     id="g21"
     transform="translate(0,-28.8225)" /><g
     id="g23"
     transform="translate(0,-28.8225)" /><g
     id="g25"
     transform="translate(0,-28.8225)" /><g
     id="g27"
     transform="translate(0,-28.8225)" /><g
     id="g29"
     transform="translate(0,-28.8225)" /><g
     id="g31"
     transform="translate(0,-28.8225)" /><g
     id="g33"
     transform="translate(0,-28.8225)" /><g
     id="g35"
     transform="translate(0,-28.8225)" /><g
     id="g37"
     transform="translate(0,-28.8225)" /></svg>