<?xml version="1.0" encoding="UTF-8" standalone="no"?>
<!-- Generator: Adobe Illustrator 18.1.1, SVG Export Plug-In . SVG Version: 6.00 Build 0)  -->

<svg
   xmlns:dc="http://purl.org/dc/elements/1.1/"
   xmlns:cc="http://creativecommons.org/ns#"
   xmlns:rdf="http://www.w3.org/1999/02/22-rdf-syntax-ns#"
   xmlns:svg="http://www.w3.org/2000/svg"
   xmlns="http://www.w3.org/2000/svg"
   xmlns:sodipodi="http://sodipodi.sourceforge.net/DTD/sodipodi-0.dtd"
   xmlns:inkscape="http://www.inkscape.org/namespaces/inkscape"
   version="1.1"
   id="Capa_1"
   x="0px"
   y="0px"
   viewBox="0 0 16.77975 16.77975"
   xml:space="preserve"
   width="32"
   height="32"
   inkscape:version="0.91 r13725"
   sodipodi:docname="quote.svg"><metadata
     id="metadata40"><rdf:RDF><cc:Work
         rdf:about=""><dc:format>image/svg+xml</dc:format><dc:type
           rdf:resource="http://purl.org/dc/dcmitype/StillImage" /><dc:title></dc:title></cc:Work></rdf:RDF></metadata><defs
     id="defs38" /><sodipodi:namedview
     pagecolor="#ffffff"
     bordercolor="#666666"
     borderopacity="1"
     objecttolerance="10"
     gridtolerance="10"
     guidetolerance="10"
     inkscape:pageopacity="0"
     inkscape:pageshadow="2"
     inkscape:window-width="1366"
     inkscape:window-height="744"
     id="namedview36"
     showgrid="false"
     fit-margin-top="0"
     fit-margin-left="0"
     fit-margin-right="0"
     fit-margin-bottom="0"
     inkscape:window-x="0"
     inkscape:window-y="0"
     inkscape:window-maximized="1"
     inkscape:current-layer="Capa_1" /><g
     id="Comments"
     transform="matrix(0.06250024,0,0,0.06250024,-5.4843486e-7,-3.1797197e-5)"><path
       style="clip-rule:evenodd;fill:#606060;fill-rule:evenodd"
       d="m 232.68,13.424 -196.883,0 C 17.262,13.424 0,30.768 0,49.22 l 0,125.289 c 0,18.453 17.262,35.797 35.797,35.797 l 8.949,0 0,44.746 80.543,-44.746 107.39,0 c 18.534,0 35.796,-17.345 35.796,-35.797 l 0,-125.289 C 268.476,30.768 251.214,13.424 232.68,13.424 Z M 62.644,129.803 c -9.885,0 -17.898,-8.044 -17.898,-17.969 0,-9.923 8.013,-17.968 17.898,-17.968 9.884,0 17.898,8.045 17.898,17.968 0,9.925 -8.013,17.969 -17.898,17.969 z m 71.594,0 c -9.885,0 -17.899,-8.044 -17.899,-17.969 0,-9.923 8.014,-17.968 17.899,-17.968 9.885,0 17.898,8.045 17.898,17.968 0,9.925 -8.014,17.969 -17.898,17.969 z m 71.593,0 c -9.885,0 -17.899,-8.044 -17.899,-17.969 0,-9.923 8.014,-17.968 17.899,-17.968 9.885,0 17.898,8.045 17.898,17.968 10e-4,9.925 -8.012,17.969 -17.898,17.969 z"
       id="path4"
       inkscape:connector-curvature="0" /></g><g
     id="g6"
     transform="translate(-8.0012092e-6,-238.27226)" /><g
     id="g8"
     transform="translate(-8.0012092e-6,-238.27226)" /><g
     id="g10"
     transform="translate(-8.0012092e-6,-238.27226)" /><g
     id="g12"
     transform="translate(-8.0012092e-6,-238.27226)" /><g
     id="g14"
     transform="translate(-8.0012092e-6,-238.27226)" /><g
     id="g16"
     transform="translate(-8.0012092e-6,-238.27226)" /><g
     id="g18"
     transform="translate(-8.0012092e-6,-238.27226)" /><g
     id="g20"
     transform="translate(-8.0012092e-6,-238.27226)" /><g
     id="g22"
     transform="translate(-8.0012092e-6,-238.27226)" /><g
     id="g24"
     transform="translate(-8.0012092e-6,-238.27226)" /><g
     id="g26"
     transform="translate(-8.0012092e-6,-238.27226)" /><g
     id="g28"
     transform="translate(-8.0012092e-6,-238.27226)" /><g
     id="g30"
     transform="translate(-8.0012092e-6,-238.27226)" /><g
     id="g32"
     transform="translate(-8.0012092e-6,-238.27226)" /><g
     id="g34"
     transform="translate(-8.0012092e-6,-238.27226)" /></svg>