<?xml version="1.0" encoding="UTF-8" standalone="no"?>
<!-- Generator: Adobe Illustrator 18.1.1, SVG Export Plug-In . SVG Version: 6.00 Build 0)  -->

<svg
   xmlns:dc="http://purl.org/dc/elements/1.1/"
   xmlns:cc="http://creativecommons.org/ns#"
   xmlns:rdf="http://www.w3.org/1999/02/22-rdf-syntax-ns#"
   xmlns:svg="http://www.w3.org/2000/svg"
   xmlns="http://www.w3.org/2000/svg"
   xmlns:sodipodi="http://sodipodi.sourceforge.net/DTD/sodipodi-0.dtd"
   xmlns:inkscape="http://www.inkscape.org/namespaces/inkscape"
   version="1.1"
   id="Capa_1"
   x="0px"
   y="0px"
   viewBox="0 0 15.101812 15.101812"
   xml:space="preserve"
   width="32"
   height="32"
   inkscape:version="0.91 r13725"
   sodipodi:docname="save.svg"><metadata
     id="metadata3484"><rdf:RDF><cc:Work
         rdf:about=""><dc:format>image/svg+xml</dc:format><dc:type
           rdf:resource="http://purl.org/dc/dcmitype/StillImage" /><dc:title></dc:title></cc:Work></rdf:RDF></metadata><defs
     id="defs3482" /><sodipodi:namedview
     pagecolor="#404040"
     bordercolor="#666666"
     borderopacity="1"
     objecttolerance="10"
     gridtolerance="10"
     guidetolerance="10"
     inkscape:pageopacity="1"
     inkscape:pageshadow="2"
     inkscape:window-width="640"
     inkscape:window-height="480"
     id="namedview3480"
     showgrid="false"
     inkscape:current-layer="Capa_1" /><path
     inkscape:connector-curvature="0"
     id="path3448"
     d="m 7.5509447,5.9778004 2.447031,0 0,-1.7478905 -2.447031,0 0,1.7478905 z m -2.4470701,6.2924216 4.8941011,0 0,-4.1949221 -4.8941011,0 0,4.1949221 z m 6.9915624,-6.5547263 0,-2.883906 0,1.5731248 -1.514844,-1.5731248 -6.5642965,0 0,8.984e-4 c -0.079375,-5.469e-4 -0.1630469,-8.594e-4 -0.2525,-8.594e-4 -0.4182812,0 -0.7574218,0.3521484 -0.7574218,0.7865625 l 0,7.8655078 c 0,0.434375 0.3391406,0.786523 0.7574218,0.786523 0.097969,0 0.1814063,-0.0011 0.2525,-0.0043 l 0,0.0042 0.3884375,0 0,-0.187304 c 0.020937,-0.10418 0,-0.264258 0,-0.511836 l 0,-3.4957811 c 0,-0.54086 0.1908594,-0.699141 0.6991406,-0.699141 l 4.8941011,0 c 0.5192183,0 0.6991403,0.180156 0.6991403,0.699141 l 0,4.1949211 0.388438,0 0,-0.0046 c 0.0718,0.0048 0.155156,0.0046 0.252422,0.0046 0.418359,0 0.757461,-0.352187 0.757461,-0.786523 l 0,-5.7680468 c 0,-3.91e-5 0,-7.82e-5 0,-1.172e-4 z m -1.398281,-0.087266 c 0,0.5299218 -0.179922,0.6991406 -0.699141,0.6991406 l -4.5445701,0 c -0.5191797,0 -0.6991016,-0.1910547 -0.6991016,-0.6991406 l 0,-1.0487109 c 0,-0.5299609 0.1798828,-0.6991406 0.6991016,-0.6991406 l 4.5445308,0 c 0.5301563,0 0.6991403,0.1692188 0.6991403,0.6991406 l 0,1.0487109 z"
     style="clip-rule:evenodd;fill:#ffffff;fill-rule:evenodd;fill-opacity:1" /><g
     id="g3450"
     transform="translate(0,-226.52717)" /><g
     id="g3452"
     transform="translate(0,-226.52717)" /><g
     id="g3454"
     transform="translate(0,-226.52717)" /><g
     id="g3456"
     transform="translate(0,-226.52717)" /><g
     id="g3458"
     transform="translate(0,-226.52717)" /><g
     id="g3460"
     transform="translate(0,-226.52717)" /><g
     id="g3462"
     transform="translate(0,-226.52717)" /><g
     id="g3464"
     transform="translate(0,-226.52717)" /><g
     id="g3466"
     transform="translate(0,-226.52717)" /><g
     id="g3468"
     transform="translate(0,-226.52717)" /><g
     id="g3470"
     transform="translate(0,-226.52717)" /><g
     id="g3472"
     transform="translate(0,-226.52717)" /><g
     id="g3474"
     transform="translate(0,-226.52717)" /><g
     id="g3476"
     transform="translate(0,-226.52717)" /><g
     id="g3478"
     transform="translate(0,-226.52717)" /></svg>