<?xml version="1.0" encoding="UTF-8" standalone="no"?>
<!-- Generator: Adobe Illustrator 18.1.1, SVG Export Plug-In . SVG Version: 6.00 Build 0)  -->

<svg
   xmlns:dc="http://purl.org/dc/elements/1.1/"
   xmlns:cc="http://creativecommons.org/ns#"
   xmlns:rdf="http://www.w3.org/1999/02/22-rdf-syntax-ns#"
   xmlns:svg="http://www.w3.org/2000/svg"
   xmlns="http://www.w3.org/2000/svg"
   xmlns:sodipodi="http://sodipodi.sourceforge.net/DTD/sodipodi-0.dtd"
   xmlns:inkscape="http://www.inkscape.org/namespaces/inkscape"
   version="1.1"
   id="Capa_1"
   x="0px"
   y="0px"
   viewBox="0 0 15.644562 15.644562"
   xml:space="preserve"
   width="32"
   height="32"
   inkscape:version="0.91 r13725"
   sodipodi:docname="search.svg"><metadata
     id="metadata40"><rdf:RDF><cc:Work
         rdf:about=""><dc:format>image/svg+xml</dc:format><dc:type
           rdf:resource="http://purl.org/dc/dcmitype/StillImage" /><dc:title></dc:title></cc:Work></rdf:RDF></metadata><defs
     id="defs38" /><sodipodi:namedview
     pagecolor="#000000"
     bordercolor="#666666"
     borderopacity="1"
     objecttolerance="10"
     gridtolerance="10"
     guidetolerance="10"
     inkscape:pageopacity="0"
     inkscape:pageshadow="2"
     inkscape:window-width="640"
     inkscape:window-height="480"
     id="namedview36"
     showgrid="false"
     inkscape:current-layer="Capa_1"
     inkscape:showpageshadow="false" /><g
     id="Search"
     transform="matrix(0.03906265,0,0,0.03906265,2.9333557,2.9333557)"
     style="fill:#ffffff;fill-opacity:1"><path
       style="clip-rule:evenodd;fill:#ffffff;fill-rule:evenodd;fill-opacity:1"
       d="m 244.186,214.604 -54.379,-54.378 c -0.289,-0.289 -0.628,-0.491 -0.93,-0.76 10.7,-16.231 16.945,-35.66 16.945,-56.554 C 205.822,46.075 159.747,0 102.911,0 46.075,0 0,46.075 0,102.911 c 0,56.835 46.074,102.911 102.91,102.911 20.895,0 40.323,-6.245 56.554,-16.945 0.269,0.301 0.47,0.64 0.759,0.929 l 54.38,54.38 c 8.169,8.168 21.413,8.168 29.583,0 8.168,-8.169 8.168,-21.413 0,-29.582 z M 102.911,170.146 c -37.134,0 -67.236,-30.102 -67.236,-67.235 0,-37.134 30.103,-67.236 67.236,-67.236 37.132,0 67.235,30.103 67.235,67.236 0,37.133 -30.103,67.235 -67.235,67.235 z"
       id="path4"
       inkscape:connector-curvature="0" /></g><g
     id="g6"
     transform="translate(0,-234.66845)" /><g
     id="g8"
     transform="translate(0,-234.66845)" /><g
     id="g10"
     transform="translate(0,-234.66845)" /><g
     id="g12"
     transform="translate(0,-234.66845)" /><g
     id="g14"
     transform="translate(0,-234.66845)" /><g
     id="g16"
     transform="translate(0,-234.66845)" /><g
     id="g18"
     transform="translate(0,-234.66845)" /><g
     id="g20"
     transform="translate(0,-234.66845)" /><g
     id="g22"
     transform="translate(0,-234.66845)" /><g
     id="g24"
     transform="translate(0,-234.66845)" /><g
     id="g26"
     transform="translate(0,-234.66845)" /><g
     id="g28"
     transform="translate(0,-234.66845)" /><g
     id="g30"
     transform="translate(0,-234.66845)" /><g
     id="g32"
     transform="translate(0,-234.66845)" /><g
     id="g34"
     transform="translate(0,-234.66845)" /></svg>