<?xml version="1.0" encoding="UTF-8" standalone="no"?>
<!-- Generator: Adobe Illustrator 16.0.0, SVG Export Plug-In . SVG Version: 6.00 Build 0)  -->

<svg
   xmlns:dc="http://purl.org/dc/elements/1.1/"
   xmlns:cc="http://creativecommons.org/ns#"
   xmlns:rdf="http://www.w3.org/1999/02/22-rdf-syntax-ns#"
   xmlns:svg="http://www.w3.org/2000/svg"
   xmlns="http://www.w3.org/2000/svg"
   xmlns:sodipodi="http://sodipodi.sourceforge.net/DTD/sodipodi-0.dtd"
   xmlns:inkscape="http://www.inkscape.org/namespaces/inkscape"
   version="1.1"
   id="Capa_1"
   x="0px"
   y="0px"
   width="32"
   height="32"
   viewBox="0 0 33.333312 33.333312"
   xml:space="preserve"
   sodipodi:docname="tag.svg"
   inkscape:version="0.92.2 2405546, 2018-03-11"><metadata
   id="metadata41"><rdf:RDF><cc:Work
       rdf:about=""><dc:format>image/svg+xml</dc:format><dc:type
         rdf:resource="http://purl.org/dc/dcmitype/StillImage" /><dc:title></dc:title></cc:Work></rdf:RDF></metadata><defs
   id="defs39">
	
</defs><sodipodi:namedview
   pagecolor="#ffffff"
   bordercolor="#666666"
   borderopacity="1"
   objecttolerance="10"
   gridtolerance="10"
   guidetolerance="10"
   inkscape:pageopacity="0"
   inkscape:pageshadow="2"
   inkscape:window-width="640"
   inkscape:window-height="480"
   id="namedview37"
   showgrid="false"
   inkscape:current-layer="Capa_1" />
<path
   style="fill:#ffda44;stroke-width:16.00003815;stroke:none"
   inkscape:connector-curvature="0"
   id="path2"
   d="m 30.201943,8.625e-5 h -9.39329 c -1.722246,0 -4.12749,0.99624761 -5.345174,2.21399465 L 0.9130134,16.764484 c -1.21768454,1.217684 -1.21768454,3.210429 0,4.428114 l 11.2275356,11.22741 c 1.217685,1.217748 3.210305,1.217748 4.428052,0 L 31.119066,17.869606 c 1.217685,-1.217747 2.213995,-3.623054 2.213995,-5.345112 V 3.1312037 C 33.332998,1.4090829 31.924064,8.625e-5 30.201943,8.625e-5 Z M 26.041391,10.416749 c -1.725871,0 -3.124993,-1.3990594 -3.124993,-3.1249928 0,-1.7258708 1.399122,-3.1249925 3.124993,-3.1249925 1.72587,0 3.124992,1.3991217 3.124992,3.1249925 0,1.7258709 -1.399122,3.1249928 -3.124992,3.1249928 z" />
<g
   id="g6"
   transform="translate(0,-499.99968)">
</g>
<g
   id="g8"
   transform="translate(0,-499.99968)">
</g>
<g
   id="g10"
   transform="translate(0,-499.99968)">
</g>
<g
   id="g12"
   transform="translate(0,-499.99968)">
</g>
<g
   id="g14"
   transform="translate(0,-499.99968)">
</g>
<g
   id="g16"
   transform="translate(0,-499.99968)">
</g>
<g
   id="g18"
   transform="translate(0,-499.99968)">
</g>
<g
   id="g20"
   transform="translate(0,-499.99968)">
</g>
<g
   id="g22"
   transform="translate(0,-499.99968)">
</g>
<g
   id="g24"
   transform="translate(0,-499.99968)">
</g>
<g
   id="g26"
   transform="translate(0,-499.99968)">
</g>
<g
   id="g28"
   transform="translate(0,-499.99968)">
</g>
<g
   id="g30"
   transform="translate(0,-499.99968)">
</g>
<g
   id="g32"
   transform="translate(0,-499.99968)">
</g>
<g
   id="g34"
   transform="translate(0,-499.99968)">
</g>
</svg>