<?xml version="1.0" encoding="UTF-8" standalone="no"?>
<!-- Created with Inkscape (http://www.inkscape.org/) -->

<svg
   xmlns:dc="http://purl.org/dc/elements/1.1/"
   xmlns:cc="http://creativecommons.org/ns#"
   xmlns:rdf="http://www.w3.org/1999/02/22-rdf-syntax-ns#"
   xmlns:svg="http://www.w3.org/2000/svg"
   xmlns="http://www.w3.org/2000/svg"
   xmlns:sodipodi="http://sodipodi.sourceforge.net/DTD/sodipodi-0.dtd"
   xmlns:inkscape="http://www.inkscape.org/namespaces/inkscape"
   width="375.08212"
   height="65.5578"
   viewBox="0 0 99.240475 17.345502"
   version="1.1"
   id="svg8"
   inkscape:version="0.92.2 5c3e80d, 2017-08-06"
   sodipodi:docname="title2.svg">
  <defs
     id="defs2" />
  <sodipodi:namedview
     id="base"
     pagecolor="#ffffff"
     bordercolor="#666666"
     borderopacity="1.0"
     inkscape:pageopacity="0.0"
     inkscape:pageshadow="2"
     inkscape:zoom="0.35"
     inkscape:cx="400"
     inkscape:cy="560"
     inkscape:document-units="mm"
     inkscape:current-layer="layer1"
     showgrid="false"
     inkscape:measure-start="0,0"
     inkscape:measure-end="0,0"
     units="px"
     fit-margin-top="6"
     fit-margin-bottom="2"
     fit-margin-left="0"
     fit-margin-right="0" />
  <metadata
     id="metadata5">
    <rdf:RDF>
      <cc:Work
         rdf:about="">
        <dc:format>image/svg+xml</dc:format>
        <dc:type
           rdf:resource="http://purl.org/dc/dcmitype/StillImage" />
        <dc:title></dc:title>
      </cc:Work>
    </rdf:RDF>
  </metadata>
  <g
     inkscape:label="Layer 1"
     inkscape:groupmode="layer"
     id="layer1"
     transform="translate(-2.1166667,-276.1498)">
    <g
       id="g4544"
       transform="translate(0,1.2578052)">
      <g
         aria-label="AsmBB"
         transform="matrix(0.26458333,0,0,0.26458333,5.4704671,280.90796)"
         style="font-style:normal;font-weight:normal;font-size:72px;line-height:25px;font-family:sans-serif;letter-spacing:0px;word-spacing:0px;fill:#d80027;fill-opacity:1;stroke:none;stroke-width:1px;stroke-linecap:butt;stroke-linejoin:miter;stroke-opacity:1"
         id="flowRoot3699">
        <path
           d="M 27.367187,30.238281 H 6.4140625 l -5.203125,9.5625 H -12.675781 L 16.996094,-12.6875 h 15.46875 l 9.28125,52.488281 H 28.878906 Z M 11.511719,20.710937 H 25.609375 L 22.445312,0.49609327 Z"
           style="font-style:oblique;font-variant:normal;font-weight:bold;font-stretch:normal;font-size:72px;font-family:'Bitstream Vera Sans';-inkscape-font-specification:'Bitstream Vera Sans Bold Oblique';fill:#d80027;fill-opacity:1"
           id="path5571" />
        <path
           d="M 88.011719,1.6562495 86.148437,11.429687 Q 82.457031,9.6718745 78.800781,8.757812 75.144531,7.8437495 71.875,7.8437495 q -3.726563,0 -5.765625,0.984375 -2.003906,0.9492188 -2.003906,2.7421875 0,1.054688 1.125,1.6875 1.125,0.632813 4.429687,1.335938 l 2.285156,0.421875 q 7.628907,1.617187 10.6875,4.183593 3.058594,2.53125 3.058594,7.066407 0,6.855468 -5.378906,10.722656 -5.378906,3.832031 -15.046875,3.832031 -4.042969,0 -8.261719,-0.632812 -4.21875,-0.632813 -8.613281,-1.898438 l 1.898437,-9.878906 q 3.410157,2.003906 7.277344,3.023437 3.902344,1.019532 7.980469,1.019532 3.972656,0 5.976562,-0.949219 2.003907,-0.949219 2.003907,-2.777344 0,-1.265625 -1.125,-1.96875 -1.125,-0.703125 -4.640625,-1.441406 l -2.285157,-0.421875 q -6.75,-1.40625 -9.632812,-4.148438 -2.882813,-2.742187 -2.882813,-7.59375 0,-6.5742185 4.957032,-10.1249997 4.992187,-3.55078128 14.238281,-3.55078128 4.042969,0 7.945312,0.5625 3.9375,0.52734375 7.910157,1.61718748 z"
           style="font-style:oblique;font-variant:normal;font-weight:bold;font-stretch:normal;font-size:72px;font-family:'Bitstream Vera Sans';-inkscape-font-specification:'Bitstream Vera Sans Bold Oblique';fill:#d80027;fill-opacity:1"
           id="path5573" />
        <path
           d="m 135.71875,6.9648433 q 2.91797,-3.6210938 6.60937,-5.5546875 3.72657,-1.93359378 7.73438,-1.93359378 5.27344,0 8.29687,2.91796878 3.0586,2.8828125 3.0586,7.9453122 0,1.054688 -0.17578,2.425782 -0.14063,1.335937 -0.45703,3.058593 l -4.67579,23.976563 h -12.6914 l 3.97265,-20.53125 0.10547,-0.527344 q 0.91407,-4.359375 0.91407,-5.589844 0,-1.933593 -1.125,-3.058593 -1.08985,-1.1250005 -2.98829,-1.1250005 -3.62109,0 -6.15234,2.9882815 -2.49609,2.953125 -3.58594,8.472656 l -3.79687,19.371094 h -12.69141 l 4.04297,-20.53125 q 0.52735,-2.636719 0.73828,-3.972656 0.21094,-1.371094 0.21094,-2.144532 0,-1.96875 -1.08984,-3.058593 -1.08985,-1.1250005 -3.02344,-1.1250005 -3.48047,0 -6.11719,3.0937505 -2.60156,3.058593 -3.62109,8.367187 l -3.79688,19.371094 H 92.792969 L 100.45703,0.42578077 h 12.65625 l -1.16015,5.76562503 q 2.95312,-3.3398438 6.29296,-5.0273438 3.33985,-1.68749998 6.96094,-1.68749998 4.07813,0 6.99609,2.10937498 2.91797,2.0742188 3.51563,5.3789063 z"
           style="font-style:oblique;font-variant:normal;font-weight:bold;font-stretch:normal;font-size:72px;font-family:'Bitstream Vera Sans';-inkscape-font-specification:'Bitstream Vera Sans Bold Oblique';fill:#d80027;fill-opacity:1"
           id="path5575" />
        <path
           d="m 194.46484,7.632812 q 3.6211,0 5.66016,-1.828125 2.03906,-1.828125 2.03906,-5.02734373 0,-2.07421877 -1.4414,-3.16406247 -1.40625,-1.0898438 -4.07813,-1.0898438 h -7.55859 l -2.17969,11.109375 z m -4.00781,22.957031 q 4.64063,0 7.13672,-2.214843 2.49609,-2.214844 2.49609,-6.363282 0,-2.636718 -1.72265,-3.902343 -1.72266,-1.265625 -5.27344,-1.265625 h -7.98047 l -2.67187,13.746093 z m 16.03125,-18.878906 q 3.44531,0.984375 5.30859,3.621094 1.89844,2.601562 1.89844,6.46875 0,8.472656 -6.32812,13.253906 -6.29297,4.746094 -17.71875,4.746094 H 167.18359 L 177.41406,-12.6875 h 20.28516 q 9.35156,0 13.8164,2.742187 4.5,2.7421875 4.5,8.4726563 0,4.8164062 -2.63671,8.4726562 -2.63672,3.6210935 -6.89063,4.7109375 z"
           style="font-style:oblique;font-variant:normal;font-weight:bold;font-stretch:normal;font-size:72px;font-family:'Bitstream Vera Sans';-inkscape-font-specification:'Bitstream Vera Sans Bold Oblique';fill:#d80027;fill-opacity:1"
           id="path5577" />
        <path
           d="m 249.30859,7.632812 q 3.6211,0 5.66016,-1.828125 2.03906,-1.828125 2.03906,-5.02734373 0,-2.07421877 -1.4414,-3.16406247 -1.40625,-1.0898438 -4.07813,-1.0898438 h -7.55859 L 241.75,7.632812 Z m -4.00781,22.957031 q 4.64063,0 7.13672,-2.214843 2.49609,-2.214844 2.49609,-6.363282 0,-2.636718 -1.72265,-3.902343 -1.72266,-1.265625 -5.27344,-1.265625 h -7.98047 l -2.67187,13.746093 z m 16.03125,-18.878906 q 3.44531,0.984375 5.30859,3.621094 1.89844,2.601562 1.89844,6.46875 0,8.472656 -6.32812,13.253906 -6.29297,4.746094 -17.71875,4.746094 H 222.02734 L 232.25781,-12.6875 h 20.28516 q 9.35156,0 13.8164,2.742187 4.5,2.7421875 4.5,8.4726563 0,4.8164062 -2.63671,8.4726562 -2.63672,3.6210935 -6.89063,4.7109375 z"
           style="font-style:oblique;font-variant:normal;font-weight:bold;font-stretch:normal;font-size:72px;font-family:'Bitstream Vera Sans';-inkscape-font-specification:'Bitstream Vera Sans Bold Oblique';fill:#d80027;fill-opacity:1"
           id="path5579" />
      </g>
      <g
         aria-label="AsmBB"
         transform="matrix(0.26458333,0,0,0.26458333,6.5288004,279.84963)"
         style="font-style:normal;font-weight:normal;font-size:72px;line-height:25px;font-family:sans-serif;letter-spacing:0px;word-spacing:0px;fill:#fffff5;fill-opacity:1;stroke:#d80027;stroke-width:0.1;stroke-linecap:butt;stroke-linejoin:miter;stroke-miterlimit:4;stroke-dasharray:none;stroke-opacity:1"
         id="flowRoot3699-2">
        <path
           d="M 27.367187,30.238281 H 6.4140625 l -5.203125,9.5625 H -12.675781 L 16.996094,-12.6875 h 15.46875 l 9.28125,52.488281 H 28.878906 Z M 11.511719,20.710937 H 25.609375 L 22.445312,0.49609327 Z"
           style="font-style:oblique;font-variant:normal;font-weight:bold;font-stretch:normal;font-size:72px;font-family:'Bitstream Vera Sans';-inkscape-font-specification:'Bitstream Vera Sans Bold Oblique';fill:#fffff5;fill-opacity:1;stroke:#d80027;stroke-width:0.1;stroke-miterlimit:4;stroke-dasharray:none;stroke-opacity:1"
           id="path5582" />
        <path
           d="M 88.011719,1.6562495 86.148437,11.429687 Q 82.457031,9.6718745 78.800781,8.757812 75.144531,7.8437495 71.875,7.8437495 q -3.726563,0 -5.765625,0.984375 -2.003906,0.9492188 -2.003906,2.7421875 0,1.054688 1.125,1.6875 1.125,0.632813 4.429687,1.335938 l 2.285156,0.421875 q 7.628907,1.617187 10.6875,4.183593 3.058594,2.53125 3.058594,7.066407 0,6.855468 -5.378906,10.722656 -5.378906,3.832031 -15.046875,3.832031 -4.042969,0 -8.261719,-0.632812 -4.21875,-0.632813 -8.613281,-1.898438 l 1.898437,-9.878906 q 3.410157,2.003906 7.277344,3.023437 3.902344,1.019532 7.980469,1.019532 3.972656,0 5.976562,-0.949219 2.003907,-0.949219 2.003907,-2.777344 0,-1.265625 -1.125,-1.96875 -1.125,-0.703125 -4.640625,-1.441406 l -2.285157,-0.421875 q -6.75,-1.40625 -9.632812,-4.148438 -2.882813,-2.742187 -2.882813,-7.59375 0,-6.5742185 4.957032,-10.1249997 4.992187,-3.55078128 14.238281,-3.55078128 4.042969,0 7.945312,0.5625 3.9375,0.52734375 7.910157,1.61718748 z"
           style="font-style:oblique;font-variant:normal;font-weight:bold;font-stretch:normal;font-size:72px;font-family:'Bitstream Vera Sans';-inkscape-font-specification:'Bitstream Vera Sans Bold Oblique';fill:#fffff5;fill-opacity:1;stroke:#d80027;stroke-width:0.1;stroke-miterlimit:4;stroke-dasharray:none;stroke-opacity:1"
           id="path5584" />
        <path
           d="m 135.71875,6.9648433 q 2.91797,-3.6210938 6.60937,-5.5546875 3.72657,-1.93359378 7.73438,-1.93359378 5.27344,0 8.29687,2.91796878 3.0586,2.8828125 3.0586,7.9453122 0,1.054688 -0.17578,2.425782 -0.14063,1.335937 -0.45703,3.058593 l -4.67579,23.976563 h -12.6914 l 3.97265,-20.53125 0.10547,-0.527344 q 0.91407,-4.359375 0.91407,-5.589844 0,-1.933593 -1.125,-3.058593 -1.08985,-1.1250005 -2.98829,-1.1250005 -3.62109,0 -6.15234,2.9882815 -2.49609,2.953125 -3.58594,8.472656 l -3.79687,19.371094 h -12.69141 l 4.04297,-20.53125 q 0.52735,-2.636719 0.73828,-3.972656 0.21094,-1.371094 0.21094,-2.144532 0,-1.96875 -1.08984,-3.058593 -1.08985,-1.1250005 -3.02344,-1.1250005 -3.48047,0 -6.11719,3.0937505 -2.60156,3.058593 -3.62109,8.367187 l -3.79688,19.371094 H 92.792969 L 100.45703,0.42578077 h 12.65625 l -1.16015,5.76562503 q 2.95312,-3.3398438 6.29296,-5.0273438 3.33985,-1.68749998 6.96094,-1.68749998 4.07813,0 6.99609,2.10937498 2.91797,2.0742188 3.51563,5.3789063 z"
           style="font-style:oblique;font-variant:normal;font-weight:bold;font-stretch:normal;font-size:72px;font-family:'Bitstream Vera Sans';-inkscape-font-specification:'Bitstream Vera Sans Bold Oblique';fill:#fffff5;fill-opacity:1;stroke:#d80027;stroke-width:0.1;stroke-miterlimit:4;stroke-dasharray:none;stroke-opacity:1"
           id="path5586" />
        <path
           d="m 194.46484,7.632812 q 3.6211,0 5.66016,-1.828125 2.03906,-1.828125 2.03906,-5.02734373 0,-2.07421877 -1.4414,-3.16406247 -1.40625,-1.0898438 -4.07813,-1.0898438 h -7.55859 l -2.17969,11.109375 z m -4.00781,22.957031 q 4.64063,0 7.13672,-2.214843 2.49609,-2.214844 2.49609,-6.363282 0,-2.636718 -1.72265,-3.902343 -1.72266,-1.265625 -5.27344,-1.265625 h -7.98047 l -2.67187,13.746093 z m 16.03125,-18.878906 q 3.44531,0.984375 5.30859,3.621094 1.89844,2.601562 1.89844,6.46875 0,8.472656 -6.32812,13.253906 -6.29297,4.746094 -17.71875,4.746094 H 167.18359 L 177.41406,-12.6875 h 20.28516 q 9.35156,0 13.8164,2.742187 4.5,2.7421875 4.5,8.4726563 0,4.8164062 -2.63671,8.4726562 -2.63672,3.6210935 -6.89063,4.7109375 z"
           style="font-style:oblique;font-variant:normal;font-weight:bold;font-stretch:normal;font-size:72px;font-family:'Bitstream Vera Sans';-inkscape-font-specification:'Bitstream Vera Sans Bold Oblique';fill:#fffff5;fill-opacity:1;stroke:#d80027;stroke-width:0.1;stroke-miterlimit:4;stroke-dasharray:none;stroke-opacity:1"
           id="path5588" />
        <path
           d="m 249.30859,7.632812 q 3.6211,0 5.66016,-1.828125 2.03906,-1.828125 2.03906,-5.02734373 0,-2.07421877 -1.4414,-3.16406247 -1.40625,-1.0898438 -4.07813,-1.0898438 h -7.55859 L 241.75,7.632812 Z m -4.00781,22.957031 q 4.64063,0 7.13672,-2.214843 2.49609,-2.214844 2.49609,-6.363282 0,-2.636718 -1.72265,-3.902343 -1.72266,-1.265625 -5.27344,-1.265625 h -7.98047 l -2.67187,13.746093 z m 16.03125,-18.878906 q 3.44531,0.984375 5.30859,3.621094 1.89844,2.601562 1.89844,6.46875 0,8.472656 -6.32812,13.253906 -6.29297,4.746094 -17.71875,4.746094 H 222.02734 L 232.25781,-12.6875 h 20.28516 q 9.35156,0 13.8164,2.742187 4.5,2.7421875 4.5,8.4726563 0,4.8164062 -2.63671,8.4726562 -2.63672,3.6210935 -6.89063,4.7109375 z"
           style="font-style:oblique;font-variant:normal;font-weight:bold;font-stretch:normal;font-size:72px;font-family:'Bitstream Vera Sans';-inkscape-font-specification:'Bitstream Vera Sans Bold Oblique';fill:#fffff5;fill-opacity:1;stroke:#d80027;stroke-width:0.1;stroke-miterlimit:4;stroke-dasharray:none;stroke-opacity:1"
           id="path5590" />
      </g>
    </g>
    <g
       id="g4600"
       transform="matrix(1.2,0,-0.57499535,1,161.51326,0.79369837)"
       style="stroke-width:0.91287094">
      <path
         style="opacity:1;vector-effect:none;fill:#d80027;fill-opacity:1;stroke:#d80027;stroke-width:0.02415304;stroke-miterlimit:4;stroke-dasharray:none;stroke-opacity:1"
         d="M 7.4083333,285.88751 H 86.783333 v 0.52917 H 7.4083333 Z"
         id="rect4546" />
      <path
         style="opacity:1;vector-effect:none;fill:#d80027;fill-opacity:1;stroke:#d80027;stroke-width:0.02415304;stroke-miterlimit:4;stroke-dasharray:none;stroke-opacity:1"
         d="M 7.4083333,287.47501 H 86.783333 v 0.52916 H 7.4083333 Z"
         id="rect4546-8" />
      <path
         style="opacity:1;vector-effect:none;fill:#d80027;fill-opacity:1;stroke:#d80027;stroke-width:0.02415304;stroke-miterlimit:4;stroke-dasharray:none;stroke-opacity:1"
         d="M 7.4083333,289.06256 H 86.783333 v 0.52917 H 7.4083333 Z"
         id="rect4573" />
      <path
         style="opacity:1;vector-effect:none;fill:#d80027;fill-opacity:1;stroke:#d80027;stroke-width:0.02415304;stroke-miterlimit:4;stroke-dasharray:none;stroke-opacity:1"
         d="M 7.4083333,290.65005 H 86.783333 v 0.52917 H 7.4083333 Z"
         id="rect4575" />
    </g>
    <g
       aria-label="power"
       style="font-style:normal;font-weight:normal;font-size:19.04999924px;line-height:6.61458302px;font-family:sans-serif;letter-spacing:0px;word-spacing:0px;fill:#000000;fill-opacity:1;stroke:none;stroke-width:0.26458332px;stroke-linecap:butt;stroke-linejoin:miter;stroke-opacity:1"
       id="text4919">
      <path
         d="m 81.165949,283.16766 -0.297139,1.51929 h -0.930176 l 0.777731,-3.99459 h 0.930175 l -0.08527,0.42375 q 0.211874,-0.25322 0.444417,-0.37207 0.232544,-0.12144 0.509013,-0.12144 0.488343,0 0.772563,0.31006 0.28422,0.31006 0.28422,0.84491 0,0.33331 -0.100769,0.64854 -0.09819,0.31522 -0.28422,0.57361 -0.235128,0.32556 -0.532267,0.49351 -0.294556,0.16794 -0.633037,0.16794 -0.297139,0 -0.506429,-0.11885 -0.206705,-0.12144 -0.348816,-0.37466 z m 0.971517,-1.87327 q -0.356567,0 -0.583943,0.33073 -0.224793,0.32815 -0.224793,0.85525 0,0.23771 0.126607,0.37465 0.129192,0.13436 0.356568,0.13436 0.348816,0 0.576192,-0.32298 0.227376,-0.32556 0.227376,-0.83199 0,-0.26355 -0.124023,-0.40049 -0.12144,-0.13953 -0.353984,-0.13953 z"
         style="font-style:italic;font-variant:normal;font-weight:bold;font-stretch:normal;font-size:5.29166651px;font-family:sans-serif;-inkscape-font-specification:'sans-serif Bold Italic';fill:#d80027;fill-opacity:1;stroke-width:0.26458332px"
         id="path5597" />
      <path
         d="m 85.767736,281.28406 q -0.359152,0 -0.591695,0.32556 -0.232544,0.32556 -0.232544,0.82941 0,0.27388 0.124023,0.41858 0.126607,0.14211 0.366903,0.14211 0.359151,0 0.591695,-0.32557 0.232544,-0.32814 0.232544,-0.83457 0,-0.2713 -0.126608,-0.41341 -0.124023,-0.14211 -0.364318,-0.14211 z m 0.07493,-0.66146 q 0.645956,0 1.015442,0.32814 0.369487,0.32815 0.369487,0.89401 0,0.32814 -0.116272,0.6382 -0.116272,0.30748 -0.338481,0.56327 -0.26355,0.30489 -0.622701,0.45992 -0.359151,0.15503 -0.800984,0.15503 -0.638204,0 -1.007691,-0.32814 -0.366902,-0.32815 -0.366902,-0.894 0,-0.32557 0.118855,-0.63562 0.118856,-0.31265 0.341065,-0.57103 0.258382,-0.29972 0.614949,-0.45475 0.359151,-0.15503 0.793233,-0.15503 z"
         style="font-style:italic;font-variant:normal;font-weight:bold;font-stretch:normal;font-size:5.29166651px;font-family:sans-serif;-inkscape-font-specification:'sans-serif Bold Italic';fill:#d80027;fill-opacity:1;stroke-width:0.26458332px"
         id="path5599" />
      <path
         d="m 87.881302,280.69236 h 0.852661 l 0.100769,1.98955 0.873332,-1.98955 h 0.733805 l 0.105937,1.98438 0.868164,-1.98438 h 0.909505 l -1.322917,2.89388 h -0.981852 l -0.0956,-1.98954 -0.883667,1.98954 H 88.08284 Z"
         style="font-style:italic;font-variant:normal;font-weight:bold;font-stretch:normal;font-size:5.29166651px;font-family:sans-serif;-inkscape-font-specification:'sans-serif Bold Italic';fill:#d80027;fill-opacity:1;stroke-width:0.26458332px"
         id="path5601" />
      <path
         d="m 95.637934,282.24782 -0.03101,0.14728 h -2.165242 q 0,0.0155 -0.0026,0.0465 -0.0026,0.0284 -0.0026,0.0439 0,0.28164 0.167948,0.42117 0.170533,0.13952 0.509013,0.13952 0.291972,0 0.61495,-0.0879 0.325561,-0.0879 0.682129,-0.26096 l -0.142111,0.7183 q -0.33848,0.12402 -0.674377,0.18345 -0.333313,0.062 -0.679545,0.062 -0.676961,0 -1.046448,-0.31264 -0.366902,-0.31264 -0.366902,-0.88367 0,-0.33073 0.116272,-0.64078 0.118855,-0.31265 0.343648,-0.57103 0.266133,-0.31006 0.63562,-0.47025 0.37207,-0.1602 0.824239,-0.1602 0.586527,0 0.930176,0.31264 0.346232,0.31264 0.346232,0.84233 0,0.10335 -0.0155,0.21962 -0.01292,0.11369 -0.04393,0.25063 z m -0.873332,-0.42374 q 0.0078,-0.0336 0.01034,-0.0672 0.0052,-0.0362 0.0052,-0.0698 0,-0.2067 -0.124023,-0.32814 -0.124024,-0.12144 -0.335897,-0.12144 -0.271301,0 -0.462504,0.14986 -0.188619,0.14728 -0.289388,0.43667 z"
         style="font-style:italic;font-variant:normal;font-weight:bold;font-stretch:normal;font-size:5.29166651px;font-family:sans-serif;-inkscape-font-specification:'sans-serif Bold Italic';fill:#d80027;fill-opacity:1;stroke-width:0.26458332px"
         id="path5603" />
      <path
         d="m 98.617081,281.48043 q -0.0956,-0.0543 -0.211874,-0.0827 -0.116272,-0.0284 -0.25063,-0.0284 -0.353984,0 -0.589112,0.22738 -0.232544,0.22738 -0.315226,0.65629 l -0.26355,1.33325 h -0.927592 l 0.563273,-2.89388 h 0.930176 l -0.100769,0.4961 q 0.183451,-0.27389 0.457337,-0.41858 0.276468,-0.14728 0.612365,-0.14728 0.04909,0 0.111105,0.005 0.06201,0.005 0.147277,0.0155 z"
         style="font-style:italic;font-variant:normal;font-weight:bold;font-stretch:normal;font-size:5.29166651px;font-family:sans-serif;-inkscape-font-specification:'sans-serif Bold Italic';fill:#d80027;fill-opacity:1;stroke-width:0.26458332px"
         id="path5605" />
    </g>
  </g>
</svg>
