<?xml version="1.0" encoding="UTF-8" standalone="no"?>
<!-- Generated by IcoMoon.io -->

<svg
   xmlns:dc="http://purl.org/dc/elements/1.1/"
   xmlns:cc="http://creativecommons.org/ns#"
   xmlns:rdf="http://www.w3.org/1999/02/22-rdf-syntax-ns#"
   xmlns:svg="http://www.w3.org/2000/svg"
   xmlns="http://www.w3.org/2000/svg"
   xmlns:xlink="http://www.w3.org/1999/xlink"
   xmlns:sodipodi="http://sodipodi.sourceforge.net/DTD/sodipodi-0.dtd"
   xmlns:inkscape="http://www.inkscape.org/namespaces/inkscape"
   version="1.1"
   width="544"
   height="32"
   viewBox="0 0 17 1"
   id="svg4"
   sodipodi:docname="toolbar.svg"
   inkscape:version="0.92.2 2405546, 2018-03-11">
  <metadata
     id="metadata10">
    <rdf:RDF>
      <cc:Work
         rdf:about="">
        <dc:format>image/svg+xml</dc:format>
        <dc:type
           rdf:resource="http://purl.org/dc/dcmitype/StillImage" />
        <dc:title></dc:title>
      </cc:Work>
    </rdf:RDF>
  </metadata>
  <defs
     id="defs8">
    <radialGradient
       inkscape:collect="always"
       xlink:href="#linearGradient3569"
       id="radialGradient2611"
       cx="9.714344"
       cy="8.7899828"
       fx="9.714344"
       fy="8.7899828"
       r="7.5"
       gradientUnits="userSpaceOnUse"
       gradientTransform="matrix(-7.9382631e-8,0.6037857,-1,-3.6299384e-7,16.289984,5.8618312)" />
    <linearGradient
       id="linearGradient3569">
      <stop
         style="stop-color:#fffffa;stop-opacity:1;"
         offset="0"
         id="stop3571" />
      <stop
         id="stop3577"
         offset="0.5101186"
         style="stop-color:#ffd963;stop-opacity:1;" />
      <stop
         style="stop-color:#ff9900;stop-opacity:1;"
         offset="1"
         id="stop3573" />
    </linearGradient>
    <linearGradient
       inkscape:collect="always"
       xlink:href="#linearGradient3385"
       id="linearGradient3409"
       gradientUnits="userSpaceOnUse"
       x1="0.98294997"
       y1="5.3600893"
       x2="14.243655"
       y2="5.9792886" />
    <linearGradient
       inkscape:collect="always"
       id="linearGradient3385">
      <stop
         style="stop-color:#ffffff;stop-opacity:1;"
         offset="0"
         id="stop3387" />
      <stop
         style="stop-color:#ffffff;stop-opacity:0;"
         offset="1"
         id="stop3389" />
    </linearGradient>
    <radialGradient
       inkscape:collect="always"
       xlink:href="#linearGradient3569"
       id="radialGradient4311"
       gradientUnits="userSpaceOnUse"
       gradientTransform="matrix(-7.9382631e-8,0.6037857,-1,-3.6299384e-7,16.289984,5.8618312)"
       cx="9.714344"
       cy="8.7899828"
       fx="9.714344"
       fy="8.7899828"
       r="7.5" />
    <radialGradient
       inkscape:collect="always"
       xlink:href="#linearGradient3569"
       id="radialGradient4307"
       gradientUnits="userSpaceOnUse"
       gradientTransform="matrix(-7.9382631e-8,0.6037857,-1,-3.6299384e-7,16.289984,5.8618312)"
       cx="9.714344"
       cy="8.7899828"
       fx="9.714344"
       fy="8.7899828"
       r="7.5" />
    <radialGradient
       inkscape:collect="always"
       xlink:href="#linearGradient3569"
       id="radialGradient4305"
       gradientUnits="userSpaceOnUse"
       gradientTransform="matrix(-7.9382631e-8,0.6037857,-1,-3.6299384e-7,16.289984,5.8618312)"
       cx="9.714344"
       cy="8.7899828"
       fx="9.714344"
       fy="8.7899828"
       r="7.5" />
    <radialGradient
       inkscape:collect="always"
       xlink:href="#linearGradient3569"
       id="radialGradient4303"
       gradientUnits="userSpaceOnUse"
       gradientTransform="matrix(-7.9382631e-8,0.6037857,-1,-3.6299384e-7,16.289984,5.8618312)"
       cx="9.714344"
       cy="8.7899828"
       fx="9.714344"
       fy="8.7899828"
       r="7.5" />
    <radialGradient
       inkscape:collect="always"
       xlink:href="#linearGradient3569"
       id="radialGradient4293"
       gradientUnits="userSpaceOnUse"
       gradientTransform="matrix(-7.9382631e-8,0.6037857,-1,-3.6299384e-7,16.289984,5.8618312)"
       cx="9.714344"
       cy="8.7899828"
       fx="9.714344"
       fy="8.7899828"
       r="7.5" />
    <radialGradient
       inkscape:collect="always"
       xlink:href="#linearGradient3569"
       id="radialGradient4291"
       gradientUnits="userSpaceOnUse"
       gradientTransform="matrix(-7.9382631e-8,0.6037857,-1,-3.6299384e-7,16.289984,5.8618312)"
       cx="9.714344"
       cy="8.7899828"
       fx="9.714344"
       fy="8.7899828"
       r="7.5" />
    <radialGradient
       inkscape:collect="always"
       xlink:href="#linearGradient3569"
       id="radialGradient4289"
       gradientUnits="userSpaceOnUse"
       gradientTransform="matrix(-7.9382631e-8,0.6037857,-1,-3.6299384e-7,16.289984,5.8618312)"
       cx="9.714344"
       cy="8.7899828"
       fx="9.714344"
       fy="8.7899828"
       r="7.5" />
    <linearGradient
       inkscape:collect="always"
       xlink:href="#linearGradient3385"
       id="linearGradient1452"
       gradientUnits="userSpaceOnUse"
       x1="0.98294997"
       y1="5.3600893"
       x2="14.243655"
       y2="5.9792886" />
    <linearGradient
       inkscape:collect="always"
       xlink:href="#linearGradient3385"
       id="linearGradient1454"
       gradientUnits="userSpaceOnUse"
       x1="0.98294997"
       y1="5.3600893"
       x2="14.243655"
       y2="5.9792886" />
    <linearGradient
       inkscape:collect="always"
       xlink:href="#linearGradient3385"
       id="linearGradient1456"
       gradientUnits="userSpaceOnUse"
       x1="0.98294997"
       y1="5.3600893"
       x2="14.243655"
       y2="5.9792886" />
    <linearGradient
       inkscape:collect="always"
       xlink:href="#linearGradient3385"
       id="linearGradient1458"
       gradientUnits="userSpaceOnUse"
       x1="0.98294997"
       y1="5.3600893"
       x2="14.243655"
       y2="5.9792886" />
    <linearGradient
       inkscape:collect="always"
       xlink:href="#linearGradient3385"
       id="linearGradient1460"
       gradientUnits="userSpaceOnUse"
       x1="0.98294997"
       y1="5.3600893"
       x2="14.243655"
       y2="5.9792886" />
    <linearGradient
       inkscape:collect="always"
       xlink:href="#linearGradient3385"
       id="linearGradient1462"
       gradientUnits="userSpaceOnUse"
       x1="0.98294997"
       y1="5.3600893"
       x2="14.243655"
       y2="5.9792886" />
    <linearGradient
       inkscape:collect="always"
       xlink:href="#linearGradient3385"
       id="linearGradient1464"
       gradientUnits="userSpaceOnUse"
       x1="0.98294997"
       y1="5.3600893"
       x2="14.243655"
       y2="5.9792886" />
  </defs>
  <sodipodi:namedview
     pagecolor="#ffffff"
     bordercolor="#666666"
     borderopacity="1"
     objecttolerance="10"
     gridtolerance="10"
     guidetolerance="10"
     inkscape:pageopacity="0"
     inkscape:pageshadow="2"
     inkscape:window-width="640"
     inkscape:window-height="480"
     id="namedview6"
     showgrid="true"
     inkscape:pagecheckerboard="true"
     inkscape:current-layer="svg4">
    <inkscape:grid
       type="xygrid"
       id="grid4013"
       spacingx="1"
       spacingy="1" />
  </sodipodi:namedview>
  <path
     d="m 0.68749997,0.46880288 c 0,0 0.12500005,-0.04999 0.12500005,-0.224978 C 0.81250002,-0.01240012 0.49375003,9.8880346e-5 0.375,9.8880346e-5 H 0.125 V 0.99999988 h 0.25 c 0.23125004,0 0.49999999,0 0.49999999,-0.274973 0,-0.237476 -0.18750002,-0.256224 -0.18750002,-0.256224 z m -0.12499995,-0.193731 c 0,0.112489 -0.0937503,0.09999 -0.18750002,0.09999 v -0.187482 c 0.11250001,0 0.18750002,0.0062 0.18750002,0.08749 z M 0.375,0.81251888 v -0.249976 c 0.11250001,0 0.24999999,-0.01875 0.24999999,0.137487 0,0.118738 -0.15625003,0.112489 -0.24999999,0.112489 z"
     id="path2"
     inkscape:connector-curvature="0"
     style="fill:#ffffff;stroke-width:1.00000012" />
  <path
     inkscape:connector-curvature="0"
     style="fill:#ffffff;stroke-width:1"
     d="M 1.5,0 H 1.6875 L 1.5,1 H 1.3125 Z"
     id="path40" />
  <path
     inkscape:connector-curvature="0"
     style="fill:#ffffff;stroke-width:1"
     d="M 2.125,0.9375 H 2.8688017 V 1 H 2.125 Z"
     id="path105" />
  <path
     inkscape:connector-curvature="0"
     style="fill:#ffffff;stroke-width:1"
     d="m 2.6828512,0 v 0.525 c 0,0.09375 -0.068182,0.1625 -0.161157,0.1625 h -0.049587 c -0.092975,0 -0.161157,-0.06875 -0.161157,-0.1625 V 0 H 2.125 v 0.525 c 0,0.19375 0.1549587,0.35 0.3471074,0.35 h 0.055785 C 2.7200413,0.875 2.875,0.71875 2.875,0.525 V 0 Z"
     id="path107" />
  <path
     inkscape:connector-curvature="0"
     style="fill:#ffffff;stroke-width:1"
     d="m 3.6562499,0.4399222 c -0.03125,-0.018669 -0.0625,-0.031116 -0.0875,-0.043562 -0.125,-0.056008 -0.13125,-0.068454 -0.125,-0.1182394 0.00625,-0.049785 0.024999,-0.062231 0.0375,-0.074677 C 3.5374999,0.1723278 3.65625,0.1972238 3.7,0.2158898 L 3.76875,0.0416423 c -0.024999,-0.012446 -0.23125,-0.087124 -0.38125,0 -0.05,0.031116 -0.11875,0.093347 -0.13125,0.2115862 C 3.24375,0.3341295 3.2625,0.3963604 3.3,0.4399222 H 3 v 0.062231 h 1 v -0.062231 z"
     id="path88" />
  <path
     inkscape:connector-curvature="0"
     style="fill:#ffffff;stroke-width:1"
     d="m 3.4812498,0.5643847 c 0,0 0.00625,0 0.00625,0.00622 0.125,0.056008 0.15,0.074677 0.1375,0.1555781 -0.0125,0.056008 -0.03125,0.068454 -0.05,0.080901 -0.06875,0.037339 -0.20625,0 -0.275,-0.031116 L 3.2250008,0.937769 C 3.2437508,0.943989 3.3687508,1 3.5062507,1 c 0.05625,0 0.1125001,-0.012446 0.1625001,-0.037339 0.05625,-0.031116 0.125,-0.087124 0.15,-0.2115862 0.0125,-0.080901 0,-0.1431319 -0.024999,-0.1929169 H 3.4812517 Z"
     id="path90" />
  <path
     inkscape:connector-curvature="0"
     style="fill:#ffffff;stroke-width:1"
     d="m 4.13125,0.19375 c 0.0125,0.08125 0.025,0.1 0.025,0.18125 0,0.05 -0.09375,0.09375 -0.09375,0.09375 v 0.0625 c 0,0 0.09375,0.04375 0.09375,0.09375 0,0.08125 -0.0125,0.1 -0.025,0.18125 C 4.1125,0.9375 4.18125,1 4.24375,1 4.30625,1 4.375,1 4.375,1 V 0.875 c 0,0 -0.1125,0.0125 -0.1125,-0.0625 0,-0.05625 0.0125,-0.05625 0.025,-0.18125 C 4.29375,0.575 4.25625,0.53125 4.21875,0.5 4.25625,0.46875 4.29375,0.43125 4.2875,0.375 4.26875,0.25 4.2625,0.25 4.2625,0.19375 4.2625,0.11875 4.375,0.125 4.375,0.125 V 0 C 4.375,0 4.3125,0 4.24375,0 4.175,0 4.1125,0.0625 4.13125,0.19375 Z"
     id="path28" />
  <path
     inkscape:connector-curvature="0"
     style="fill:#ffffff;stroke-width:1"
     d="m 4.86875,0.19375 c -0.0125,0.08125 -0.025,0.1 -0.025,0.18125 0,0.05 0.09375,0.09375 0.09375,0.09375 v 0.0625 c 0,0 -0.09375,0.04375 -0.09375,0.09375 0,0.08125 0.0125,0.1 0.025,0.18125 C 4.8875,0.9375 4.81875,1 4.75625,1 4.69375,1 4.625,1 4.625,1 V 0.875 c 0,0 0.1125,0.0125 0.1125,-0.0625 C 4.7375,0.75625 4.725,0.75625 4.7125,0.63125 4.70625,0.575 4.74375,0.53125 4.78125,0.5 4.74375,0.46875 4.70625,0.43125 4.7125,0.375 4.725,0.25 4.7375,0.25 4.7375,0.19375 4.7375,0.11875 4.625,0.125 4.625,0.125 V 0 c 0,0 0.0625,0 0.13125,0 0.06875,0 0.13125,0.0625 0.1125,0.19375 z"
     id="path30" />
  <path
     inkscape:connector-curvature="0"
     style="fill:#ffffff;stroke-width:1"
     d="m 5.929577,0.0660376 c -0.087637,-0.08805 -0.2316117,-0.08805 -0.3192486,0 l -0.27543,0.2704402 c -0.087637,0.09434 -0.087637,0.2327044 0,0.327044 0.00626,0.00629 0.018779,0.012579 0.025039,0.018867 l 0.093897,-0.09434 c -0.00626,-0.00629 -0.018779,-0.012578 -0.025039,-0.018867 -0.037559,-0.037736 -0.037559,-0.1006289 0,-0.1383648 l 0.27543,-0.2767295 c 0.037559,-0.037736 0.1001564,-0.037736 0.1377152,0 0.037559,0.037736 0.037559,0.1006289 0,0.1383647 l -0.081377,0.081761 c 0.025039,0.050314 0.031299,0.1069182 0.025039,0.1572326 L 5.9295774,0.3867917 c 0.093897,-0.08805 0.093897,-0.2327043 -4e-7,-0.3207541 z"
     id="path50" />
  <path
     inkscape:connector-curvature="0"
     style="fill:#ffffff;stroke-width:1"
     d="m 5.6353676,0.3176099 -0.093897,0.09434 c 0,0 0.018779,0.012578 0.025039,0.018868 0.037559,0.037736 0.037559,0.1006289 0,0.1383648 L 5.2910795,0.8459121 c -0.037559,0.037736 -0.1001563,0.037736 -0.137715,0 -0.037559,-0.037736 -0.037559,-0.1006288 0,-0.1383647 l 0.081377,-0.081761 C 5.2097024,0.5754724 5.2284814,0.5440254 5.2097024,0.4685538 L 5.0657277,0.6132079 c -0.087637,0.08805 -0.087637,0.2327042 0,0.3207546 0.087637,0.08805 0.2316116,0.08805 0.3192485,0 l 0.2754301,-0.27673 c 0.087637,-0.08805 0.087637,-0.2327043 0,-0.3207546 -0.01252,-0.00629 -0.025039,-0.018867 -0.025039,-0.018868 z"
     id="path52" />
  <path
     inkscape:connector-curvature="0"
     style="fill:#ffffff;stroke-width:1"
     d="M 7,0.875 H 6 V 0.125 H 7 Z M 6.0625,0.8125 h 0.875 v -0.625 h -0.875 z"
     id="path62" />
  <path
     inkscape:connector-curvature="0"
     style="fill:#ffffff;stroke-width:1"
     d="M 6.125,0.625 V 0.75 h 0.75 V 0.6875 c 0,0 0.0125,-0.10625 -0.125,-0.125 C 6.63125,0.54375 6.6125,0.6 6.5125,0.6 6.44375,0.6 6.45625,0.5 6.3125,0.5 6.20625,0.5 6.125,0.625 6.125,0.625 Z"
     id="path64" />
  <path
     inkscape:connector-curvature="0"
     style="fill:#ffffff;stroke-width:1"
     d="m 6.8125,0.375 c 0,0.069062 -0.055937,0.125 -0.125,0.125 -0.069063,0 -0.125,-0.055938 -0.125,-0.125 0,-0.069063 0.055937,-0.125 0.125,-0.125 0.069063,0 0.125,0.055937 0.125,0.125 z"
     id="path66" />
  <path
     inkscape:connector-curvature="0"
     style="fill:#ffffff;stroke-width:1"
     d="M 7.4375,0.4375 V 0.875 H 7 V 0.43125 c 0,-0.3 0.28125,-0.3375 0.28125,-0.3375 l 0.0375,0.0875 c 0,0 -0.125,0.01875 -0.15,0.11875 -0.025,0.075 0.025,0.1375 0.025,0.1375 z"
     id="path76" />
  <path
     inkscape:connector-curvature="0"
     style="fill:#ffffff;stroke-width:1"
     d="M 8,0.4375 V 0.875 H 7.5625 V 0.43125 c 0,-0.3 0.28125,-0.3375 0.28125,-0.3375 l 0.0375,0.0875 c 0,0 -0.125,0.01875 -0.15,0.11875 -0.025,0.075 0.025,0.1375 0.025,0.1375 z"
     id="path78" />
  <rect
     y="0"
     x="8"
     width="0.15625"
     height="1"
     style="fill:#ffffff;stroke:none;stroke-width:0.0031"
     id="rect2" />
  <rect
     x="8.5625"
     y="0.8125"
     width="0.1875"
     height="0.125"
     style="fill:#ffffff;stroke:none;stroke-width:0.0031"
     id="rect4" />
  <rect
     x="8.5625"
     y="0.5625"
     width="0.1875"
     height="0.125"
     style="fill:#ffffff;stroke:none;stroke-width:0.0031"
     id="rect6" />
  <rect
     x="8.5625"
     y="0.3125"
     width="0.1875"
     height="0.125"
     style="fill:#ffffff;stroke:none;stroke-width:0.0031"
     id="rect8" />
  <rect
     x="8.5625"
     y="0.0625"
     width="0.1875"
     height="0.125"
     style="fill:#ffffff;stroke:none;stroke-width:0.0031"
     id="rect10" />
  <rect
     x="8.3125"
     y="0.5625"
     width="0.1875"
     height="0.125"
     style="fill:#ffffff;stroke:none;stroke-width:0.0031"
     id="rect12" />
  <rect
     x="8.3125"
     y="0.0625"
     width="0.1875"
     height="0.125"
     style="fill:#ffffff;stroke:none;stroke-width:0.0031"
     id="rect14" />
  <rect
     x="8.8125"
     y="0.3125"
     width="0.1875"
     height="0.125"
     style="fill:#ffffff;stroke:none;stroke-width:0.0031"
     id="rect16" />
  <rect
     x="8.8125"
     y="0.0625"
     width="0.1875"
     height="0.125"
     style="fill:#ffffff;stroke:none;stroke-width:0.0031"
     id="rect18" />
  <g
     id="g4389"
     transform="matrix(0.06919643,0,0,0.06919643,8.6215349,-0.0915149)"
     style="stroke-width:0.45161295">
    <circle
       transform="translate(34.098462,0.04834405)"
       id="path2386"
       style="display:inline;overflow:visible;visibility:visible;opacity:1;fill:url(#radialGradient2611);fill-opacity:1;fill-rule:nonzero;stroke:#000000;stroke-width:0.45161295;stroke-linecap:round;stroke-linejoin:round;stroke-miterlimit:4;stroke-dasharray:none;stroke-dashoffset:0;stroke-opacity:1;marker:none;marker-start:none;marker-mid:none;marker-end:none;enable-background:accumulate"
       cx="7.5"
       cy="8.5"
       r="7" />
    <ellipse
       transform="matrix(0.05987609,0.8217059,-1.2823004,0.03836896,48.531397,-0.874976)"
       id="path3407"
       style="display:inline;overflow:visible;visibility:visible;opacity:1;fill:url(#linearGradient1452);fill-opacity:1;fill-rule:nonzero;stroke:none;stroke-width:0.49446285;stroke-linecap:round;stroke-linejoin:round;stroke-miterlimit:4;stroke-dasharray:none;stroke-dashoffset:0;stroke-opacity:1;marker:none;marker-start:none;marker-mid:none;marker-end:none;enable-background:accumulate"
       cx="8.568388"
       cy="5.7142859"
       rx="4.8541021"
       ry="4" />
    <path
       sodipodi:nodetypes="cscc"
       id="path3158"
       d="m 36.598462,8.548344 c 0,3.312 2.24,5 5,5 2.76,0 5,-1.688 5,-5 z"
       style="fill:#ffffff;fill-opacity:1;stroke:#000000;stroke-width:0.45161295;stroke-linecap:round;stroke-linejoin:round;stroke-miterlimit:4;stroke-dasharray:none;stroke-dashoffset:0;stroke-opacity:1"
       inkscape:connector-curvature="0" />
    <path
       sodipodi:nodetypes="cc"
       id="path3163"
       d="m 37.598462,6.548344 c 0,-2 3,-2 3,0"
       style="fill:none;fill-opacity:1;stroke:#000000;stroke-width:0.45161295;stroke-linecap:round;stroke-linejoin:round;stroke-miterlimit:4;stroke-dasharray:none;stroke-dashoffset:0;stroke-opacity:1"
       inkscape:connector-curvature="0" />
    <path
       style="fill:none;fill-opacity:1;stroke:#000000;stroke-width:0.45161295;stroke-linecap:round;stroke-linejoin:round;stroke-miterlimit:4;stroke-dasharray:none;stroke-dashoffset:0;stroke-opacity:1"
       d="m 42.598462,6.548344 c 0,-2 3,-2 3,0"
       id="path3165"
       sodipodi:nodetypes="cc"
       inkscape:connector-curvature="0" />
    <path
       sodipodi:nodetypes="cccc"
       id="path3173"
       d="m 43.598462,13.048344 v -4.5 m -4,0 v 4.5"
       style="fill:none;fill-opacity:1;stroke:#000000;stroke-width:0.45161295;stroke-linecap:round;stroke-linejoin:round;stroke-miterlimit:4;stroke-dasharray:none;stroke-dashoffset:0;stroke-opacity:1"
       inkscape:connector-curvature="0" />
  </g>
  <g
     id="g4313"
     transform="matrix(0.06919642,0,0,0.06919605,8.8358208,-0.09150895)"
     style="stroke-width:0.45161417">
    <circle
       style="fill:url(#radialGradient4311);fill-opacity:1;stroke:#000000;stroke-width:0.45161417;stroke-linecap:round;stroke-linejoin:round;stroke-miterlimit:4;stroke-dasharray:none;stroke-dashoffset:0;stroke-opacity:1"
       id="path2384"
       cx="7.5"
       cy="8.5"
       r="7"
       transform="translate(2.0984621,0.04834405)" />
    <ellipse
       transform="matrix(0.05987609,0.8217059,-1.2823004,0.03836896,16.48884,-0.801765)"
       id="path2613"
       style="display:inline;overflow:visible;visibility:visible;opacity:1;fill:url(#linearGradient1454);fill-opacity:1;fill-rule:nonzero;stroke:none;stroke-width:0.49446422;stroke-linecap:round;stroke-linejoin:round;stroke-miterlimit:4;stroke-dasharray:none;stroke-dashoffset:0;stroke-opacity:1;marker:none;marker-start:none;marker-mid:none;marker-end:none;enable-background:accumulate"
       cx="8.568388"
       cy="5.7142859"
       rx="4.8541021"
       ry="4" />
    <path
       style="fill:none;fill-opacity:1;stroke:#000000;stroke-width:0.45161417;stroke-linecap:round;stroke-linejoin:round;stroke-miterlimit:4;stroke-dasharray:none;stroke-dashoffset:0;stroke-opacity:1"
       d="m 5.5984621,8.548344 c 0,3 2,4 4,4 1.9999999,0 3.9999999,-1 3.9999999,-4"
       id="path3156"
       sodipodi:nodetypes="csc"
       inkscape:connector-curvature="0" />
    <circle
       transform="translate(-12.901538,1.048344)"
       id="path3172"
       style="fill:#000000;fill-opacity:1;stroke:#000000;stroke-width:0.45161417;stroke-linecap:round;stroke-linejoin:round;stroke-miterlimit:4;stroke-dasharray:none;stroke-dashoffset:0;stroke-opacity:1"
       cx="20.5"
       cy="4.5"
       r="1" />
    <circle
       transform="translate(-8.9015382,1.048344)"
       style="fill:#000000;fill-opacity:1;stroke:#000000;stroke-width:0.45161417;stroke-linecap:round;stroke-linejoin:round;stroke-miterlimit:4;stroke-dasharray:none;stroke-dashoffset:0;stroke-opacity:1"
       id="path3174"
       cx="20.5"
       cy="4.5"
       r="1" />
  </g>
  <g
     id="g4336"
     transform="matrix(0.06919643,0,0,0.06919643,8.7286778,-0.0915149)"
     style="stroke-width:0.45161295">
    <circle
       transform="translate(18.098462,0.04834405)"
       id="path3184"
       style="display:inline;overflow:visible;visibility:visible;opacity:1;fill:url(#radialGradient4307);fill-opacity:1;fill-rule:nonzero;stroke:#000000;stroke-width:0.45161295;stroke-linecap:round;stroke-linejoin:round;stroke-miterlimit:4;stroke-dasharray:none;stroke-dashoffset:0;stroke-opacity:1;marker:none;marker-start:none;marker-mid:none;marker-end:none;enable-background:accumulate"
       cx="7.5"
       cy="8.5"
       r="7" />
    <ellipse
       transform="matrix(0.05987609,0.8217059,-1.2823004,0.03836896,32.473204,-0.798686)"
       id="path3403"
       style="display:inline;overflow:visible;visibility:visible;opacity:1;fill:url(#linearGradient1456);fill-opacity:1;fill-rule:nonzero;stroke:none;stroke-width:0.49446285;stroke-linecap:round;stroke-linejoin:round;stroke-miterlimit:4;stroke-dasharray:none;stroke-dashoffset:0;stroke-opacity:1;marker:none;marker-start:none;marker-mid:none;marker-end:none;enable-background:accumulate"
       cx="8.568388"
       cy="5.7142859"
       rx="4.8541021"
       ry="4" />
    <path
       sodipodi:nodetypes="czsz"
       id="path3186"
       d="m 29.598462,8.548344 h -8 c 0,3 2,4 4,4 2,0 4,-1 4,-4 z"
       style="fill:#ffffff;fill-opacity:1;stroke:#000000;stroke-width:0.45161295;stroke-linecap:round;stroke-linejoin:round;stroke-miterlimit:4;stroke-dasharray:none;stroke-dashoffset:0;stroke-opacity:1"
       inkscape:connector-curvature="0" />
    <circle
       style="fill:#000000;fill-opacity:1;stroke:#000000;stroke-width:0.45161295;stroke-linecap:round;stroke-linejoin:round;stroke-miterlimit:4;stroke-dasharray:none;stroke-dashoffset:0;stroke-opacity:1"
       id="path3188"
       transform="translate(3.0984621,1.048344)"
       cx="20.5"
       cy="4.5"
       r="1" />
    <circle
       id="path3190"
       style="fill:#000000;fill-opacity:1;stroke:#000000;stroke-width:0.45161295;stroke-linecap:round;stroke-linejoin:round;stroke-miterlimit:4;stroke-dasharray:none;stroke-dashoffset:0;stroke-opacity:1"
       transform="translate(7.0984621,1.048344)"
       cx="20.5"
       cy="4.5"
       r="1" />
  </g>
  <g
     id="g4397"
     transform="matrix(0.06919643,0,0,0.06919643,8.5143921,-0.0915149)"
     style="stroke-width:0.45161295">
    <circle
       inkscape:export-ydpi="90"
       inkscape:export-xdpi="90"
       inkscape:export-filename="/home/qubodup/LÖVE&amp;HÄTE/path3277.png"
       transform="translate(50.098462,0.04834405)"
       id="path3267"
       style="display:inline;overflow:visible;visibility:visible;opacity:1;fill:url(#radialGradient4305);fill-opacity:1;fill-rule:nonzero;stroke:#000000;stroke-width:0.45161295;stroke-linecap:round;stroke-linejoin:round;stroke-miterlimit:4;stroke-dasharray:none;stroke-dashoffset:0;stroke-opacity:1;marker:none;marker-start:none;marker-mid:none;marker-end:none;enable-background:accumulate"
       cx="7.5"
       cy="8.5"
       r="7" />
    <ellipse
       transform="matrix(0.05987609,0.8217059,-1.2823004,0.03836896,64.378816,-0.747175)"
       id="path3412"
       style="display:inline;overflow:visible;visibility:visible;opacity:1;fill:url(#linearGradient1458);fill-opacity:1;fill-rule:nonzero;stroke:none;stroke-width:0.49446285;stroke-linecap:round;stroke-linejoin:round;stroke-miterlimit:4;stroke-dasharray:none;stroke-dashoffset:0;stroke-opacity:1;marker:none;marker-start:none;marker-mid:none;marker-end:none;enable-background:accumulate"
       cx="8.568388"
       cy="5.7142859"
       rx="4.8541021"
       ry="4" />
    <path
       inkscape:export-ydpi="90"
       inkscape:export-xdpi="90"
       inkscape:export-filename="/home/qubodup/LÖVE&amp;HÄTE/path3277.png"
       sodipodi:nodetypes="csc"
       id="path3269"
       d="m 53.598462,7.548344 c 0,4 2,5 4,5 2,0 4,-1 4,-4"
       style="fill:none;fill-opacity:1;stroke:#000000;stroke-width:0.45161295;stroke-linecap:round;stroke-linejoin:round;stroke-miterlimit:4;stroke-dasharray:none;stroke-dashoffset:0;stroke-opacity:1"
       inkscape:connector-curvature="0" />
    <circle
       inkscape:export-ydpi="90"
       inkscape:export-xdpi="90"
       inkscape:export-filename="/home/qubodup/LÖVE&amp;HÄTE/path3277.png"
       id="path3273"
       style="fill:#000000;fill-opacity:1;stroke:#000000;stroke-width:0.45161295;stroke-linecap:round;stroke-linejoin:round;stroke-miterlimit:4;stroke-dasharray:none;stroke-dashoffset:0;stroke-opacity:1"
       transform="translate(39.098462,1.048344)"
       cx="20.5"
       cy="4.5"
       r="1" />
    <path
       inkscape:export-ydpi="90"
       inkscape:export-xdpi="90"
       sodipodi:nodetypes="cc"
       id="path3277"
       d="m 56.598462,5.548344 h -2"
       style="fill:#ecf3f7;fill-opacity:1;stroke:#000000;stroke-width:0.45161295;stroke-linecap:round;stroke-linejoin:round;stroke-miterlimit:4;stroke-dasharray:none;stroke-dashoffset:0;stroke-opacity:1"
       inkscape:connector-curvature="0" />
  </g>
  <g
     id="g4425"
     transform="matrix(0.06919643,0,0,0.06919643,11.621535,-1.1986577)"
     style="stroke-width:0.45161295">
    <circle
       transform="translate(34.098462,16.048344)"
       id="path3279"
       style="display:inline;overflow:visible;visibility:visible;opacity:1;fill:url(#radialGradient4303);fill-opacity:1;fill-rule:nonzero;stroke:#000000;stroke-width:0.45161295;stroke-linecap:round;stroke-linejoin:round;stroke-miterlimit:4;stroke-dasharray:none;stroke-dashoffset:0;stroke-opacity:1;marker:none;marker-start:none;marker-mid:none;marker-end:none;enable-background:accumulate"
       cx="7.5"
       cy="8.5"
       r="7" />
    <ellipse
       transform="matrix(0.05987609,0.8217059,-1.2823004,0.03836896,48.403596,15.228046)"
       id="path3428"
       style="display:inline;overflow:visible;visibility:visible;opacity:1;fill:url(#linearGradient1460);fill-opacity:1;fill-rule:nonzero;stroke:none;stroke-width:0.49446285;stroke-linecap:round;stroke-linejoin:round;stroke-miterlimit:4;stroke-dasharray:none;stroke-dashoffset:0;stroke-opacity:1;marker:none;marker-start:none;marker-mid:none;marker-end:none;enable-background:accumulate"
       cx="8.568388"
       cy="5.7142859"
       rx="4.8541021"
       ry="4" />
    <path
       sodipodi:nodetypes="csc"
       id="path3281"
       d="m 37.598462,27.548344 c 0,-2 2,-3 4,-3 2,0 4,1 4,3"
       style="fill:none;fill-opacity:1;stroke:#000000;stroke-width:0.45161295;stroke-linecap:round;stroke-linejoin:round;stroke-miterlimit:4;stroke-dasharray:none;stroke-dashoffset:0;stroke-opacity:1"
       inkscape:connector-curvature="0" />
    <circle
       style="fill:#000000;fill-opacity:1;stroke:#000000;stroke-width:0.45161295;stroke-linecap:round;stroke-linejoin:round;stroke-miterlimit:4;stroke-dasharray:none;stroke-dashoffset:0;stroke-opacity:1"
       id="path3283"
       transform="translate(19.098462,17.048344)"
       cx="20.5"
       cy="4.5"
       r="1" />
    <circle
       id="path3285"
       style="fill:#000000;fill-opacity:1;stroke:#000000;stroke-width:0.45161295;stroke-linecap:round;stroke-linejoin:round;stroke-miterlimit:4;stroke-dasharray:none;stroke-dashoffset:0;stroke-opacity:1"
       transform="translate(23.098462,17.048344)"
       cx="20.5"
       cy="4.5"
       r="1" />
  </g>
  <g
     id="g4320"
     transform="matrix(0.06919643,0,0,0.06919643,12.835821,-1.1986578)"
     style="stroke-width:0.45161295">
    <circle
       transform="translate(2.0984621,16.048344)"
       id="path3374"
       style="display:inline;overflow:visible;visibility:visible;opacity:1;fill:url(#radialGradient4293);fill-opacity:1;fill-rule:nonzero;stroke:#000000;stroke-width:0.45161295;stroke-linecap:round;stroke-linejoin:round;stroke-miterlimit:4;stroke-dasharray:none;stroke-dashoffset:0;stroke-opacity:1;marker:none;marker-start:none;marker-mid:none;marker-end:none;enable-background:accumulate"
       cx="7.5"
       cy="8.5"
       r="7" />
    <ellipse
       transform="matrix(0.05987609,0.8217059,-1.2823004,0.03836896,16.453156,15.355847)"
       id="path3436"
       style="display:inline;overflow:visible;visibility:visible;opacity:1;fill:url(#linearGradient1462);fill-opacity:1;fill-rule:nonzero;stroke:none;stroke-width:0.49446285;stroke-linecap:round;stroke-linejoin:round;stroke-miterlimit:4;stroke-dasharray:none;stroke-dashoffset:0;stroke-opacity:1;marker:none;marker-start:none;marker-mid:none;marker-end:none;enable-background:accumulate"
       cx="8.568388"
       cy="5.7142859"
       rx="4.8541021"
       ry="4" />
    <circle
       style="fill:#000000;fill-opacity:1;stroke:#000000;stroke-width:0.45161295;stroke-linecap:round;stroke-linejoin:round;stroke-miterlimit:4;stroke-dasharray:none;stroke-dashoffset:0;stroke-opacity:1"
       id="path3378"
       transform="translate(-12.901538,17.048344)"
       cx="20.5"
       cy="4.5"
       r="1" />
    <circle
       id="path3380"
       style="fill:#000000;fill-opacity:1;stroke:#000000;stroke-width:0.45161295;stroke-linecap:round;stroke-linejoin:round;stroke-miterlimit:4;stroke-dasharray:none;stroke-dashoffset:0;stroke-opacity:1"
       transform="translate(-8.9015382,17.048344)"
       cx="20.5"
       cy="4.5"
       r="1" />
    <path
       sodipodi:nodetypes="cccc"
       id="path3384"
       d="m 8.5984621,25.548344 v 3 c 0,1 3.9999999,1 3.9999999,0 v -3"
       style="fill:#fda7ff;fill-opacity:1;stroke:#6b1a6f;stroke-width:0.45161295;stroke-linecap:round;stroke-linejoin:round;stroke-miterlimit:4;stroke-dasharray:none;stroke-dashoffset:0;stroke-opacity:1"
       inkscape:connector-curvature="0" />
    <path
       id="path3386"
       d="m 10.598462,25.548344 v 2"
       style="fill:none;fill-opacity:1;stroke:#6b1a6f;stroke-width:0.45161295;stroke-linecap:round;stroke-linejoin:round;stroke-miterlimit:4;stroke-dasharray:none;stroke-dashoffset:0;stroke-opacity:1"
       inkscape:connector-curvature="0" />
    <path
       id="path3382"
       d="M 5.5984621,25.548344 H 13.598462"
       style="fill:none;fill-opacity:1;stroke:#000000;stroke-width:0.45161295;stroke-linecap:round;stroke-linejoin:round;stroke-miterlimit:4;stroke-dasharray:none;stroke-dashoffset:0;stroke-opacity:1"
       inkscape:connector-curvature="0" />
  </g>
  <g
     id="g4380"
     transform="matrix(0.06919643,0,0,0.06919643,11.407249,-1.1986577)"
     style="stroke-width:0.45161295">
    <circle
       style="display:inline;overflow:visible;visibility:visible;opacity:1;fill:url(#radialGradient4291);fill-opacity:1;fill-rule:nonzero;stroke:#000000;stroke-width:0.45161295;stroke-linecap:round;stroke-linejoin:round;stroke-miterlimit:4;stroke-dasharray:none;stroke-dashoffset:0;stroke-opacity:1;marker:none;marker-start:none;marker-mid:none;marker-end:none;enable-background:accumulate"
       id="path3393"
       transform="translate(66.098462,16.048344)"
       cx="7.5"
       cy="8.5"
       r="7" />
    <ellipse
       transform="matrix(0.05987609,0.8217059,-1.2823004,0.03836896,80.481839,15.100243)"
       id="path3420"
       style="display:inline;overflow:visible;visibility:visible;opacity:1;fill:url(#linearGradient1464);fill-opacity:1;fill-rule:nonzero;stroke:none;stroke-width:0.49446285;stroke-linecap:round;stroke-linejoin:round;stroke-miterlimit:4;stroke-dasharray:none;stroke-dashoffset:0;stroke-opacity:1;marker:none;marker-start:none;marker-mid:none;marker-end:none;enable-background:accumulate"
       cx="8.568388"
       cy="5.7142859"
       rx="4.8541021"
       ry="4" />
    <path
       style="fill:none;fill-opacity:1;stroke:#000000;stroke-width:0.45161295;stroke-linecap:round;stroke-linejoin:round;stroke-miterlimit:4;stroke-dasharray:none;stroke-dashoffset:0;stroke-opacity:1"
       d="m 69.598462,27.548344 c 0,-1 2,-2 4,-2 2,0 4,1 4,2"
       id="path3411"
       sodipodi:nodetypes="csc"
       inkscape:connector-curvature="0" />
    <path
       sodipodi:nodetypes="cc"
       id="path3421"
       d="m 70.598462,19.548344 3,1"
       style="fill:#ffffff;fill-opacity:1;stroke:#000000;stroke-width:0.45161295;stroke-linecap:round;stroke-linejoin:round;stroke-miterlimit:4;stroke-dasharray:none;stroke-dashoffset:0;stroke-opacity:1"
       inkscape:connector-curvature="0" />
    <path
       sodipodi:nodetypes="cc"
       id="path3423"
       d="m 73.598462,20.548344 3,-1"
       style="fill:#ffffff;fill-opacity:1;stroke:#000000;stroke-width:0.45161295;stroke-linecap:round;stroke-linejoin:round;stroke-miterlimit:4;stroke-dasharray:none;stroke-dashoffset:0;stroke-opacity:1"
       inkscape:connector-curvature="0" />
    <circle
       transform="translate(51.098462,18.048344)"
       id="path3431"
       style="fill:#000000;fill-opacity:1;stroke:#000000;stroke-width:0.45161295;stroke-linecap:round;stroke-linejoin:round;stroke-miterlimit:4;stroke-dasharray:none;stroke-dashoffset:0;stroke-opacity:1"
       cx="20.5"
       cy="4.5"
       r="1" />
    <circle
       transform="translate(55.098462,18.048344)"
       style="fill:#000000;fill-opacity:1;stroke:#000000;stroke-width:0.45161295;stroke-linecap:round;stroke-linejoin:round;stroke-miterlimit:4;stroke-dasharray:none;stroke-dashoffset:0;stroke-opacity:1"
       id="path3433"
       cx="20.5"
       cy="4.5"
       r="1" />
  </g>
  <g
     id="g4416"
     transform="matrix(0.06919643,0,0,0.06919643,11.514392,-1.1986577)"
     style="stroke-width:0.45161295">
    <circle
       style="display:inline;overflow:visible;visibility:visible;opacity:1;fill:url(#radialGradient4289);fill-opacity:1;fill-rule:nonzero;stroke:#000000;stroke-width:0.45161295;stroke-linecap:round;stroke-linejoin:round;stroke-miterlimit:4;stroke-dasharray:none;stroke-dashoffset:0;stroke-opacity:1;marker:none;marker-start:none;marker-mid:none;marker-end:none;enable-background:accumulate"
       id="path3435"
       transform="translate(50.098462,16.048344)"
       cx="7.5"
       cy="8.5"
       r="7" />
    <ellipse
       transform="matrix(0.05987609,0.8217059,-1.2823004,0.03836896,64.506618,15.355847)"
       id="path3424"
       style="display:inline;overflow:visible;visibility:visible;opacity:1;fill:url(#linearGradient3409);fill-opacity:1;fill-rule:nonzero;stroke:none;stroke-width:0.49446285;stroke-linecap:round;stroke-linejoin:round;stroke-miterlimit:4;stroke-dasharray:none;stroke-dashoffset:0;stroke-opacity:1;marker:none;marker-start:none;marker-mid:none;marker-end:none;enable-background:accumulate"
       cx="8.568388"
       cy="5.7142859"
       rx="4.8541021"
       ry="4" />
    <path
       style="fill:none;fill-opacity:1;stroke:#00cfff;stroke-width:0.9032259;stroke-linecap:round;stroke-linejoin:round;stroke-miterlimit:4;stroke-dasharray:none;stroke-dashoffset:0;stroke-opacity:1"
       d="m 61.598462,23.548344 c 0,-1 -0.9375,-1 -1.9375,-1"
       id="path3466"
       sodipodi:nodetypes="cc"
       inkscape:connector-curvature="0" />
    <path
       sodipodi:nodetypes="ccc"
       id="path3456"
       d="m 60.598462,20.548344 -2,2 h 3"
       style="fill:none;fill-opacity:1;stroke:#000000;stroke-width:0.45161295;stroke-linecap:round;stroke-linejoin:round;stroke-miterlimit:4;stroke-dasharray:none;stroke-dashoffset:0;stroke-opacity:1"
       inkscape:connector-curvature="0" />
    <path
       sodipodi:nodetypes="cc"
       id="path3462"
       d="m 55.660962,22.548344 c -1,0 -2.0625,0 -2.0625,1"
       style="fill:none;fill-opacity:1;stroke:#00cfff;stroke-width:0.9032259;stroke-linecap:round;stroke-linejoin:round;stroke-miterlimit:4;stroke-dasharray:none;stroke-dashoffset:0;stroke-opacity:1"
       inkscape:connector-curvature="0" />
    <path
       sodipodi:nodetypes="ccc"
       id="path3458"
       d="m 54.598462,20.548344 2,2 h -3"
       style="fill:none;fill-opacity:1;stroke:#000000;stroke-width:0.45161295;stroke-linecap:round;stroke-linejoin:round;stroke-miterlimit:4;stroke-dasharray:none;stroke-dashoffset:0;stroke-opacity:1"
       inkscape:connector-curvature="0" />
    <path
       sodipodi:nodetypes="ccccc"
       id="path3460"
       d="m 54.598462,24.548344 c -1,1 -1,3 0,4 2,-1 4,-1 6,0 1,-1 1,-3 0,-4 -2,1 -4,1 -6,0 z"
       style="fill:#ffffff;fill-opacity:1;stroke:#000000;stroke-width:0.45161295;stroke-linecap:round;stroke-linejoin:round;stroke-miterlimit:4;stroke-dasharray:none;stroke-dashoffset:0;stroke-opacity:1"
       inkscape:connector-curvature="0" />
  </g>
</svg>
