<?xml version="1.0" encoding="UTF-8" standalone="no"?>
<svg
   xmlns:dc="http://purl.org/dc/elements/1.1/"
   xmlns:cc="http://creativecommons.org/ns#"
   xmlns:rdf="http://www.w3.org/1999/02/22-rdf-syntax-ns#"
   xmlns:svg="http://www.w3.org/2000/svg"
   xmlns="http://www.w3.org/2000/svg"
   xmlns:xlink="http://www.w3.org/1999/xlink"
   xmlns:sodipodi="http://sodipodi.sourceforge.net/DTD/sodipodi-0.dtd"
   xmlns:inkscape="http://www.inkscape.org/namespaces/inkscape"
   width="800"
   height="32"
   version="1.1"
   viewBox="0 0 25 1"
   id="svg176"
   sodipodi:docname="toolbar.svg"
   inkscape:version="0.92.2 2405546, 2018-03-11">
  <metadata
     id="metadata180">
    <rdf:RDF>
      <cc:Work
         rdf:about="">
        <dc:format>image/svg+xml</dc:format>
        <dc:type
           rdf:resource="http://purl.org/dc/dcmitype/StillImage" />
        <dc:title></dc:title>
      </cc:Work>
    </rdf:RDF>
  </metadata>
  <sodipodi:namedview
     pagecolor="#2d3230"
     bordercolor="#f3f4e6"
     borderopacity="1"
     objecttolerance="10"
     gridtolerance="10"
     guidetolerance="10"
     inkscape:pageopacity="0"
     inkscape:pageshadow="2"
     inkscape:window-width="1366"
     inkscape:window-height="746"
     id="namedview178"
     showgrid="false"
     inkscape:zoom="1.4145512"
     inkscape:cx="261.90047"
     inkscape:cy="69.95388"
     inkscape:window-x="0"
     inkscape:window-y="0"
     inkscape:window-maximized="1"
     inkscape:current-layer="svg176"
     fit-margin-top="0"
     fit-margin-left="0"
     fit-margin-right="0"
     fit-margin-bottom="0" />
  <defs
     id="defs16">
    <radialGradient
       id="a"
       cx="9.7139997"
       cy="8.79"
       r="7.5"
       gradientTransform="matrix(0,0.0417808,-0.06919649,-2.5118304e-8,17.108237,0.31746013)"
       gradientUnits="userSpaceOnUse"
       xlink:href="#c" />
    <linearGradient
       id="c">
      <stop
         style="stop-color:#fffffa"
         offset="0"
         id="stop3" />
      <stop
         style="stop-color:#ffd963"
         offset=".5101"
         id="stop5" />
      <stop
         style="stop-color:#ff9900"
         offset="1"
         id="stop7" />
    </linearGradient>
    <linearGradient
       id="b"
       x1="0.98290002"
       x2="14.24"
       y1="5.3600001"
       y2="5.9790001"
       gradientUnits="userSpaceOnUse"
       xlink:href="#d"
       gradientTransform="matrix(0.00414349,0.05685871,-0.0887099,0.00265507,16.976072,-0.15390598)" />
    <linearGradient
       id="d">
      <stop
         style="stop-color:#ffffff"
         offset="0"
         id="stop11" />
      <stop
         style="stop-color:#ffffff;stop-opacity:0"
         offset="1"
         id="stop13" />
    </linearGradient>
    <radialGradient
       inkscape:collect="always"
       xlink:href="#c"
       id="radialGradient1006"
       gradientUnits="userSpaceOnUse"
       gradientTransform="matrix(0,0.0417808,-0.06919648,-2.5118304e-8,10.108237,0.31746026)"
       cx="9.7139997"
       cy="8.79"
       r="7.5" />
    <linearGradient
       inkscape:collect="always"
       xlink:href="#d"
       id="linearGradient1008"
       gradientUnits="userSpaceOnUse"
       x1="0.98290002"
       y1="5.3600001"
       x2="14.24"
       y2="5.9790001"
       gradientTransform="matrix(0.00414349,0.05685871,-0.08870989,0.00265507,9.976902,-0.14699584)" />
    <radialGradient
       inkscape:collect="always"
       xlink:href="#c"
       id="radialGradient1010"
       gradientUnits="userSpaceOnUse"
       gradientTransform="matrix(0,0.0417808,-0.06919649,-2.5118304e-8,11.108237,0.31746022)"
       cx="9.7139997"
       cy="8.79"
       r="7.5" />
    <linearGradient
       inkscape:collect="always"
       xlink:href="#d"
       id="linearGradient1012"
       gradientUnits="userSpaceOnUse"
       x1="0.98290002"
       y1="5.3600001"
       x2="14.24"
       y2="5.9790001"
       gradientTransform="matrix(0.00414349,0.05685871,-0.0887099,0.00265507,10.97538,-0.14678142)" />
    <radialGradient
       inkscape:collect="always"
       xlink:href="#c"
       id="radialGradient1014"
       gradientUnits="userSpaceOnUse"
       gradientTransform="matrix(0,0.0417808,-0.06919649,-2.5118304e-8,12.108237,0.31746022)"
       cx="9.7139997"
       cy="8.79"
       r="7.5" />
    <linearGradient
       inkscape:collect="always"
       xlink:href="#d"
       id="linearGradient1016"
       gradientUnits="userSpaceOnUse"
       x1="0.98290002"
       y1="5.3600001"
       x2="14.24"
       y2="5.9790001"
       gradientTransform="matrix(0.00414349,0.05685871,-0.0887099,0.00265507,11.979532,-0.1520611)" />
    <radialGradient
       inkscape:collect="always"
       xlink:href="#c"
       id="radialGradient1018"
       gradientUnits="userSpaceOnUse"
       gradientTransform="matrix(0,0.0417808,-0.06919649,-2.5118304e-8,13.108237,0.31746022)"
       cx="9.7139997"
       cy="8.79"
       r="7.5" />
    <linearGradient
       inkscape:collect="always"
       xlink:href="#d"
       id="linearGradient1020"
       gradientUnits="userSpaceOnUse"
       x1="0.98290002"
       y1="5.3600001"
       x2="14.24"
       y2="5.9790001"
       gradientTransform="matrix(0.00414349,0.05685871,-0.0887099,0.00265507,12.969152,-0.14321779)" />
    <radialGradient
       inkscape:collect="always"
       xlink:href="#c"
       id="radialGradient1022"
       gradientUnits="userSpaceOnUse"
       gradientTransform="matrix(0,0.0417808,-0.06919649,-2.5118304e-8,14.108237,0.31746013)"
       cx="9.7139997"
       cy="8.79"
       r="7.5" />
    <linearGradient
       inkscape:collect="always"
       xlink:href="#d"
       id="linearGradient1024"
       gradientUnits="userSpaceOnUse"
       x1="0.98290002"
       y1="5.3600001"
       x2="14.24"
       y2="5.9790001"
       gradientTransform="matrix(0.00414349,0.05685871,-0.0887099,0.00265507,13.974134,-0.1359149)" />
    <radialGradient
       inkscape:collect="always"
       xlink:href="#c"
       id="radialGradient1026"
       gradientUnits="userSpaceOnUse"
       gradientTransform="matrix(0,0.0417808,-0.06919649,-2.5118304e-8,15.108237,0.31746013)"
       cx="9.7139997"
       cy="8.79"
       r="7.5" />
    <linearGradient
       inkscape:collect="always"
       xlink:href="#d"
       id="linearGradient1028"
       gradientUnits="userSpaceOnUse"
       x1="0.98290002"
       y1="5.3600001"
       x2="14.24"
       y2="5.9790001"
       gradientTransform="matrix(0.00414349,0.05685871,-0.0887099,0.00265507,14.970536,-0.14491043)" />
    <radialGradient
       inkscape:collect="always"
       xlink:href="#c"
       id="radialGradient1030"
       gradientUnits="userSpaceOnUse"
       gradientTransform="matrix(0,0.0417808,-0.06919649,-2.5118304e-8,16.108237,0.31746013)"
       cx="9.7139997"
       cy="8.79"
       r="7.5" />
    <linearGradient
       inkscape:collect="always"
       xlink:href="#d"
       id="linearGradient1032"
       gradientUnits="userSpaceOnUse"
       x1="0.98290002"
       y1="5.3600001"
       x2="14.24"
       y2="5.9790001"
       gradientTransform="matrix(0.00414349,0.05685871,-0.0887099,0.00265507,15.978148,-0.13591491)" />
  </defs>
  <path
     d="m 0.6875,0.46879996 c 0,0 0.125,-0.04999 0.125,-0.225 0,-0.2562 -0.3187,-0.243699997253 -0.4375,-0.243699997253 H 0.125 V 0.99999996 h 0.25 c 0.2313,0 0.5,0 0.5,-0.275 0,-0.2375 -0.1875,-0.2562 -0.1875,-0.2562 z m -0.125,-0.1937 c 0,0.1125 -0.09375,0.09999 -0.1875,0.09999 v -0.1875 c 0.1125,0 0.1875,0.0062 0.1875,0.08749 z m -0.1875,0.5374 v -0.25 c 0.1125,0 0.25,-0.01875 0.25,0.1375 0,0.1187 -0.1563,0.1125 -0.25,0.1125 z"
     style="fill:#ffffff"
     id="path18"
     inkscape:connector-curvature="0" />
  <path
     d="M 1.5,-3.7252903e-8 H 1.6875 L 1.5,0.99999996 H 1.3125 Z"
     style="fill:#ffffff"
     id="path20"
     inkscape:connector-curvature="0" />
  <path
     d="m 2.125,0.93749996 h 0.7438 v 0.0625 H 2.125 Z"
     style="fill:#ffffff"
     id="path22"
     inkscape:connector-curvature="0" />
  <path
     d="M 2.683,-3.7252903e-8 V 0.52499996 c 0,0.09375 -0.06818,0.1625 -0.1612,0.1625 H 2.47221 c -0.09298,0 -0.1612,-0.06875 -0.1612,-0.1625 V -3.7252903e-8 h -0.186 V 0.52499996 c 0,0.1938 0.155,0.35 0.3471,0.35 h 0.05578 c 0.1921,0 0.3471,-0.1562 0.3471,-0.35 V -3.7252903e-8 Z"
     style="fill:#ffffff"
     id="path24"
     inkscape:connector-curvature="0" />
  <path
     d="m 3.656,0.43989996 c -0.03125,-0.01867 -0.0625,-0.03112 -0.0875,-0.04356 -0.125,-0.05601 -0.1312,-0.06845 -0.125,-0.1182 0.00625,-0.04978 0.025,-0.06223 0.0375,-0.07468 0.05625,-0.03112 0.175,-0.00622 0.2188,0.01245 l 0.06875,-0.1742 c -0.025,-0.01245 -0.2312,-0.08712 -0.3812,0 -0.05,0.03112 -0.1188,0.09335 -0.1312,0.2116 -0.0125,0.0809 0.00625,0.1431 0.04375,0.1867 h -0.3 v 0.06223 h 1 v -0.06223 z"
     style="fill:#ffffff"
     id="path26"
     inkscape:connector-curvature="0" />
  <path
     d="m 3.481,0.56436996 c 0,0 0.00625,0 0.00625,0.00622 0.125,0.05601 0.15,0.07468 0.1375,0.1556 -0.0125,0.05601 -0.03125,0.06845 -0.05,0.0809 -0.06875,0.03734 -0.2062,0 -0.275,-0.03112 l -0.075,0.1618 c 0.01875,0.00622 0.1438,0.06223 0.2812,0.06223 0.05625,0 0.1125,-0.01245 0.1625,-0.03734 0.05625,-0.03112 0.125,-0.08712 0.15,-0.2116 0.0125,-0.0809 0,-0.1431 -0.025,-0.1929 h -0.3125 z"
     style="fill:#ffffff"
     id="path28"
     inkscape:connector-curvature="0" />
  <path
     d="m 4.131,0.19379996 c 0.0125,0.08125 0.025,0.1 0.025,0.1812 0,0.05 -0.09375,0.09375 -0.09375,0.09375 v 0.0625 c 0,0 0.09375,0.04375 0.09375,0.09375 0,0.08125 -0.0125,0.1 -0.025,0.1812 -0.01875,0.1312 0.05,0.1938 0.1125,0.1938 h 0.1312 v -0.125 c 0,0 -0.1125,0.0125 -0.1125,-0.0625 0,-0.05625 0.0125,-0.05625 0.025,-0.1812 0.00625,-0.05625 -0.03125,-0.1 -0.06875,-0.1312 0.0375,-0.03125 0.075,-0.06875 0.06875,-0.125 -0.01875,-0.125 -0.025,-0.125 -0.025,-0.1812 0,-0.075 0.1125,-0.06875 0.1125,-0.06875 V 1.4996275e-4 H 4.2435 c -0.06875,0 -0.1312,0.0624999972 -0.1125,0.19379999725 z"
     style="fill:#ffffff"
     id="path30"
     inkscape:connector-curvature="0" />
  <path
     d="m 4.869,0.19379996 c -0.0125,0.08125 -0.025,0.1 -0.025,0.1812 0,0.05 0.09375,0.09375 0.09375,0.09375 v 0.0625 c 0,0 -0.09375,0.04375 -0.09375,0.09375 0,0.08125 0.0125,0.1 0.025,0.1812 0.01875,0.1312 -0.05,0.1938 -0.1125,0.1938 H 4.6253 v -0.125 c 0,0 0.1125,0.0125 0.1125,-0.0625 0,-0.05625 -0.0125,-0.05625 -0.025,-0.1812 -0.00625,-0.05625 0.03125,-0.1 0.06875,-0.1312 -0.0375,-0.03125 -0.075,-0.06875 -0.06875,-0.125 0.0125,-0.125 0.025,-0.125 0.025,-0.1812 0,-0.075 -0.1125,-0.06875 -0.1125,-0.06875 V 1.4996275e-4 h 0.1312 c 0.06875,0 0.1312,0.0624999972 0.1125,0.19379999725 z"
     style="fill:#ffffff"
     id="path32"
     inkscape:connector-curvature="0" />
  <path
     d="m 5.93,0.06603996 c -0.08764,-0.08805 -0.2316,-0.08805 -0.3192,0 l -0.2754,0.2704 c -0.08764,0.09434 -0.08764,0.2327 0,0.327 0.00626,0.00629 0.01878,0.01258 0.02504,0.01887 l 0.0939,-0.09434 c -0.00626,-0.00629 -0.01878,-0.01258 -0.02504,-0.01887 -0.03756,-0.03774 -0.03756,-0.1006 0,-0.1384 l 0.2754,-0.2767 c 0.03756,-0.03774 0.1002,-0.03774 0.1377,0 0.03756,0.03774 0.03756,0.1006 0,0.1384 l -0.08138,0.08176 c 0.02504,0.05031 0.0313,0.1069 0.02504,0.1572 l 0.144,-0.1447 c 0.0939,-0.08805 0.0939,-0.2327 -4e-7,-0.3208 z"
     style="fill:#ffffff"
     id="path34"
     inkscape:connector-curvature="0" />
  <path
     d="m 5.63535,0.31751246 -0.0939,0.09434 c 0,0 0.01878,0.01258 0.02504,0.01887 0.03756,0.03774 0.03756,0.1006 0,0.1384 l -0.2754,0.2767 c -0.03756,0.03774 -0.1002,0.03774 -0.1377,0 -0.03756,-0.03774 -0.03756,-0.1006 0,-0.1384 l 0.08138,-0.08176 c -0.02504,-0.05031 -0.00626,-0.08176 -0.02504,-0.1572 l -0.144,0.1447 c -0.08764,0.08805 -0.08764,0.2327 0,0.3208 0.08764,0.08805 0.2316,0.08805 0.3192,0 l 0.2754,-0.2767 c 0.08764,-0.08805 0.08764,-0.2327 0,-0.3208 -0.01252,-0.00629 -0.02504,-0.01887 -0.02504,-0.01887 z"
     style="fill:#ffffff"
     id="path36"
     inkscape:connector-curvature="0" />
  <path
     d="M 7,0.87499996 H 6 v -0.75 h 1 z m -0.9375,-0.0625 h 0.875 v -0.625 h -0.875 z"
     style="fill:#ffffff"
     id="path38"
     inkscape:connector-curvature="0" />
  <path
     d="m 6.125,0.62499996 v 0.125 h 0.75 v -0.0625 c 0,0 0.0125,-0.1062 -0.125,-0.125 -0.1188,-0.01875 -0.1375,0.0375 -0.2375,0.0375 -0.06875,0 -0.05625,-0.1 -0.2,-0.1 -0.1062,0 -0.1875,0.125 -0.1875,0.125 z"
     style="fill:#ffffff"
     id="path40"
     inkscape:connector-curvature="0" />
  <path
     d="m 6.812,0.37499996 c 0,0.06906 -0.05594,0.125 -0.125,0.125 -0.06906,0 -0.125,-0.05594 -0.125,-0.125 0,-0.06906 0.05594,-0.125 0.125,-0.125 0.06906,0 0.125,0.05594 0.125,0.125 z"
     style="fill:#ffffff"
     id="path42"
     inkscape:connector-curvature="0" />
  <path
     d="m 7.438,0.43749996 v 0.4375 H 7.0005 v -0.4438 c 0,-0.3 0.2812,-0.3375 0.2812,-0.3375 l 0.0375,0.0875 c 0,0 -0.125,0.01875 -0.15,0.1188 -0.025,0.075 0.025,0.1375 0.025,0.1375 z"
     style="fill:#ffffff"
     id="path44"
     inkscape:connector-curvature="0" />
  <path
     d="m 8,0.43749996 v 0.4375 H 7.5625 v -0.4438 c 0,-0.3 0.2812,-0.3375 0.2812,-0.3375 l 0.0375,0.0875 c 0,0 -0.125,0.01875 -0.15,0.1188 -0.025,0.075 0.025,0.1375 0.025,0.1375 z"
     style="fill:#ffffff"
     id="path46"
     inkscape:connector-curvature="0" />
  <path
     style="fill:#ffffff"
     d="M 8,-3.7252903e-8 H 8.1562 V 0.99999996 H 8 Z"
     id="rect48"
     inkscape:connector-curvature="0" />
  <path
     style="fill:#ffffff"
     d="m 8.5620003,0.81249994 h 0.1875 v 0.125 h -0.1875 z"
     id="rect50"
     inkscape:connector-curvature="0" />
  <path
     style="fill:#ffffff"
     d="m 8.5620003,0.56249994 h 0.1875 v 0.125 h -0.1875 z"
     id="rect52"
     inkscape:connector-curvature="0" />
  <path
     style="fill:#ffffff"
     d="m 8.5620003,0.31249997 h 0.1875 v 0.125 h -0.1875 z"
     id="rect54"
     inkscape:connector-curvature="0" />
  <path
     style="fill:#ffffff"
     d="m 8.5620003,0.06249996 h 0.1875 v 0.125 h -0.1875 z"
     id="rect56"
     inkscape:connector-curvature="0" />
  <path
     style="fill:#ffffff"
     d="m 8.3120003,0.56249994 h 0.1875 v 0.125 h -0.1875 z"
     id="rect58"
     inkscape:connector-curvature="0" />
  <path
     style="fill:#ffffff"
     d="m 8.3120003,0.06249996 h 0.1875 v 0.125 h -0.1875 z"
     id="rect60"
     inkscape:connector-curvature="0" />
  <path
     style="fill:#ffffff"
     d="m 8.8120003,0.31249997 h 0.1875 v 0.125 h -0.1875 z"
     id="rect62"
     inkscape:connector-curvature="0" />
  <path
     style="fill:#ffffff"
     d="m 8.8120003,0.06249996 h 0.1875 v 0.125 h -0.1875 z"
     id="rect64"
     inkscape:connector-curvature="0" />
  <path
     style="fill:url(#radialGradient1014);stroke:#000000;stroke-width:0.03124912;stroke-linecap:round;stroke-linejoin:round"
     d="M 11.984375,0.50000036 A 0.48437542,0.484375 0 0 1 11.5,0.98437536 0.48437542,0.484375 0 0 1 11.015625,0.50000036 0.48437542,0.484375 0 0 1 11.5,0.01562536 a 0.48437542,0.484375 0 0 1 0.484375,0.484375 z"
     id="circle66"
     inkscape:connector-curvature="0" />
  <path
     style="fill:url(#linearGradient1016);stroke-width:0.03210787"
     d="M 11.528258,0.62626761 A 0.35549835,0.27608161 2.037759 0 1 11.153305,0.36089573 0.35549835,0.27608161 2.037759 0 1 11.488033,0.07428326 0.35549835,0.27608161 2.037759 0 1 11.862984,0.33965517 0.35549835,0.27608161 2.037759 0 1 11.528258,0.62626761 Z"
     id="ellipse68"
     inkscape:connector-curvature="0" />
  <path
     inkscape:connector-curvature="0"
     id="path70"
     style="fill:#ffffff;stroke:#000000;stroke-width:0.03124912;stroke-linecap:round;stroke-linejoin:round"
     d="m 11.154018,0.49997687 c 0,0.22917858 0.155,0.34598215 0.345982,0.34598215 0.190982,0 0.345982,-0.11680357 0.345982,-0.34598215 z" />
  <path
     inkscape:connector-curvature="0"
     id="path72"
     style="fill:none;stroke:#000000;stroke-width:0.03124912;stroke-linecap:round;stroke-linejoin:round"
     d="m 11.223214,0.36158401 c 0,-0.13839286 0.207589,-0.13839286 0.207589,0" />
  <path
     inkscape:connector-curvature="0"
     id="path74"
     style="fill:none;stroke:#000000;stroke-width:0.03124912;stroke-linecap:round;stroke-linejoin:round"
     d="m 11.569196,0.36158401 c 0,-0.13839286 0.20759,-0.13839286 0.20759,0" />
  <path
     inkscape:connector-curvature="0"
     id="path76"
     style="fill:none;stroke:#000000;stroke-width:0.03124912;stroke-linecap:round;stroke-linejoin:round"
     d="M 11.638393,0.8114992 V 0.50011527 m -0.276786,0 V 0.8114992" />
  <path
     style="fill:url(#radialGradient1006);stroke:#000000;stroke-width:0.03124912;stroke-linecap:round;stroke-linejoin:round"
     d="M 9.984375,0.50000042 A 0.48437536,0.484375 0 0 1 9.5,0.98437542 0.48437536,0.484375 0 0 1 9.0156246,0.50000042 0.48437536,0.484375 0 0 1 9.5,0.01562542 a 0.48437536,0.484375 0 0 1 0.484375,0.484375 z"
     id="circle80"
     inkscape:connector-curvature="0" />
  <path
     style="fill:url(#linearGradient1008);stroke-width:0.03210787"
     d="M 9.5256279,0.63133284 A 0.35549832,0.27608161 2.0377606 0 1 9.1506758,0.36596095 0.35549832,0.27608161 2.0377606 0 1 9.4854029,0.07934849 a 0.35549832,0.27608161 2.0377606 0 1 0.374952,0.2653719 0.35549832,0.27608161 2.0377606 0 1 -0.334727,0.28661245 z"
     id="ellipse82"
     inkscape:connector-curvature="0" />
  <path
     inkscape:connector-curvature="0"
     id="path84"
     style="fill:none;stroke:#000000;stroke-width:0.03124912;stroke-linecap:round;stroke-linejoin:round"
     d="m 9.223214,0.49997691 c 0,0.20758929 0.138393,0.27678572 0.2767859,0.27678572 0.138393,0 0.2767859,-0.0691964 0.2767859,-0.27678572" />
  <path
     style="fill:#000000;stroke:#000000;stroke-width:0.03124912;stroke-linecap:round;stroke-linejoin:round"
     d="m 9.4309414,0.29238763 a 0.06919648,0.06919643 0 0 1 -0.069197,0.0691964 0.06919648,0.06919643 0 0 1 -0.069197,-0.0691964 0.06919648,0.06919643 0 0 1 0.069197,-0.0691964 0.06919648,0.06919643 0 0 1 0.069197,0.0691964 z"
     id="circle86"
     inkscape:connector-curvature="0" />
  <path
     style="fill:#000000;stroke:#000000;stroke-width:0.03124912;stroke-linecap:round;stroke-linejoin:round"
     d="m 9.7075889,0.29238763 a 0.06919648,0.06919643 0 0 1 -0.069196,0.0691964 0.06919648,0.06919643 0 0 1 -0.069196,-0.0691964 0.06919648,0.06919643 0 0 1 0.069196,-0.0691964 0.06919648,0.06919643 0 0 1 0.069196,0.0691964 z"
     id="circle88"
     inkscape:connector-curvature="0" />
  <path
     style="fill:url(#radialGradient1010);stroke:#000000;stroke-width:0.03124912;stroke-linecap:round;stroke-linejoin:round"
     d="M 10.984375,0.50000036 A 0.48437542,0.484375 0 0 1 10.5,0.98437536 0.48437542,0.484375 0 0 1 10.015625,0.50000036 0.48437542,0.484375 0 0 1 10.5,0.01562536 a 0.48437542,0.484375 0 0 1 0.484375,0.484375 z"
     id="circle92"
     inkscape:connector-curvature="0" />
  <path
     style="fill:url(#linearGradient1012);stroke-width:0.03210787"
     d="M 10.524105,0.63154728 A 0.35549835,0.27608161 2.037759 0 1 10.149152,0.3661754 0.35549835,0.27608161 2.037759 0 1 10.48388,0.07956293 0.35549835,0.27608161 2.037759 0 1 10.858832,0.34493484 0.35549835,0.27608161 2.037759 0 1 10.524105,0.63154728 Z"
     id="ellipse94"
     inkscape:connector-curvature="0" />
  <path
     inkscape:connector-curvature="0"
     id="path96"
     style="fill:#ffffff;stroke:#000000;stroke-width:0.03124912;stroke-linecap:round;stroke-linejoin:round"
     d="m 10.776786,0.49997687 h -0.553572 c 0,0.20758929 0.138393,0.27678572 0.276786,0.27678572 0.138393,0 0.276786,-0.0691964 0.276786,-0.27678572 z" />
  <path
     style="fill:#000000;stroke:#000000;stroke-width:0.03124912;stroke-linecap:round;stroke-linejoin:round"
     d="m 10.430665,0.2923876 a 0.06919649,0.06919643 0 0 1 -0.0692,0.0691964 0.06919649,0.06919643 0 0 1 -0.0692,-0.0691964 0.06919649,0.06919643 0 0 1 0.0692,-0.0691964 0.06919649,0.06919643 0 0 1 0.0692,0.0691964 z"
     id="circle98"
     inkscape:connector-curvature="0" />
  <path
     style="fill:#000000;stroke:#000000;stroke-width:0.03124912;stroke-linecap:round;stroke-linejoin:round"
     d="m 10.707451,0.2923876 a 0.06919649,0.06919643 0 0 1 -0.0692,0.0691964 0.06919649,0.06919643 0 0 1 -0.0692,-0.0691964 0.06919649,0.06919643 0 0 1 0.0692,-0.0691964 0.06919649,0.06919643 0 0 1 0.0692,0.0691964 z"
     id="circle100"
     inkscape:connector-curvature="0" />
  <path
     style="fill:url(#radialGradient1018);stroke:#000000;stroke-width:0.03124912;stroke-linecap:round;stroke-linejoin:round"
     d="M 12.984375,0.50000036 A 0.48437542,0.484375 0 0 1 12.5,0.98437536 0.48437542,0.484375 0 0 1 12.015625,0.50000036 0.48437542,0.484375 0 0 1 12.5,0.01562536 a 0.48437542,0.484375 0 0 1 0.484375,0.484375 z"
     id="circle104"
     inkscape:connector-curvature="0" />
  <path
     style="fill:url(#linearGradient1020);stroke-width:0.03210787"
     d="M 12.517878,0.63511092 A 0.35549835,0.27608161 2.037759 0 1 12.142925,0.369739 0.35549835,0.27608161 2.037759 0 1 12.477653,0.08312652 0.35549835,0.27608161 2.037759 0 1 12.852604,0.34849844 0.35549835,0.27608161 2.037759 0 1 12.517878,0.63511092 Z"
     id="ellipse106"
     inkscape:connector-curvature="0" />
  <path
     inkscape:connector-curvature="0"
     id="path108"
     style="fill:none;stroke:#000000;stroke-width:0.03124912;stroke-linecap:round;stroke-linejoin:round"
     d="m 12.223214,0.43078044 c 0,0.27678572 0.138393,0.34598215 0.276786,0.34598215 0.138393,0 0.276786,-0.0691964 0.276786,-0.27678572" />
  <path
     style="fill:#000000;stroke:#000000;stroke-width:0.03124912;stroke-linecap:round;stroke-linejoin:round"
     d="m 12.70759,0.2923876 a 0.06919649,0.06919643 0 0 1 -0.0692,0.0691964 0.06919649,0.06919643 0 0 1 -0.0692,-0.0691964 0.06919649,0.06919643 0 0 1 0.0692,-0.0691964 0.06919649,0.06919643 0 0 1 0.0692,0.0691964 z"
     id="circle110"
     inkscape:connector-curvature="0" />
  <path
     inkscape:connector-curvature="0"
     id="path112"
     style="fill:#ecf3f7;stroke:#000000;stroke-width:0.03124912;stroke-linecap:round;stroke-linejoin:round"
     d="M 12.430804,0.29238758 H 12.292411" />
  <path
     style="fill:url(#radialGradient1026);stroke:#000000;stroke-width:0.03124912;stroke-linecap:round;stroke-linejoin:round"
     d="M 14.984375,0.5000003 A 0.48437542,0.484375 0 0 1 14.5,0.9843753 0.48437542,0.484375 0 0 1 14.015625,0.5000003 0.48437542,0.484375 0 0 1 14.5,0.0156253 a 0.48437542,0.484375 0 0 1 0.484375,0.484375 z"
     id="circle116"
     inkscape:connector-curvature="0" />
  <path
     style="fill:url(#linearGradient1028);stroke-width:0.03210787"
     d="M 14.519262,0.63341824 A 0.35549835,0.27608161 2.037759 0 1 14.144309,0.36804638 0.35549835,0.27608161 2.037759 0 1 14.479037,0.0814339 0.35549835,0.27608161 2.037759 0 1 14.853988,0.34680581 0.35549835,0.27608161 2.037759 0 1 14.519262,0.63341824 Z"
     id="ellipse118"
     inkscape:connector-curvature="0" />
  <path
     inkscape:connector-curvature="0"
     id="path120"
     style="fill:none;stroke:#000000;stroke-width:0.03124912;stroke-linecap:round;stroke-linejoin:round"
     d="m 14.223214,0.70758961 c 0,-0.13839286 0.138393,-0.20758929 0.276786,-0.20758929 0.138393,0 0.276786,0.0691964 0.276786,0.20758929" />
  <path
     style="fill:#000000;stroke:#000000;stroke-width:0.03124912;stroke-linecap:round;stroke-linejoin:round"
     d="m 14.430803,0.29241103 a 0.06919649,0.06919643 0 0 1 -0.0692,0.0691964 0.06919649,0.06919643 0 0 1 -0.0692,-0.0691964 0.06919649,0.06919643 0 0 1 0.0692,-0.0691964 0.06919649,0.06919643 0 0 1 0.0692,0.0691964 z"
     id="circle122"
     inkscape:connector-curvature="0" />
  <path
     style="fill:#000000;stroke:#000000;stroke-width:0.03124912;stroke-linecap:round;stroke-linejoin:round"
     d="m 14.70759,0.29241103 a 0.06919649,0.06919643 0 0 1 -0.0692,0.0691964 0.06919649,0.06919643 0 0 1 -0.0692,-0.0691964 0.06919649,0.06919643 0 0 1 0.0692,-0.0691964 0.06919649,0.06919643 0 0 1 0.0692,0.0691964 z"
     id="circle124"
     inkscape:connector-curvature="0" />
  <path
     style="fill:url(#radialGradient1022);stroke:#000000;stroke-width:0.03124912;stroke-linecap:round;stroke-linejoin:round"
     d="M 13.984375,0.5000003 A 0.48437542,0.484375 0 0 1 13.5,0.9843753 0.48437542,0.484375 0 0 1 13.015625,0.5000003 0.48437542,0.484375 0 0 1 13.5,0.0156253 a 0.48437542,0.484375 0 0 1 0.484375,0.484375 z"
     id="circle128"
     inkscape:connector-curvature="0" />
  <path
     style="fill:url(#linearGradient1024);stroke-width:0.03210787"
     d="M 13.52286,0.64241383 A 0.35549835,0.27608161 2.037759 0 1 13.147907,0.37704192 0.35549835,0.27608161 2.037759 0 1 13.482635,0.09042945 0.35549835,0.27608161 2.037759 0 1 13.857587,0.35580136 0.35549835,0.27608161 2.037759 0 1 13.52286,0.64241383 Z"
     id="ellipse130"
     inkscape:connector-curvature="0" />
  <path
     style="fill:#000000;stroke:#000000;stroke-width:0.03124912;stroke-linecap:round;stroke-linejoin:round"
     d="m 13.430941,0.29241103 a 0.06919649,0.06919643 0 0 1 -0.0692,0.0691964 0.06919649,0.06919643 0 0 1 -0.0692,-0.0691964 0.06919649,0.06919643 0 0 1 0.0692,-0.0691964 0.06919649,0.06919643 0 0 1 0.0692,0.0691964 z"
     id="circle132"
     inkscape:connector-curvature="0" />
  <path
     style="fill:#000000;stroke:#000000;stroke-width:0.03124912;stroke-linecap:round;stroke-linejoin:round"
     d="m 13.70759,0.29241103 a 0.06919649,0.06919643 0 0 1 -0.0692,0.0691964 0.06919649,0.06919643 0 0 1 -0.0692,-0.0691964 0.06919649,0.06919643 0 0 1 0.0692,-0.0691964 0.06919649,0.06919643 0 0 1 0.0692,0.0691964 z"
     id="circle134"
     inkscape:connector-curvature="0" />
  <path
     inkscape:connector-curvature="0"
     id="path136"
     style="fill:#fda7ff;stroke:#6b1a6f;stroke-width:0.03124912;stroke-linecap:round;stroke-linejoin:round"
     d="m 13.430803,0.56919675 v 0.20758929 c 0,0.0691964 0.276786,0.0691964 0.276786,0 V 0.56919675" />
  <path
     inkscape:connector-curvature="0"
     id="path138"
     style="fill:none;stroke:#6b1a6f;stroke-width:0.03124912;stroke-linecap:round;stroke-linejoin:round"
     d="M 13.569335,0.56919675 V 0.70758961" />
  <path
     inkscape:connector-curvature="0"
     id="path140"
     style="fill:none;stroke:#000000;stroke-width:0.03124912;stroke-linecap:round;stroke-linejoin:round"
     d="m 13.223214,0.56919675 h 0.553572" />
  <path
     style="fill:url(#a);stroke:#000000;stroke-width:0.03124912;stroke-linecap:round;stroke-linejoin:round"
     d="M 16.984375,0.5000003 A 0.48437542,0.484375 0 0 1 16.5,0.9843753 0.48437542,0.484375 0 0 1 16.015625,0.5000003 0.48437542,0.484375 0 0 1 16.5,0.0156253 a 0.48437542,0.484375 0 0 1 0.484375,0.484375 z"
     id="circle144"
     inkscape:connector-curvature="0" />
  <path
     style="fill:url(#b);stroke-width:0.03210787"
     d="M 16.524797,0.62442269 A 0.35549835,0.27608161 2.037759 0 1 16.149845,0.35905081 0.35549835,0.27608161 2.037759 0 1 16.484572,0.07243837 0.35549835,0.27608161 2.037759 0 1 16.859525,0.33781025 0.35549835,0.27608161 2.037759 0 1 16.524797,0.62442269 Z"
     id="ellipse146"
     inkscape:connector-curvature="0" />
  <path
     inkscape:connector-curvature="0"
     id="path148"
     style="fill:none;stroke:#000000;stroke-width:0.03124912;stroke-linecap:round;stroke-linejoin:round"
     d="m 16.223214,0.70758961 c 0,-0.0691964 0.138393,-0.13839286 0.276786,-0.13839286 0.138393,0 0.276786,0.0691964 0.276786,0.13839286" />
  <path
     inkscape:connector-curvature="0"
     id="path150"
     style="fill:#ffffff;stroke:#000000;stroke-width:0.03124912;stroke-linecap:round;stroke-linejoin:round"
     d="M 16.29241,0.15401817 16.5,0.22321457" />
  <path
     inkscape:connector-curvature="0"
     id="path152"
     style="fill:#ffffff;stroke:#000000;stroke-width:0.03124912;stroke-linecap:round;stroke-linejoin:round"
     d="M 16.5,0.2232146 16.707589,0.1540182" />
  <path
     style="fill:#000000;stroke:#000000;stroke-width:0.03124912;stroke-linecap:round;stroke-linejoin:round"
     d="m 16.430803,0.36160746 a 0.06919649,0.06919643 0 0 1 -0.0692,0.0691964 0.06919649,0.06919643 0 0 1 -0.0692,-0.0691964 0.06919649,0.06919643 0 0 1 0.0692,-0.0691964 0.06919649,0.06919643 0 0 1 0.0692,0.0691964 z"
     id="circle154"
     inkscape:connector-curvature="0" />
  <path
     style="fill:#000000;stroke:#000000;stroke-width:0.03124912;stroke-linecap:round;stroke-linejoin:round"
     d="m 16.70759,0.36160746 a 0.06919649,0.06919643 0 0 1 -0.0692,0.0691964 0.06919649,0.06919643 0 0 1 -0.0692,-0.0691964 0.06919649,0.06919643 0 0 1 0.0692,-0.0691964 0.06919649,0.06919643 0 0 1 0.0692,0.0691964 z"
     id="circle156"
     inkscape:connector-curvature="0" />
  <path
     style="fill:url(#radialGradient1030);stroke:#000000;stroke-width:0.03124912;stroke-linecap:round;stroke-linejoin:round"
     d="M 15.984375,0.5000003 A 0.48437542,0.484375 0 0 1 15.5,0.9843753 0.48437542,0.484375 0 0 1 15.015625,0.5000003 0.48437542,0.484375 0 0 1 15.5,0.0156253 a 0.48437542,0.484375 0 0 1 0.484375,0.484375 z"
     id="circle160"
     inkscape:connector-curvature="0" />
  <path
     style="fill:url(#linearGradient1032);stroke-width:0.03210787"
     d="M 15.526873,0.64241384 A 0.35549835,0.27608161 2.037759 0 1 15.151921,0.37704193 0.35549835,0.27608161 2.037759 0 1 15.486648,0.09042949 0.35549835,0.27608161 2.037759 0 1 15.861601,0.35580137 0.35549835,0.27608161 2.037759 0 1 15.526873,0.64241384 Z"
     id="ellipse162"
     inkscape:connector-curvature="0" />
  <path
     inkscape:connector-curvature="0"
     id="path164"
     style="fill:none;stroke:#00cfff;stroke-width:0.06249824;stroke-linecap:round;stroke-linejoin:round"
     d="m 15.776786,0.43080389 c 0,-0.0691964 -0.06487,-0.0691964 -0.134103,-0.0691964" />
  <path
     inkscape:connector-curvature="0"
     id="path166"
     style="fill:none;stroke:#000000;stroke-width:0.03124912;stroke-linecap:round;stroke-linejoin:round"
     d="m 15.707589,0.2232146 -0.138393,0.13839286 h 0.20759" />
  <path
     inkscape:connector-curvature="0"
     id="path168"
     style="fill:none;stroke:#00cfff;stroke-width:0.06249824;stroke-linecap:round;stroke-linejoin:round"
     d="m 15.365759,0.36160746 c -0.0692,0 -0.142684,0 -0.142684,0.0691964" />
  <path
     inkscape:connector-curvature="0"
     id="path170"
     style="fill:none;stroke:#000000;stroke-width:0.03124912;stroke-linecap:round;stroke-linejoin:round"
     d="m 15.29241,0.2232146 0.138393,0.13839286 h -0.207589" />
  <path
     inkscape:connector-curvature="0"
     id="path172"
     style="fill:#ffffff;stroke:#000000;stroke-width:0.03124912;stroke-linecap:round;stroke-linejoin:round"
     d="m 15.29241,0.50000032 c -0.0692,0.0691964 -0.0692,0.20758929 0,0.27678572 0.138393,-0.0691964 0.276786,-0.0691964 0.415179,0 0.0692,-0.0691964 0.0692,-0.20758929 0,-0.27678572 -0.138393,0.0691964 -0.276786,0.0691964 -0.415179,0 z" />
  <path
     style="fill:#ff0000;fill-opacity:0;stroke:none;stroke-width:0.0625;stroke-linecap:round;stroke-linejoin:round;stroke-miterlimit:4;stroke-dasharray:none;stroke-opacity:1"
     d="M 0,-3.7252903e-8 H 1 V 0.99999996 H 0 Z"
     id="rect4737"
     inkscape:connector-curvature="0" />
  <path
     style="fill:#ff0000;fill-opacity:0;stroke:none;stroke-width:0.0625;stroke-linecap:round;stroke-linejoin:round;stroke-miterlimit:4;stroke-dasharray:none;stroke-opacity:1"
     d="m 24,-3.7252903e-8 h 1 V 0.99999996 h -1 z"
     id="rect4737-3"
     inkscape:connector-curvature="0" />
</svg>
