<?xml version="1.0" encoding="UTF-8" standalone="no"?>
<!-- Generated by IcoMoon.io -->

<svg
   xmlns:dc="http://purl.org/dc/elements/1.1/"
   xmlns:cc="http://creativecommons.org/ns#"
   xmlns:rdf="http://www.w3.org/1999/02/22-rdf-syntax-ns#"
   xmlns:svg="http://www.w3.org/2000/svg"
   xmlns="http://www.w3.org/2000/svg"
   xmlns:sodipodi="http://sodipodi.sourceforge.net/DTD/sodipodi-0.dtd"
   xmlns:inkscape="http://www.inkscape.org/namespaces/inkscape"
   version="1.1"
   width="512"
   height="32"
   viewBox="0 0 16 1"
   id="svg4"
   sodipodi:docname="toolbar_scr.svg"
   inkscape:version="0.92.2 2405546, 2018-03-11">
  <metadata
     id="metadata10">
    <rdf:RDF>
      <cc:Work
         rdf:about="">
        <dc:format>image/svg+xml</dc:format>
        <dc:type
           rdf:resource="http://purl.org/dc/dcmitype/StillImage" />
        <dc:title></dc:title>
      </cc:Work>
    </rdf:RDF>
  </metadata>
  <defs
     id="defs8" />
  <sodipodi:namedview
     pagecolor="#ffffff"
     bordercolor="#666666"
     borderopacity="1"
     objecttolerance="10"
     gridtolerance="10"
     guidetolerance="10"
     inkscape:pageopacity="0"
     inkscape:pageshadow="2"
     inkscape:window-width="640"
     inkscape:window-height="480"
     id="namedview6"
     showgrid="true"
     inkscape:pagecheckerboard="true"
     inkscape:current-layer="svg4">
    <inkscape:grid
       type="xygrid"
       id="grid4013"
       spacingx="1"
       spacingy="1" />
  </sodipodi:namedview>
  <path
     d="m 0.68749997,0.46880288 c 0,0 0.12500005,-0.04999 0.12500005,-0.224978 C 0.81250002,-0.01240012 0.49375003,9.8880346e-5 0.375,9.8880346e-5 H 0.125 V 0.99999988 h 0.25 c 0.23125004,0 0.49999999,0 0.49999999,-0.274973 0,-0.237476 -0.18750002,-0.256224 -0.18750002,-0.256224 z m -0.12499995,-0.193731 c 0,0.112489 -0.0937503,0.09999 -0.18750002,0.09999 v -0.187482 c 0.11250001,0 0.18750002,0.0062 0.18750002,0.08749 z M 0.375,0.81251888 v -0.249976 c 0.11250001,0 0.24999999,-0.01875 0.24999999,0.137487 0,0.118738 -0.15625003,0.112489 -0.24999999,0.112489 z"
     id="path2"
     inkscape:connector-curvature="0"
     style="fill:#ffffff;stroke-width:1.00000012" />
  <path
     inkscape:connector-curvature="0"
     style="fill:#ffffff;stroke-width:1"
     d="M 1.5,0 H 1.6875 L 1.5,1 H 1.3125 Z"
     id="path40" />
  <path
     inkscape:connector-curvature="0"
     style="fill:#ffffff;stroke-width:1"
     d="M 2.125,0.9375 H 2.8688017 V 1 H 2.125 Z"
     id="path105" />
  <path
     inkscape:connector-curvature="0"
     style="fill:#ffffff;stroke-width:1"
     d="m 2.6828512,0 v 0.525 c 0,0.09375 -0.068182,0.1625 -0.161157,0.1625 h -0.049587 c -0.092975,0 -0.161157,-0.06875 -0.161157,-0.1625 V 0 H 2.125 v 0.525 c 0,0.19375 0.1549587,0.35 0.3471074,0.35 h 0.055785 C 2.7200413,0.875 2.875,0.71875 2.875,0.525 V 0 Z"
     id="path107" />
  <path
     inkscape:connector-curvature="0"
     style="fill:#ffffff;stroke-width:1"
     d="m 3.6562499,0.4399222 c -0.03125,-0.018669 -0.0625,-0.031116 -0.0875,-0.043562 -0.125,-0.056008 -0.13125,-0.068454 -0.125,-0.1182394 0.00625,-0.049785 0.024999,-0.062231 0.0375,-0.074677 C 3.5374999,0.1723278 3.65625,0.1972238 3.7,0.2158898 L 3.76875,0.0416423 c -0.024999,-0.012446 -0.23125,-0.087124 -0.38125,0 -0.05,0.031116 -0.11875,0.093347 -0.13125,0.2115862 C 3.24375,0.3341295 3.2625,0.3963604 3.3,0.4399222 H 3 v 0.062231 h 1 v -0.062231 z"
     id="path88" />
  <path
     inkscape:connector-curvature="0"
     style="fill:#ffffff;stroke-width:1"
     d="m 3.4812498,0.5643847 c 0,0 0.00625,0 0.00625,0.00622 0.125,0.056008 0.15,0.074677 0.1375,0.1555781 -0.0125,0.056008 -0.03125,0.068454 -0.05,0.080901 -0.06875,0.037339 -0.20625,0 -0.275,-0.031116 L 3.2250008,0.937769 C 3.2437508,0.943989 3.3687508,1 3.5062507,1 c 0.05625,0 0.1125001,-0.012446 0.1625001,-0.037339 0.05625,-0.031116 0.125,-0.087124 0.15,-0.2115862 0.0125,-0.080901 0,-0.1431319 -0.024999,-0.1929169 H 3.4812517 Z"
     id="path90" />
  <path
     inkscape:connector-curvature="0"
     style="fill:#ffffff;stroke-width:1"
     d="m 4.13125,0.19375 c 0.0125,0.08125 0.025,0.1 0.025,0.18125 0,0.05 -0.09375,0.09375 -0.09375,0.09375 v 0.0625 c 0,0 0.09375,0.04375 0.09375,0.09375 0,0.08125 -0.0125,0.1 -0.025,0.18125 C 4.1125,0.9375 4.18125,1 4.24375,1 4.30625,1 4.375,1 4.375,1 V 0.875 c 0,0 -0.1125,0.0125 -0.1125,-0.0625 0,-0.05625 0.0125,-0.05625 0.025,-0.18125 C 4.29375,0.575 4.25625,0.53125 4.21875,0.5 4.25625,0.46875 4.29375,0.43125 4.2875,0.375 4.26875,0.25 4.2625,0.25 4.2625,0.19375 4.2625,0.11875 4.375,0.125 4.375,0.125 V 0 C 4.375,0 4.3125,0 4.24375,0 4.175,0 4.1125,0.0625 4.13125,0.19375 Z"
     id="path28" />
  <path
     inkscape:connector-curvature="0"
     style="fill:#ffffff;stroke-width:1"
     d="m 4.86875,0.19375 c -0.0125,0.08125 -0.025,0.1 -0.025,0.18125 0,0.05 0.09375,0.09375 0.09375,0.09375 v 0.0625 c 0,0 -0.09375,0.04375 -0.09375,0.09375 0,0.08125 0.0125,0.1 0.025,0.18125 C 4.8875,0.9375 4.81875,1 4.75625,1 4.69375,1 4.625,1 4.625,1 V 0.875 c 0,0 0.1125,0.0125 0.1125,-0.0625 C 4.7375,0.75625 4.725,0.75625 4.7125,0.63125 4.70625,0.575 4.74375,0.53125 4.78125,0.5 4.74375,0.46875 4.70625,0.43125 4.7125,0.375 4.725,0.25 4.7375,0.25 4.7375,0.19375 4.7375,0.11875 4.625,0.125 4.625,0.125 V 0 c 0,0 0.0625,0 0.13125,0 0.06875,0 0.13125,0.0625 0.1125,0.19375 z"
     id="path30" />
  <path
     inkscape:connector-curvature="0"
     style="fill:#ffffff;stroke-width:1"
     d="m 5.929577,0.0660376 c -0.087637,-0.08805 -0.2316117,-0.08805 -0.3192486,0 l -0.27543,0.2704402 c -0.087637,0.09434 -0.087637,0.2327044 0,0.327044 0.00626,0.00629 0.018779,0.012579 0.025039,0.018867 l 0.093897,-0.09434 c -0.00626,-0.00629 -0.018779,-0.012578 -0.025039,-0.018867 -0.037559,-0.037736 -0.037559,-0.1006289 0,-0.1383648 l 0.27543,-0.2767295 c 0.037559,-0.037736 0.1001564,-0.037736 0.1377152,0 0.037559,0.037736 0.037559,0.1006289 0,0.1383647 l -0.081377,0.081761 c 0.025039,0.050314 0.031299,0.1069182 0.025039,0.1572326 L 5.9295774,0.3867917 c 0.093897,-0.08805 0.093897,-0.2327043 -4e-7,-0.3207541 z"
     id="path50" />
  <path
     inkscape:connector-curvature="0"
     style="fill:#ffffff;stroke-width:1"
     d="m 5.6353676,0.3176099 -0.093897,0.09434 c 0,0 0.018779,0.012578 0.025039,0.018868 0.037559,0.037736 0.037559,0.1006289 0,0.1383648 L 5.2910795,0.8459121 c -0.037559,0.037736 -0.1001563,0.037736 -0.137715,0 -0.037559,-0.037736 -0.037559,-0.1006288 0,-0.1383647 l 0.081377,-0.081761 C 5.2097024,0.5754724 5.2284814,0.5440254 5.2097024,0.4685538 L 5.0657277,0.6132079 c -0.087637,0.08805 -0.087637,0.2327042 0,0.3207546 0.087637,0.08805 0.2316116,0.08805 0.3192485,0 l 0.2754301,-0.27673 c 0.087637,-0.08805 0.087637,-0.2327043 0,-0.3207546 -0.01252,-0.00629 -0.025039,-0.018867 -0.025039,-0.018868 z"
     id="path52" />
  <path
     inkscape:connector-curvature="0"
     style="fill:#ffffff;stroke-width:1"
     d="M 7,0.875 H 6 V 0.125 H 7 Z M 6.0625,0.8125 h 0.875 v -0.625 h -0.875 z"
     id="path62" />
  <path
     inkscape:connector-curvature="0"
     style="fill:#ffffff;stroke-width:1"
     d="M 6.125,0.625 V 0.75 h 0.75 V 0.6875 c 0,0 0.0125,-0.10625 -0.125,-0.125 C 6.63125,0.54375 6.6125,0.6 6.5125,0.6 6.44375,0.6 6.45625,0.5 6.3125,0.5 6.20625,0.5 6.125,0.625 6.125,0.625 Z"
     id="path64" />
  <path
     inkscape:connector-curvature="0"
     style="fill:#ffffff;stroke-width:1"
     d="m 6.8125,0.375 c 0,0.069062 -0.055937,0.125 -0.125,0.125 -0.069063,0 -0.125,-0.055938 -0.125,-0.125 0,-0.069063 0.055937,-0.125 0.125,-0.125 0.069063,0 0.125,0.055937 0.125,0.125 z"
     id="path66" />
  <path
     inkscape:connector-curvature="0"
     style="fill:#ffffff;stroke-width:1"
     d="M 7.4375,0.4375 V 0.875 H 7 V 0.43125 c 0,-0.3 0.28125,-0.3375 0.28125,-0.3375 l 0.0375,0.0875 c 0,0 -0.125,0.01875 -0.15,0.11875 -0.025,0.075 0.025,0.1375 0.025,0.1375 z"
     id="path76" />
  <path
     inkscape:connector-curvature="0"
     style="fill:#ffffff;stroke-width:1"
     d="M 8,0.4375 V 0.875 H 7.5625 V 0.43125 c 0,-0.3 0.28125,-0.3375 0.28125,-0.3375 l 0.0375,0.0875 c 0,0 -0.125,0.01875 -0.15,0.11875 -0.025,0.075 0.025,0.1375 0.025,0.1375 z"
     id="path78" />
  <rect
     y="0"
     x="8"
     width="0.15625"
     height="1"
     style="fill:#ffffff;stroke:none;stroke-width:0.0031"
     id="rect2" />
  <rect
     x="8.5625"
     y="0.8125"
     width="0.1875"
     height="0.125"
     style="fill:#ffffff;stroke:none;stroke-width:0.0031"
     id="rect4" />
  <rect
     x="8.5625"
     y="0.5625"
     width="0.1875"
     height="0.125"
     style="fill:#ffffff;stroke:none;stroke-width:0.0031"
     id="rect6" />
  <rect
     x="8.5625"
     y="0.3125"
     width="0.1875"
     height="0.125"
     style="fill:#ffffff;stroke:none;stroke-width:0.0031"
     id="rect8" />
  <rect
     x="8.5625"
     y="0.0625"
     width="0.1875"
     height="0.125"
     style="fill:#ffffff;stroke:none;stroke-width:0.0031"
     id="rect10" />
  <rect
     x="8.3125"
     y="0.5625"
     width="0.1875"
     height="0.125"
     style="fill:#ffffff;stroke:none;stroke-width:0.0031"
     id="rect12" />
  <rect
     x="8.3125"
     y="0.0625"
     width="0.1875"
     height="0.125"
     style="fill:#ffffff;stroke:none;stroke-width:0.0031"
     id="rect14" />
  <rect
     x="8.8125"
     y="0.3125"
     width="0.1875"
     height="0.125"
     style="fill:#ffffff;stroke:none;stroke-width:0.0031"
     id="rect16" />
  <rect
     x="8.8125"
     y="0.0625"
     width="0.1875"
     height="0.125"
     style="fill:#ffffff;stroke:none;stroke-width:0.0031"
     id="rect18" />
</svg>
