<svg class="alltags" version="1.1" viewBox="0 0 32 32" xmlns="http://www.w3.org/2000/svg">
  <path d="m15 .00195c-1.24 0-2.97.717-3.85 1.59l-10.5 10.5c-.877.877-.877 
           2.31 0 3.19l8.09 8.08c.877.877 2.31.877 3.19 0l10.5-10.5c.877-.877 
           1.59-2.61 1.59-3.85v-6.76c-4.5e-5-1.24-1.02-2.26-2.26-2.26l-.0019-.00195zm3.77 
           3.01c1.24 0 2.25 1.01 2.25 2.25 0 1.24-1.01 2.25-2.25 2.25s-2.25-1.01-2.25-2.25c0-1.24 
           1.01-2.25 2.25-2.25zm6.25.999v6.02c0 1.24-.718 2.97-1.59 3.85l-10.5 
           10.5c-.877.877-2.31.877-3.19 0l3 3c.877.877 2.31.877 3.19 0l10.5-10.5c.877-.877 
           1.59-2.61 1.59-3.85v-6.76c-4.5e-5-1.24-1.02-2.26-2.26-2.26l-.0019-.00195zm4.01 
           4v6.02c0 1.24-.718 2.97-1.59 3.85l-10.5 10.5c-.877.877-2.31.877-3.19 0l3 3c.877.877 
           2.31.877 3.19 0l10.5-10.5c.877-.877 1.59-2.61 
           1.59-3.85v-6.76c-4.5e-5-1.24-1.02-2.26-2.26-2.26l-.0019-.00195z"
  />
</svg>
