<svg version="1.1" viewBox="0 0 128 128" xmlns="http://www.w3.org/2000/svg">
 <g transform="matrix(.266 0 0 .263 18 -16.8)">
  <path d="m167 204s4.4-35.6 21.6-49.6 29.2-15.2 29.2-15.2l19.2 20.4s-49.6 15.2-52.8 61.2c-2.8 46.4-17.2-16.8-17.2-16.8z" fill="#68aa00"/>
  <path d="m339 278c14.8 45.2 5.6 99.2-24.8 141-11.6 16.4-25.6 29.2-40.4 37.6-14.8 8.8-30.4 13.2-46 13.2-8 0-16.4-1.2-24.4-4l-2.8-.8-2.4 1.6c-14.4 9.6-34 9.2-48.4-.8l-2.4-1.6-2.8.8c-8.8 3.2-17.6 4.8-26.8 4.8-31.2 0-62.8-18.8-86.4-51.2-30-41.6-39.6-95.6-24.8-141 18.8-55.2 60.8-67.2 92.8-67.2 25.2 0 45.2 7.2 45.6 7.2l2.8.8 2.4-1.6c14.4-10 34-10.4 48.4-.8l2.4 1.6 2.4-.8c6.4-2 22.8-6.4 42.8-6.4 32.4 0 74.4 12 92.8 67.6z" fill="#f27503"/>
  <path d="m79.2 270 73.2 30.8c-.4.4-48.4 48.4-73.2-30.8z" fill="#231f20"/>
  <g transform="translate(0 134)" fill="#d35c02">
   <path d="m199 334 2.4-1.6c-1.2.8-2 1.2-3.2 2 .4 0 .8-.4.8-.4z"/>
   <path d="m201 332 2.8.8c8 2.4 16 4 24.4 4 15.6 0 31.6-4.8 46-13.2 14.8-8.8 28.4-21.6 40.4-37.6 30-41.6 39.6-95.6 24.8-141-18.8-56-60.8-68-92.8-68-20 0-36.8 4.4-42.8 6.4l-2.8.8s47.2 16.8 70.4 52.4c27.2 41.6 42.8 149-70.4 195z"/>
  </g>
  <g transform="translate(0 134)" fill="#231f20">
   <polygon points="147 280 103 251 88.8 265 44.4 197 88.8 225 103 211 147 240 173 218 199 240 244 211 257 225 302 197 257 265 244 251 199 280 173 258"/>
   <path d="m272 137-73.2 30.8c0 .4 48.4 48.4 73.2-30.8z"/>
  </g>
 </g>
</svg>
