<svg version="1.1" viewBox="0 0 32 32" xmlns="http://www.w3.org/2000/svg" class="del toolbuton">
  <path d="m7.31 29.8s.488 2.17 3 2.17h11.4c2.51 0 3-2.17 3-2.17l2.25-21.3h-21.9l2.25 21.3zm13.1-18.1c0-.589.49-1.07 
           1.09-1.07s1.09.478 1.09 1.07l-1.09 16c0 .589-.49 1.07-1.09 1.07s-1.09-.478-1.09-1.07zm-5.46 0c0-.589.49-1.07 
           1.09-1.07s1.09.478 1.09 1.07v16c0 .589-.49 1.07-1.09 1.07s-1.09-.478-1.09-1.07zm-4.37-1.07c.603 0 1.09.478 
           1.09 1.07l1.09 16c0 .589-.49 1.07-1.09 1.07s-1.09-.478-1.09-1.07l-1.05-16c0-.589.49-1.07 
           1.09-1.07zm15.7-6.4h-4.81v-2.13c0-1.61-.488-2.12-2.2-2.12h-6.59c-1.46 0-2.14.715-2.14 2.13v2.13h-4.81c-.966 
           0-1.75.716-1.75 1.6 0 .884.781 1.6 1.75 1.6h20.5c.966 0 1.75-.716 1.75-1.6 0-.884-.781-1.6-1.75-1.6zm-6.99 
           0h-6.56l.000122-2.13h6.56v2.13z" 
         style="clip-rule:evenodd;fill-rule:evenodd"
  />
</svg>