<svg version="1.1" viewBox="0 0 32 32" xmlns="http://www.w3.org/2000/svg">
 <path d="m7.75 5.26h16.5c1.52 0 2.74-1.17 2.74-2.62 0-1.48-1.22-2.64-2.74-2.64h-16.5c-1.52 0-2.74 1.17-2.74 2.62s1.23 2.64 2.74 2.64z" />
 <path d="m24.3 26.8h-16.5c-1.52 0-2.74 1.17-2.74 2.62 0 1.45 1.22 2.62 2.74 2.62h16.5c1.52 0 2.74-1.17 2.74-2.62 0-1.42-1.22-2.62-2.74-2.62z"/>
 <path d="m24.1 7.01v-.484h-16.1v.484c0 4.12 2.18 7.65 5.27 9-3.09 1.35-5.3 4.86-5.3 9v.484h16.1v-.484c0-4.12-2.18-7.65-5.27-9 3.11-1.35 5.32-4.86 5.32-9z"/>
</svg>
