<svg version="1.1" viewBox="0 0 32 32" xmlns="http://www.w3.org/2000/svg">
  <path d="m30 10h-.88l.11 9.4c.017 1.5-1.2 3-3 3l-17 5e-6v.5c0 1.3 1.1 3 3 
           3h11l7 3-1-3c1.6 0 3-1.7 3-3v-11c0-1.3-.7-2.3-2.2-2.3z"/>
  <path d="m24 3.4h-21c-1.8 0-3 1.4-3 2.9v12c0 1.4 1.4 3 3 3l-1 4 7-4h15c1.7 
           0 3-1.5 3-3 .0098-3.9.052-7.7 0-12-.02-1.5-1.3-3-3-3zm-17 10c-.99 
           0-1.8-.81-1.8-1.8s.8-1.8 1.8-1.8c.99 0 1.8.81 1.8 1.8s-.81 1.8-1.8 
           1.8zm6.7 0c-.99 0-1.8-.81-1.8-1.8s.8-1.8 1.8-1.8 1.8.81 1.8 1.8-.8 
           1.8-1.8 1.8zm6.7 0c-.99 0-1.8-.81-1.8-1.8s.81-1.8 1.8-1.8c.99 0 
           1.8.81 1.8 1.8s-.81 1.8-1.8 1.8z"/>
</svg>
