<svg version="1.1" viewBox="0 0 32 32" xmlns="http://www.w3.org/2000/svg">
  <path d="m25.4 23.3-4.3-4.32c-.0231-.0232-.0502-.0392-.0741-.0608.877-1.28 
           1.36-2.88 1.36-4.56 0-4.64-3.67-8.32-8.21-8.32-4.54 0-8.21 3.68-8.21 
           8.24 0 4.56 3.67 8.24 8.21 8.24 1.67 0 3.19-.496 4.54-1.36.0215.024.0375.0512.0606.0744l4.3 
           4.32c.654.656 1.67.656 2.39 0 .654-.656.654-1.68 0-2.4zm-11.2-3.6c-2.95 
           0-5.34-2.4-5.34-5.36s2.39-5.36 5.34-5.36 5.34 2.4 5.34 5.36-2.39 5.36-5.34 5.36z"
  />
</svg>
