<svg version="1.1" viewBox="0 0 32 32" xmlns="http://www.w3.org/2000/svg">
  <path d="m30.2 26.9-6.45-6.48c-.0347-.0348-.0753-.0588-.111-.0912 1.32-1.92 
           2.04-4.32 2.04-6.84 0-6.96-5.51-12.5-12.3-12.5-6.81 0-12.3 5.52-12.3 
           12.4 0 6.84 5.51 12.4 12.3 12.4 2.51 0 4.79-.744 
           6.81-2.04.0323.036.0563.0768.091.112l6.45 6.48c.981.984 2.51.984 3.59 0 
           .981-.984.981-2.52 0-3.6zm-16.8-5.4c-4.43 0-8.01-3.6-8.01-8.04 0-4.44 
           3.59-8.04 8.01-8.04 4.43 0 8.01 3.6 8.01 8.04 0 4.44-3.59 8.04-8.01 8.04z"/>
</svg>
